<svg width="65" height="34" viewBox="0 0 65 34" fill="none" xmlns="http://www.w3.org/2000/svg">
<rect x="0.45" y="0.45" width="63.6681" height="32.5309" rx="2.55" stroke="#C5BFBF" stroke-width="0.9"/>
<path d="M26.5518 9.43688C26.5749 9.43638 26.598 9.43601 26.6211 9.43576C27.5585 9.42591 28.5045 9.43255 29.4505 9.43463C31.1443 9.43836 32.6554 9.23328 33.99 10.5252C34.7611 11.289 35.1202 12.3066 35.1251 13.3755C35.1369 15.9009 33.4074 17.4426 30.9612 17.4548L29.3866 17.4555C29.0862 17.4563 28.7369 17.4663 28.4429 17.4533C28.4248 17.8868 28.4395 18.4241 28.4395 18.864L28.4376 21.6176C27.8626 21.639 27.1278 21.6254 26.5471 21.6181L26.548 13.1396C26.548 11.9113 26.5372 10.6639 26.5518 9.43688ZM28.4392 15.8565C28.9212 15.8617 29.4031 15.8636 29.885 15.8623C30.8132 15.8626 31.7975 15.9189 32.5306 15.2167C33.0343 14.7074 33.1943 14.1324 33.1976 13.424C33.2007 12.8147 33.0122 12.1212 32.5601 11.6921C31.8685 11.036 31.0639 11.0341 30.1933 11.0353L29.1037 11.0371C28.9619 11.0374 28.5756 11.0473 28.4487 11.0294C28.4292 11.2528 28.4402 11.4881 28.4385 11.7131C28.4281 13.0927 28.4552 14.4774 28.4392 15.8565Z" fill="#222222"/>
<path d="M39.27 12.6683C39.3397 12.6589 39.5303 12.656 39.6065 12.6563C40.5985 12.6589 41.6866 12.9187 42.4048 13.6422C42.7491 13.9884 42.9864 14.4262 43.0885 14.9034C43.1803 15.3218 43.1626 15.7415 43.1622 16.1671L43.161 17.3758L43.1591 21.6148C42.6528 21.6395 41.9264 21.6213 41.4108 21.6178C41.4005 21.125 41.409 20.6038 41.4089 20.1088C41.3344 20.2197 41.2614 20.334 41.184 20.4426C40.2553 21.7457 38.354 22.035 36.967 21.3465C36.4582 21.0939 36.102 20.7188 35.8446 20.2218C35.6983 19.9091 35.6153 19.5705 35.6002 19.2256C35.5686 18.6121 35.7334 17.9766 36.1594 17.5233C37.053 16.5725 38.4823 16.5138 39.6825 16.4421L41.3372 16.3467C41.3411 15.8865 41.385 15.3169 41.1606 14.8977C40.6987 14.0339 39.268 13.9849 38.4903 14.3885C38.0618 14.6108 37.8702 14.9369 37.7379 15.3874C37.1881 15.397 36.5887 15.3906 36.0389 15.3833C36.175 13.6172 37.661 12.7844 39.27 12.6683ZM37.8825 19.9208C38.8985 20.6166 40.6981 20.219 41.1948 19.0355C41.2946 18.7974 41.4151 17.8681 41.3274 17.6384C41.3128 17.6342 41.2954 17.6272 41.2813 17.6286L39.8493 17.7178C39.1432 17.7616 38.2176 17.7525 37.7018 18.3068C37.5145 18.5082 37.4221 18.842 37.4418 19.1132C37.461 19.4051 37.5967 19.6771 37.8182 19.8682C37.8393 19.8862 37.8606 19.9038 37.8825 19.9208Z" fill="#222222"/>
<path d="M12.2841 15.2817C12.3438 15.0194 12.3672 14.7421 12.4261 14.4687C12.787 12.7954 14.352 11.4536 16.1157 11.8058C16.6629 11.915 17.1923 12.2786 17.753 12.3065C18.0448 12.3089 18.7988 11.9769 19.1401 11.862C20.414 11.4329 21.9343 11.8645 22.6946 13.0105C22.192 13.3555 21.749 13.7857 21.5127 14.355C20.856 15.9369 21.5464 17.4794 23.0313 18.2055C22.7629 19.0551 22.3929 19.7129 21.8736 20.4365C21.3328 21.2356 20.5093 21.9947 19.4712 21.6043C18.8935 21.3871 18.6301 21.2282 17.9809 21.1781C17.0444 21.1059 16.2111 21.9426 15.3342 21.6513C14.461 21.3612 13.6039 20.0278 13.2046 19.2496C12.8352 18.5313 12.5701 17.764 12.4171 16.971C12.3688 16.7143 12.3358 16.2979 12.2841 16.0869V15.2817Z" fill="#222222"/>
<path d="M50.3661 12.776C51.0053 12.7717 51.6448 12.7728 52.284 12.7794V12.8041C52.2172 12.8896 51.711 14.3844 51.6432 14.5752L49.7036 20.0143L49.134 21.614C48.5727 23.1882 47.9881 24.7843 46.0371 24.9031C45.6147 24.9288 45.2022 24.9503 44.7811 24.877C44.7781 24.392 44.7781 23.9069 44.7809 23.4219C46.4104 23.5225 46.6342 23.1352 47.0932 21.6437C46.0537 18.6876 44.9209 15.7333 43.8963 12.7757C44.5526 12.7729 45.2088 12.7734 45.8651 12.7774C46.1108 13.509 46.3399 14.2933 46.5686 15.033L48.1157 20.0229C48.3328 19.4042 48.5213 18.694 48.7254 18.0631C49.2899 16.3182 49.7909 14.5146 50.3661 12.776Z" fill="#222222"/>
<path d="M20.1182 8.50342H20.2867C20.2921 8.64508 20.2967 8.78498 20.2876 8.92671C20.2023 10.26 19.0332 11.64 17.6227 11.5483C17.5516 10.3425 18.2691 9.23209 19.362 8.74234C19.6209 8.62633 19.8457 8.57017 20.1182 8.50342Z" fill="#222222"/>
</svg>
