<svg width="48" height="48" viewBox="0 0 48 48" fill="none" xmlns="http://www.w3.org/2000/svg">
<path d="M18 23.9975L22 27.9975L30 19.9975M40 25.9975C40 35.9975 33 40.9975 24.68 43.8975C24.2443 44.0451 23.7711 44.0381 23.34 43.8775C15 40.9975 8 35.9975 8 25.9975V11.9975C8 11.467 8.21071 10.9583 8.58579 10.5833C8.96086 10.2082 9.46957 9.99748 10 9.99748C14 9.99748 19 7.59748 22.48 4.55748C22.9037 4.19548 23.4427 3.99658 24 3.99658C24.5573 3.99658 25.0963 4.19548 25.52 4.55748C29.02 7.61748 34 9.99748 38 9.99748C38.5304 9.99748 39.0391 10.2082 39.4142 10.5833C39.7893 10.9583 40 11.467 40 11.9975V25.9975Z" stroke="#0B72B2" stroke-width="2.5" stroke-linecap="round" stroke-linejoin="round"/>
</svg>
