<svg width="65" height="34" viewBox="0 0 65 34" fill="none" xmlns="http://www.w3.org/2000/svg">
<rect x="0.45" y="0.45" width="63.6681" height="32.5309" rx="2.55" stroke="#C5BFBF" stroke-width="0.9"/>
<path d="M29.6944 9.66432C30.9017 9.64835 32.1249 9.67596 33.3332 9.66236C34.5384 9.6488 35.4356 9.95031 36.3127 10.8179C36.9431 11.4534 37.1915 12.2744 37.2003 13.1478C37.2191 15.025 35.6072 16.5072 33.7741 16.5628C33.3563 16.5754 32.9131 16.5522 32.4878 16.5485L31.1983 16.5146L31.2003 21.1734C30.7492 21.1565 30.1492 21.1669 29.6931 21.1761L29.6944 9.66432ZM31.1996 15.0664L32.7775 15.0671C33.6344 15.0685 34.4409 15.1732 35.1044 14.5106C35.1257 14.4895 35.1468 14.468 35.1675 14.4462C36.2814 13.2392 35.7127 11.5978 34.2252 11.1087C33.9711 11.0252 33.2 11.0608 32.9078 11.0618L31.1986 11.0633L31.1996 15.0664Z" fill="#606467"/>
<path d="M40.2625 13.08C40.301 13.0747 40.3236 13.0741 40.3613 13.0723C41.4159 13.0203 42.4807 13.2357 43.2697 13.982C43.6781 14.3685 43.948 14.825 44.0865 15.3766C44.2646 16.0846 44.1899 16.8931 44.204 17.6253C44.2267 18.7907 44.1729 20.0123 44.2093 21.1725C43.7412 21.1699 43.2732 21.1707 42.8051 21.175C42.7952 20.7923 42.812 20.416 42.7899 20.0297C42.3875 20.5721 42.0549 20.9408 41.4133 21.2068C40.6418 21.5267 39.6561 21.4716 38.8943 21.1526C38.1247 20.8302 37.6631 20.3301 37.3481 19.5696C37.3272 19.5074 37.308 19.4446 37.2906 19.3814C37.1177 18.7362 37.1835 18.02 37.5249 17.4345C38.3029 16.1003 40.0096 15.9561 41.3938 16.1207C41.8687 16.1772 42.2853 16.3219 42.6959 16.5625C42.6984 16.3369 42.7062 16.0907 42.6668 15.8724C42.4631 14.7721 41.1929 14.1924 40.163 14.4105C39.4829 14.5546 39.0878 14.853 38.6993 15.4207C38.3442 15.1754 37.7782 14.8476 37.3967 14.6192C37.4337 14.5701 37.4718 14.5219 37.5111 14.4747C38.2648 13.5685 39.1042 13.1853 40.2625 13.08ZM40.9345 20.0564C41.9822 19.7364 42.7543 18.9396 42.7997 17.8151C42.6828 17.7332 42.5786 17.6609 42.4375 17.5916C41.8726 17.3142 41.2112 17.2369 40.5882 17.2789C40.5837 17.2799 40.5792 17.2808 40.5747 17.2818C39.7237 17.3688 38.6508 17.8736 38.7602 18.8963C38.7944 19.2152 38.9537 19.4865 39.2044 19.6859C39.617 20.0137 40.1436 20.163 40.6668 20.1007C40.7567 20.09 40.846 20.0752 40.9345 20.0564Z" fill="#606467"/>
<path d="M52.2841 13.3594C52.2764 13.423 52.0599 13.8915 52.021 13.9805L51.2544 15.7329L47.3552 24.6749L45.8546 24.6752C46.419 23.3879 47.1033 21.9982 47.705 20.7179C47.3851 20.0494 47.0541 19.251 46.7504 18.5677C46.5489 18.0608 46.2521 17.4369 46.0254 16.9243L44.4534 13.3635L46.0555 13.364C46.6427 14.8403 47.296 16.3015 47.8899 17.7762C48.0609 18.2009 48.2421 18.6411 48.4299 19.0573C48.6255 18.6643 48.9169 17.8809 49.0949 17.4434L50.1567 14.834C50.3521 14.3535 50.553 13.8348 50.7603 13.3632C51.2632 13.3642 51.7828 13.371 52.2841 13.3594Z" fill="#606467"/>
<path d="M13.0156 12.3799C13.1132 12.2989 13.3305 11.8515 13.4198 11.7149C14.7329 9.70724 17.0161 8.63295 19.3939 8.76649C20.766 8.84357 22.3687 9.47446 23.346 10.4636C22.749 11.0701 22.0555 11.7908 21.4429 12.3676C20.6017 11.6538 19.7095 11.2897 18.5888 11.3825C17.5602 11.4682 16.6095 11.9648 15.9515 12.7601C15.7323 13.0213 15.5636 13.3288 15.4185 13.6356C15.3638 13.7513 15.283 14.0451 15.1992 14.1128C15.1393 14.0239 14.8589 13.8193 14.7616 13.7446L13.613 12.863C13.4783 12.7596 13.1112 12.4902 13.0156 12.3799Z" fill="#EB4237"/>
<path d="M15.1898 16.6143C15.5329 17.6491 16.2123 18.4729 17.1943 18.9634C18.1406 19.4267 19.2319 19.4963 20.2294 19.157C20.5859 19.0378 20.8202 18.9076 21.1383 18.7157C21.8337 19.2585 22.6241 19.8255 23.294 20.3767C23.2513 20.4087 23.2124 20.4416 23.1724 20.4765C22.3104 21.2294 21.2347 21.6951 20.1057 21.8764C19.0319 22.0489 17.9092 21.9942 16.866 21.6554C15.1771 21.1075 13.7782 19.9058 12.9818 18.319C13.6892 17.808 14.4909 17.1568 15.1898 16.6143Z" fill="#33A953"/>
<path d="M18.8865 14.1655L25.1509 14.1656C25.1955 14.6161 25.2447 15.059 25.2462 15.5118C25.2512 17.054 24.8176 18.6089 23.8268 19.8126C23.696 19.9716 23.4522 20.2461 23.2944 20.3767C22.6244 19.8255 21.834 19.2584 21.1386 18.7156C21.8887 18.1758 22.2221 17.6124 22.4392 16.7224C21.2775 16.7214 20.0402 16.6989 18.8872 16.7262L18.8865 14.1655Z" fill="#4285F5"/>
<path d="M12.2841 14.7379C12.3196 14.5618 12.3355 14.3545 12.3693 14.167C12.449 13.7256 12.5726 13.2933 12.7383 12.8765C12.7792 12.7711 12.9125 12.3936 13.0159 12.3794C13.1114 12.4898 13.4786 12.7591 13.6133 12.8626L14.7619 13.7441C14.8592 13.8188 15.1396 14.0235 15.1995 14.1124C14.8583 14.7951 14.9381 15.8532 15.1738 16.5669C15.179 16.5824 15.1844 16.5978 15.1901 16.6131C14.4912 17.1557 13.6895 17.8069 12.9821 18.3178C12.6988 17.8053 12.4864 17.0971 12.3773 16.5234C12.3388 16.3207 12.3216 16.1163 12.2841 15.9141V14.7379Z" fill="#FCBC03"/>
</svg>
