<svg width="20" height="20" viewBox="0 0 20 20" fill="none" xmlns="http://www.w3.org/2000/svg">
<g clip-path="url(#clip0_69_5358)">
<mask id="path-1-inside-1_69_5358" fill="white">
<path fill-rule="evenodd" clip-rule="evenodd" d="M18.7495 5.625C18.7495 5.1278 18.5519 4.6508 18.2003 4.2992C17.8487 3.9476 17.3717 3.75 16.8745 3.75H3.10706C2.60986 3.75 2.13286 3.9476 1.78126 4.2992C1.42966 4.6508 1.23206 5.1278 1.23206 5.625V14.375C1.23206 14.8722 1.42966 15.3492 1.78126 15.7008C2.13286 16.0524 2.60986 16.25 3.10706 16.25H16.8745C17.3717 16.25 17.8487 16.0524 18.2003 15.7008C18.5519 15.3492 18.7495 14.8722 18.7495 14.375V5.625ZM17.4995 5.625V14.375C17.4995 14.5408 17.4337 14.6998 17.3165 14.817C17.1993 14.9342 17.0403 15 16.8745 15H3.10706C2.94126 15 2.78226 14.9342 2.66506 14.817C2.54786 14.6998 2.48206 14.5408 2.48206 14.375V5.625C2.48206 5.4592 2.54786 5.3002 2.66506 5.183C2.78226 5.0658 2.94126 5 3.10706 5H16.8745C17.0403 5 17.1993 5.0658 17.3165 5.183C17.4337 5.3002 17.4995 5.4592 17.4995 5.625Z"/>
</mask>
<path fill-rule="evenodd" clip-rule="evenodd" d="M18.7495 5.625C18.7495 5.1278 18.5519 4.6508 18.2003 4.2992C17.8487 3.9476 17.3717 3.75 16.8745 3.75H3.10706C2.60986 3.75 2.13286 3.9476 1.78126 4.2992C1.42966 4.6508 1.23206 5.1278 1.23206 5.625V14.375C1.23206 14.8722 1.42966 15.3492 1.78126 15.7008C2.13286 16.0524 2.60986 16.25 3.10706 16.25H16.8745C17.3717 16.25 17.8487 16.0524 18.2003 15.7008C18.5519 15.3492 18.7495 14.8722 18.7495 14.375V5.625ZM17.4995 5.625V14.375C17.4995 14.5408 17.4337 14.6998 17.3165 14.817C17.1993 14.9342 17.0403 15 16.8745 15H3.10706C2.94126 15 2.78226 14.9342 2.66506 14.817C2.54786 14.6998 2.48206 14.5408 2.48206 14.375V5.625C2.48206 5.4592 2.54786 5.3002 2.66506 5.183C2.78226 5.0658 2.94126 5 3.10706 5H16.8745C17.0403 5 17.1993 5.0658 17.3165 5.183C17.4337 5.3002 17.4995 5.4592 17.4995 5.625Z" fill="#A81315"/>
<path d="M17.3165 14.817L14.2995 11.8L17.3165 14.817ZM17.3165 5.183L14.2995 8.19999L17.3165 5.183ZM18.7495 5.625H23.0161C23.0161 3.99604 22.3689 2.43385 21.2172 1.28221L18.2003 4.2992L15.1833 7.31619C14.7348 6.86775 14.4828 6.25956 14.4828 5.625H18.7495ZM18.2003 4.2992L21.2172 1.28221C20.0656 0.130572 18.5034 -0.516667 16.8745 -0.516667V3.75V8.01667C16.2399 8.01667 15.6317 7.76463 15.1833 7.31619L18.2003 4.2992ZM16.8745 3.75V-0.516667H3.10706V3.75V8.01667H16.8745V3.75ZM3.10706 3.75V-0.516667C1.4781 -0.516667 -0.0840933 0.130571 -1.23573 1.28221L1.78126 4.2992L4.79824 7.31619C4.3498 7.76463 3.74161 8.01667 3.10706 8.01667V3.75ZM1.78126 4.2992L-1.23573 1.28221C-2.38737 2.43385 -3.03461 3.99605 -3.03461 5.625H1.23206H5.49872C5.49872 6.25955 5.24668 6.86775 4.79824 7.31619L1.78126 4.2992ZM1.23206 5.625H-3.03461V14.375H1.23206H5.49872V5.625H1.23206ZM1.23206 14.375H-3.03461C-3.03461 16.004 -2.38737 17.5662 -1.23573 18.7178L1.78126 15.7008L4.79824 12.6838C5.24668 13.1323 5.49872 13.7404 5.49872 14.375H1.23206ZM1.78126 15.7008L-1.23573 18.7178C-0.084095 19.8694 1.4781 20.5167 3.10706 20.5167V16.25V11.9833C3.74161 11.9833 4.34981 12.2354 4.79824 12.6838L1.78126 15.7008ZM3.10706 16.25V20.5167H16.8745V16.25V11.9833H3.10706V16.25ZM16.8745 16.25V20.5167C18.5034 20.5167 20.0656 19.8694 21.2172 18.7178L18.2003 15.7008L15.1833 12.6838C15.6317 12.2354 16.2399 11.9833 16.8745 11.9833V16.25ZM18.2003 15.7008L21.2172 18.7178C22.3689 17.5662 23.0161 16.004 23.0161 14.375H18.7495H14.4828C14.4828 13.7404 14.7348 13.1322 15.1833 12.6838L18.2003 15.7008ZM18.7495 14.375H23.0161V5.625H18.7495H14.4828V14.375H18.7495ZM17.4995 5.625H13.2328V14.375H17.4995H21.7661V5.625H17.4995ZM17.4995 14.375H13.2328C13.2328 13.4105 13.6156 12.4838 14.2995 11.8L17.3165 14.817L20.3334 17.834C21.2517 16.9158 21.7661 15.6712 21.7661 14.375H17.4995ZM17.3165 14.817L14.2995 11.8C14.9833 11.1162 15.9099 10.7333 16.8745 10.7333V15V19.2667C18.1706 19.2667 19.4152 18.7522 20.3334 17.834L17.3165 14.817ZM16.8745 15V10.7333H3.10706V15V19.2667H16.8745V15ZM3.10706 15V10.7333C4.0716 10.7333 4.99821 11.1162 5.68204 11.8L2.66506 14.817L-0.351933 17.834C0.5663 18.7522 1.81091 19.2667 3.10706 19.2667V15ZM2.66506 14.817L5.68204 11.8C6.36588 12.4838 6.74872 13.4105 6.74872 14.375H2.48206H-1.78461C-1.78461 15.6711 -1.27017 16.9158 -0.351933 17.834L2.66506 14.817ZM2.48206 14.375H6.74872V5.625H2.48206H-1.78461V14.375H2.48206ZM2.48206 5.625H6.74872C6.74872 6.58955 6.36588 7.51615 5.68204 8.19999L2.66506 5.183L-0.351933 2.16601C-1.27017 3.08425 -1.78461 4.32885 -1.78461 5.625H2.48206ZM2.66506 5.183L5.68204 8.19999C4.99821 8.88382 4.0716 9.26667 3.10706 9.26667V5V0.733333C1.81091 0.733333 0.5663 1.24778 -0.351933 2.16601L2.66506 5.183ZM3.10706 5V9.26667H16.8745V5V0.733333H3.10706V5ZM16.8745 5V9.26667C15.9099 9.26667 14.9833 8.88382 14.2995 8.19999L17.3165 5.183L20.3334 2.16601C19.4152 1.24778 18.1706 0.733333 16.8745 0.733333V5ZM17.3165 5.183L14.2995 8.19999C13.6156 7.51616 13.2328 6.58955 13.2328 5.625H17.4995H21.7661C21.7661 4.32885 21.2517 3.08424 20.3334 2.16601L17.3165 5.183Z" fill="#A81315" mask="url(#path-1-inside-1_69_5358)"/>
<path fill-rule="evenodd" clip-rule="evenodd" d="M2.38031 5.1391C2.38031 5.1391 6.79371 9.3605 8.70391 11.1875C9.42871 11.8809 10.5711 11.8809 11.2959 11.1875C13.2061 9.3605 17.6195 5.1391 17.6195 5.1391C17.8687 4.9007 17.8775 4.50471 17.6391 4.25531C17.4007 4.00611 17.0047 3.99731 16.7553 4.23571C16.7553 4.23571 12.3419 8.45731 10.4319 10.2843C10.1903 10.5155 9.80951 10.5155 9.56791 10.2843L3.24451 4.23571C2.99511 3.99731 2.59911 4.00611 2.36071 4.25531C2.1223 4.50471 2.13111 4.9007 2.38031 5.1391Z" fill="#A81315"/>
<path fill-rule="evenodd" clip-rule="evenodd" d="M7.04673 9.29024L1.93113 14.675C1.69353 14.925 1.70373 15.321 1.95393 15.5586C2.20393 15.7962 2.59993 15.786 2.83753 15.536L7.95313 10.151C8.19073 9.90104 8.18053 9.50504 7.93033 9.26744C7.68033 9.02984 7.28433 9.04004 7.04673 9.29024Z" fill="#A81315"/>
<path fill-rule="evenodd" clip-rule="evenodd" d="M11.7343 10.151L17.0467 15.7432C17.2843 15.9932 17.6803 16.0034 17.9303 15.7658C18.1805 15.5282 18.1907 15.1324 17.9531 14.8822L12.6405 9.29024C12.4029 9.04004 12.0071 9.02984 11.7569 9.26744C11.5069 9.50504 11.4967 9.90104 11.7343 10.151Z" fill="#A81315"/>
</g>
<defs>
<clipPath id="clip0_69_5358">
<rect width="20" height="20" fill="white"/>
</clipPath>
</defs>
</svg>
