<svg width="48" height="48" viewBox="0 0 48 48" fill="none" xmlns="http://www.w3.org/2000/svg">
<rect width="48" height="48" rx="24" fill="#FEF5F5"/>
<path fill-rule="evenodd" clip-rule="evenodd" d="M20.6694 14.1742C15.5204 17.481 12.6599 21.3301 12.0878 25.7215C11.1968 32.5575 17.3099 35.9033 20.4075 32.8973C23.5051 29.8913 21.6486 26.075 19.4058 25.0316C17.1629 23.9881 15.7912 24.3519 16.0305 22.9576C16.2699 21.5633 19.4605 17.6992 22.264 15.8994C22.3632 15.8148 22.4265 15.6956 22.441 15.5661C22.4555 15.4365 22.4201 15.3063 22.342 15.2019L21.6486 14.3C21.3477 13.9088 21.0592 13.9239 20.6694 14.1735M34.2263 14.1742C29.0774 17.481 26.2168 21.3301 25.6447 25.7215C24.753 32.5575 30.8662 35.9033 33.9638 32.8973C37.0614 29.8913 35.2049 26.075 32.9613 25.0316C30.7178 23.9881 29.3468 24.3519 29.5861 22.9576C29.8254 21.5633 33.0167 17.6992 35.8203 15.8994C35.9194 15.8147 35.9825 15.6955 35.9969 15.5659C36.0112 15.4364 35.9757 15.3062 35.8975 15.2019L35.2049 14.3C34.904 13.9088 34.6154 13.9239 34.2263 14.1735" fill="#FF6B6B"/>
</svg>
