<svg width="36" height="36" viewBox="0 0 36 36" fill="none" xmlns="http://www.w3.org/2000/svg">
<path d="M10.1457 24.4268C10.8216 24.4076 11.4988 24.4117 12.1747 24.4418C13.9469 24.5387 15.64 25.2173 16.9903 26.371C17.4013 26.7247 17.6429 26.995 18.0007 27.3964L18.0826 27.3008C19.9135 25.2118 22.2934 24.2916 25.0623 24.4227C25.5962 24.4486 26.0836 24.4172 26.6366 24.48C28.2873 24.6712 29.8397 25.362 31.089 26.4584C32.7233 27.8879 33.7228 29.9087 33.8675 32.0755C33.8948 32.5247 33.8798 32.978 33.888 33.4286C33.8948 33.7412 33.8661 34.0949 33.4797 34.1495C33.3104 34.1754 33.1002 34.1631 32.9268 34.1631L31.9942 34.1618H5.52128L3.61523 34.1631C3.27526 34.1631 2.93119 34.1659 2.59121 34.159C2.47243 34.1549 2.3591 34.1167 2.26489 34.0471C2.14884 33.9447 2.11334 33.7358 2.11334 33.5883C2.11334 32.9193 2.09286 32.2366 2.17887 31.5717C2.39324 29.9018 3.11824 28.3385 4.25422 27.0947C5.84896 25.3757 7.81508 24.5155 10.1457 24.4268ZM3.10049 33.1541C4.12724 33.1828 5.23728 33.1637 6.27222 33.1637L11.8948 33.1623H18.0662C18.3243 33.1623 18.6383 33.1541 18.8936 33.1651C18.895 32.638 18.8977 32.212 18.8294 31.6836C18.6233 30.1217 17.9106 28.6689 16.8019 27.5493C15.7219 26.4611 14.321 25.7471 12.8068 25.5108C12.0272 25.3948 10.9472 25.4057 10.1444 25.4344C8.11546 25.5136 6.39511 26.2481 5.00517 27.7487C3.97842 28.8587 3.33124 30.265 3.15784 31.7669C3.10049 32.253 3.10186 32.6667 3.10049 33.1541ZM18.5987 28.2443C18.768 28.5515 18.9223 28.8014 19.0766 29.1209C19.736 30.4985 19.8835 31.655 19.8835 33.1528C20.7191 33.1869 21.6953 33.1623 22.5419 33.1623H27.367L32.8954 33.1637C32.8954 32.6913 32.8954 32.2216 32.838 31.7519C32.6441 30.1544 31.9205 28.6676 30.7818 27.5316C29.6076 26.3533 28.0606 25.6214 26.4072 25.4603C25.9593 25.4166 25.3518 25.4248 24.8957 25.4262C24.6527 25.4248 24.4097 25.4276 24.1666 25.4344C23.9591 25.4426 23.7475 25.448 23.5399 25.4699C21.5356 25.6815 19.8275 26.6605 18.5987 28.2443ZM15.4065 1.83414C15.9349 1.83005 16.4619 1.87101 16.9835 1.95702C18.3611 2.1864 19.7511 2.78307 20.7464 3.78388C20.9867 4.02554 21.1779 4.27814 21.3745 4.55394C21.5793 4.54575 21.7882 4.51434 21.993 4.49932C23.9482 4.36825 26.0672 4.99631 27.3629 6.52961C27.961 7.2437 28.3037 8.11753 28.2095 9.05553C28.0907 10.2188 27.4462 11.0053 26.5888 11.7207C26.8646 12.6423 27.1022 13.5899 27.3629 14.517C27.4216 14.7641 27.2919 15.0181 27.0571 15.115C26.9643 15.1519 26.8632 15.1587 26.7676 15.1341C26.5983 15.0891 25.8965 14.6303 25.7068 14.5115C25.1565 14.1647 24.6035 13.8206 24.0492 13.4793C23.8594 13.3632 23.3884 13.0342 23.1863 12.9837C23.0921 12.9605 22.7153 13.0164 22.5692 13.0164C22.18 13.0137 21.7936 12.9891 21.4086 12.9427C19.8111 12.6655 18.7066 12.2081 17.5542 11.0353C17.4436 11.0517 17.3221 11.0763 17.2156 11.0995C16.4114 11.2592 15.5894 11.307 14.773 11.2401C14.5791 11.2278 14.3183 11.4435 14.1517 11.5419C13.992 11.6347 13.8172 11.7453 13.6534 11.8463L11.5521 13.1407C11.3636 13.2567 10.853 13.5872 10.6823 13.6554C10.599 13.6882 10.5089 13.695 10.4229 13.6759C10.3 13.65 10.1922 13.5749 10.1253 13.4697C10.0638 13.3755 10.0379 13.2636 10.0488 13.153C10.0666 12.9495 10.2099 12.5003 10.27 12.2873L10.7001 10.7595C10.767 10.5219 10.8899 10.1273 10.9349 9.89386L10.939 9.87338C8.88006 8.38241 8.3544 5.83192 10.1812 3.8972C11.5398 2.45811 13.4718 1.89422 15.4065 1.83414ZM11.2476 12.1126C11.7514 11.7903 12.2566 11.4709 12.7645 11.1555C13.1222 10.9302 13.5004 10.683 13.8623 10.4673C13.9879 10.3854 14.1695 10.257 14.3142 10.2407C14.575 10.212 14.8931 10.2625 15.1621 10.2734C15.5212 10.283 15.8816 10.2707 16.2407 10.2338C18.0416 10.0345 20.461 9.08557 20.9239 7.12491C21.085 6.43677 20.8229 5.58615 20.4283 5.02089C19.2022 3.2705 16.9125 2.76259 14.915 2.85816C13.4636 2.91141 11.8074 3.51763 10.7957 4.58398C9.56001 5.86741 9.74297 7.64648 11.0564 8.79611C11.1684 8.89442 11.7705 9.34226 11.8183 9.40506C12.06 9.72865 11.5807 10.8018 11.492 11.1841C11.4169 11.5132 11.3227 11.8231 11.2476 12.1126ZM21.8319 5.50832C21.9411 5.9903 22.0107 6.37533 21.9629 6.87095C21.8114 8.43293 20.6126 9.65219 19.2896 10.3663C19.194 10.4182 18.7161 10.6407 18.6779 10.6803C18.697 10.7609 19.1885 11.0845 19.2786 11.1391C20.2685 11.733 21.4168 11.9556 22.5596 11.9556C22.7644 11.9569 23.3734 11.8805 23.5031 11.9351C23.9086 12.103 24.4342 12.4867 24.8234 12.7215C25.2425 12.9837 25.6631 13.2431 26.0863 13.497C25.9716 13.0902 25.8542 12.6847 25.7341 12.2791C25.6549 12.0074 25.4583 11.5009 25.5811 11.2374C25.6439 11.1022 26.0358 10.8633 26.1696 10.7554C27.8627 9.37775 27.4244 7.26008 25.5743 6.27839C24.5421 5.72678 23.3843 5.45781 22.2155 5.49877C22.1008 5.50286 21.9438 5.51515 21.8319 5.50832ZM10.9158 15.2939C12.3303 15.242 13.6643 15.9561 14.4043 17.163C15.1443 18.37 15.1757 19.8828 14.4876 21.1212C13.7995 22.3582 12.4983 23.1283 11.0824 23.1365C8.93877 23.1488 7.18428 21.4393 7.13786 19.2971C7.0928 17.1548 8.77356 15.373 10.9158 15.2939ZM11.0155 22.1316C12.6293 22.122 13.9292 20.8058 13.921 19.192C13.9114 17.5781 12.5952 16.2769 10.9813 16.2865C9.36613 16.296 8.06631 17.6122 8.07586 19.2261C8.08406 20.8399 9.40026 22.1411 11.0155 22.1316ZM24.9244 15.2925C26.3389 15.2392 27.6729 15.9547 28.4129 17.163C29.1516 18.3714 29.1816 19.8856 28.4894 21.1212C27.7985 22.3582 26.4932 23.1242 25.0773 23.1269C22.9392 23.131 21.1942 21.4216 21.1519 19.2848C21.111 17.148 22.7876 15.3717 24.9244 15.2925ZM24.9995 22.137C26.6147 22.1357 27.9227 20.8249 27.9214 19.2097C27.9186 17.5945 26.6093 16.2865 24.994 16.2878C23.3788 16.2892 22.0694 17.5999 22.0722 19.2152C22.0735 20.8304 23.3843 22.1384 24.9995 22.137Z" fill="#CD1719"/>
</svg>
