<svg width="20" height="20" viewBox="0 0 20 20" fill="none" xmlns="http://www.w3.org/2000/svg">
<g clip-path="url(#clip0_69_5372)">
<path d="M5.23572 3.19922C5.02799 3.20651 4.82353 3.25607 4.63513 3.34375C4.44645 3.43162 4.27732 3.55642 4.13806 3.71094L4.1322 3.7168C3.82427 3.99934 3.5822 4.3464 3.42517 4.7334L3.42615 4.73438C3.31297 5.02127 3.24151 5.32282 3.21423 5.62891L3.20154 5.93652C3.21664 6.68931 3.38158 7.43165 3.68689 8.12012V8.12109C4.01381 8.86708 4.41214 9.57952 4.87537 10.249L5.07751 10.5332L5.54822 11.1504C6.02941 11.7584 6.54432 12.3392 7.09119 12.8896C7.82919 13.6198 8.62122 14.2943 9.45935 14.9072C10.216 15.4644 11.0333 15.9342 11.8959 16.3076L11.9008 16.3105C12.4193 16.5765 12.9865 16.7356 13.5677 16.7793C14.0762 16.8175 14.5868 16.7664 15.0765 16.6289L15.2855 16.5645C15.6641 16.404 16.0014 16.16 16.2719 15.8506L16.2728 15.8496C16.4362 15.6707 16.5719 15.4675 16.6742 15.248V15.2471C16.7553 15.0803 16.7982 14.8973 16.7992 14.7119L16.7943 14.624C16.7849 14.5373 16.7617 14.4525 16.7269 14.3721V14.3711C16.6864 14.2942 16.6256 14.2297 16.5511 14.1846L16.5463 14.1816L14.0736 12.4287C13.9503 12.3417 13.8179 12.2675 13.6791 12.208L13.6713 12.2051L13.6644 12.2002C13.608 12.1605 13.54 12.1397 13.4711 12.1426C13.4022 12.1455 13.3364 12.1716 13.2836 12.2158L13.2777 12.2207L13.2709 12.2246C13.1185 12.3096 12.9798 12.4175 12.8597 12.5439L12.8578 12.5459L12.2894 13.1064L12.2875 13.1084C12.1343 13.2525 11.9439 13.3516 11.7377 13.3936C11.5311 13.4355 11.3162 13.4187 11.1185 13.3457L11.1136 13.3438L10.9164 13.2568L10.9086 13.2529C10.5253 13.0365 10.1652 12.7813 9.83435 12.4912L9.55701 12.25C9.27279 11.9981 8.96633 11.7104 8.61462 11.3652L8.61365 11.3643C8.42924 11.1765 8.24645 10.9841 8.06189 10.7832L7.49939 10.1514C7.20951 9.82322 6.95185 9.46809 6.72986 9.09082L6.724 9.08105V9.08008L6.6322 8.86035L6.62927 8.85352C6.58976 8.72622 6.56933 8.59323 6.56775 8.45996C6.5657 8.32011 6.59178 8.18118 6.6449 8.05176C6.69809 7.92219 6.77741 7.80429 6.87732 7.70605L7.43201 7.12988L7.43396 7.12695H7.43494C7.55848 7.0083 7.66631 6.87385 7.75525 6.72754L7.7572 6.72363C7.79862 6.66279 7.8219 6.59196 7.82556 6.51855C7.82084 6.44904 7.80392 6.38073 7.77478 6.31738L7.7738 6.31543C7.7141 6.17484 7.6385 6.04149 7.54724 5.91895L7.54529 5.91699L5.81482 3.47949L5.81384 3.47852C5.75266 3.38957 5.66803 3.31926 5.5697 3.27441L5.56873 3.27344C5.46463 3.22443 5.35081 3.19898 5.23572 3.19922ZM9.11072 6.51758C9.10922 6.82288 9.02306 7.12217 8.86072 7.38086C8.71989 7.61742 8.54739 7.83339 8.34998 8.02539L8.35095 8.02637L7.87927 8.51465C8.00956 8.72629 8.15348 8.92913 8.30994 9.12207L8.474 9.31543V9.31641C8.8357 9.73476 9.18033 10.1084 9.52283 10.457L10.1322 11.0391C10.2263 11.126 10.3171 11.2086 10.4056 11.2871L10.6654 11.5117L10.6664 11.5137C10.9116 11.7317 11.1789 11.9233 11.4623 12.0889L11.9545 11.6328C12.1557 11.4244 12.3871 11.2473 12.641 11.1074C12.8702 10.9725 13.1283 10.8939 13.3939 10.8789C13.6594 10.8639 13.9245 10.9133 14.1674 11.0215H14.1683C14.3938 11.117 14.6086 11.2363 14.809 11.377L17.2845 13.1309H17.2836C17.5232 13.2916 17.7197 13.5078 17.8558 13.7607L17.9105 13.8721L17.9115 13.874C18.0232 14.1387 18.0812 14.4228 18.0834 14.71V14.7109C18.0828 15.0398 18.0183 15.3649 17.8929 15.668L17.8353 15.7959C17.679 16.1298 17.4723 16.4373 17.224 16.71L17.225 16.7109C16.826 17.1642 16.3287 17.5208 15.7709 17.7529H15.7699C15.2316 17.9739 14.6546 18.086 14.0726 18.083H14.0717C13.147 18.0672 12.2351 17.8647 11.391 17.4873C10.439 17.0759 9.53656 16.5579 8.70154 15.9434C7.81028 15.2915 6.96869 14.5744 6.18396 13.7979V13.7969C5.40646 13.0146 4.68883 12.175 4.03748 11.2852C3.43103 10.4562 2.91717 9.56362 2.50525 8.62305C2.13232 7.77622 1.93239 6.86346 1.91736 5.93848V5.9375C1.91417 5.36436 2.021 4.79578 2.23181 4.2627V4.26172C2.45586 3.70245 2.80194 3.20027 3.24451 2.79102C3.50047 2.52112 3.80723 2.30433 4.14783 2.1543C4.4901 2.00353 4.85973 1.92309 5.23376 1.91699H5.23474C5.53831 1.91634 5.83812 1.98298 6.11267 2.1123C6.41504 2.25111 6.67535 2.46882 6.86462 2.74219L8.58923 5.16992L8.69568 5.32324C8.7982 5.48027 8.88673 5.64619 8.95935 5.81934H8.95837C9.05541 6.03917 9.10732 6.27637 9.11072 6.5166V6.51758Z" fill="#A81315" stroke="#A81315" stroke-width="0.166667"/>
</g>
<defs>
<clipPath id="clip0_69_5372">
<rect width="20" height="20" fill="white"/>
</clipPath>
</defs>
</svg>
