<svg width="56" height="56" viewBox="0 0 56 56" fill="none" xmlns="http://www.w3.org/2000/svg">
<path d="M25.3316 28.1973C26.6406 26.5495 27.829 24.7635 29.1288 23.1039C29.2555 22.944 29.4019 22.8447 29.6125 22.8447C30.212 22.8464 30.8955 22.9726 31.4752 23.0955C34.7034 23.7906 37.5792 25.5766 39.5945 28.1435C39.9363 28.5744 40.249 29.0272 40.5328 29.4968C41.0896 30.4209 40.9935 30.5926 41.8586 31.3281C43.0241 31.4897 44.2477 31.0067 45.221 31.9678C45.8892 32.6276 45.8953 33.1747 45.8938 34.0432C45.8892 34.4606 45.8892 34.8798 45.8969 35.2972C46.1699 35.585 46.5163 35.9166 46.8015 36.1893C47.3401 36.6892 47.7261 37.1134 47.8161 37.8608C47.9976 39.3723 46.7054 39.9194 45.903 40.9226C45.8053 42.2035 46.2371 43.5669 44.98 44.4388C44.6992 44.6341 44.4597 44.7317 44.1348 44.8361C44.2095 44.9808 44.3285 45.2973 44.3972 45.4622L44.925 46.7415L45.4651 48.046C45.6039 48.3793 45.8618 48.8657 45.8282 49.2209C45.8084 49.438 45.5002 49.709 45.2683 49.672C44.6031 49.5643 43.9349 49.3606 43.2759 49.1973C43.0745 49.5508 42.3208 50.8671 42.0248 51.0034C41.8906 51.0657 41.7365 51.0657 41.5992 51.0135C41.4695 50.9647 41.3734 50.8806 41.3002 50.7678C41.1232 50.4917 41.0164 50.1265 40.8913 49.8235C40.5603 49.0155 40.2536 48.184 39.8859 47.3895C39.8066 47.1724 39.6937 46.9098 39.6052 46.6927C39.1643 46.7667 38.8348 46.7718 38.3985 46.6893L37.2863 49.3875C37.1002 49.8403 36.9217 50.3066 36.705 50.7459C36.5403 51.0809 36.017 51.1684 35.7759 50.8553C35.3915 50.3503 35.0726 49.7461 34.7217 49.2125C34.232 49.2781 32.9322 49.7679 32.563 49.6518C32.4074 49.6013 32.2685 49.4868 32.2014 49.3387C32.1526 49.2327 32.1419 49.1283 32.1679 49.0155C32.2624 48.5914 32.4928 48.152 32.6606 47.7497C33.0619 46.7768 33.4982 45.8056 33.8613 44.8192C32.8529 44.5264 32.3387 43.9743 32.1236 42.9727L26.2912 42.966H15.7721L11.2319 42.9677C10.4721 42.9677 9.70473 42.9711 8.94497 42.9643C8.81529 42.9643 8.48881 42.9256 8.39117 42.8465C8.26149 42.7421 8.18979 42.594 8.18216 42.4291C8.16386 42.0066 8.17148 41.5706 8.17301 41.1481L8.17606 38.8118C8.17453 37.7042 8.13487 36.3189 8.23098 35.2299C8.49339 32.4475 9.61776 29.8099 11.4561 27.6739C13.8239 24.9033 17.2168 23.1662 20.8905 22.8447C20.9622 22.8379 21.0797 22.8396 21.1499 22.8531C21.2612 22.8716 21.3635 22.9238 21.4428 23.0029C21.5984 23.1577 21.815 23.4675 21.9508 23.6509L22.6709 24.6205L25.3316 28.1973ZM25.324 29.7745C25.2156 29.7425 25.0249 29.6954 24.9548 29.6146C24.5993 29.209 24.2316 28.6787 23.9097 28.2428L21.5511 25.0682C21.3192 24.7568 21.0507 24.3798 20.802 24.0768C20.7669 24.033 20.7242 24.0381 20.6785 24.0398C17.406 24.3545 14.3289 26.0714 12.254 28.5542C10.643 30.4731 9.65133 32.8161 9.40418 35.2888C9.32332 36.1035 9.35536 36.9081 9.34773 37.7227C9.33553 39.0761 9.36604 40.4462 9.34773 41.7962C10.3668 41.8046 11.3875 41.8063 12.4081 41.8029C12.8673 41.8029 13.3998 41.7911 13.8513 41.8063L13.8544 37.2026V35.9166C13.8529 35.5901 13.7918 34.9639 14.0222 34.7249C14.1275 34.6189 14.2709 34.5583 14.4204 34.5566C15.1634 34.5448 15.0306 35.4032 15.0291 35.8863L15.0261 37.1993L15.0276 41.7962L28.1845 41.8029C29.4736 41.8029 30.8207 41.7827 32.1053 41.8063C32.1099 41.4427 32.1984 41.0034 31.9314 40.7273C31.132 39.8992 30.1632 39.342 30.1739 38.0796C30.1846 36.6674 31.3745 36.2263 32.0946 35.2837C32.1602 34.06 31.8337 32.7858 32.8483 31.8954C33.7881 31.0706 34.9872 31.4342 36.1375 31.3349C36.4472 31.0386 36.7523 30.7407 37.0559 30.4377C37.7455 29.7594 38.1101 29.4699 39.1231 29.4497C38.8836 29.1467 38.6609 28.8336 38.4122 28.5357C36.4258 26.1556 33.4433 24.4623 30.3173 24.0701C30.18 24.0532 30.0412 24.0381 29.9023 24.0246C28.4698 25.8324 27.1608 27.8068 25.713 29.6079C25.6367 29.7021 25.4414 29.7476 25.324 29.7745ZM39.2101 45.5784C40.0141 45.3612 40.7037 44.0652 41.4741 43.7403C41.5855 43.6932 41.9409 43.7033 42.0782 43.7049L43.0272 43.7117C43.6359 43.7184 44.2782 43.7588 44.6092 43.1427C44.9403 42.53 44.5085 40.9057 44.8366 40.3519C44.9388 40.1786 45.099 40.0372 45.2439 39.8975C45.5902 39.5625 46.3713 38.9044 46.5574 38.524C46.6688 38.29 46.6825 38.024 46.5986 37.78C46.3789 37.1656 45.0379 36.324 44.7588 35.6995C44.713 35.6002 44.7191 35.2349 44.7191 35.1104L44.7282 34.1358C44.7313 33.5837 44.7649 32.8498 44.1317 32.6125C43.5978 32.4138 42.7266 32.5283 42.1454 32.5115C41.4344 32.4929 41.4375 32.5468 40.9112 32.0604C40.4291 31.6143 39.9698 30.9865 39.384 30.6902C39.2101 30.6111 38.9431 30.6262 38.7616 30.6414C37.9576 30.8552 37.1841 32.2539 36.5235 32.4694C35.9926 32.6411 34.6119 32.3633 33.9711 32.5754C33.7469 32.6495 33.5562 32.7993 33.4341 32.9996C33.068 33.6039 33.4616 35.1592 33.1793 35.8291C33.1305 35.9419 32.8773 36.1792 32.7751 36.2785L32.1129 36.9131C31.7239 37.2868 31.1808 37.7497 31.3806 38.3556C31.6354 39.1316 32.9047 39.7897 33.2434 40.5287C33.2922 40.633 33.2846 40.9899 33.2831 41.1212L33.2755 42.0756C33.2724 42.3903 33.248 42.796 33.3777 43.1007C33.8689 44.2453 35.8721 43.3885 36.6852 43.8127C37.4205 44.1964 38.1742 45.7888 39.2101 45.5784ZM36.1573 44.8866C35.898 44.8714 35.3381 44.8899 35.1428 44.8563C34.9826 45.1475 34.7599 45.7316 34.6256 46.0598L33.7194 48.2631C34.9902 47.9164 35.2481 47.6168 35.9315 48.9314C35.9849 49.0172 36.0383 49.1031 36.0902 49.1889C36.2779 48.8203 36.5418 48.1403 36.7005 47.7413C36.9049 47.2296 37.2024 46.5866 37.3763 46.0783C37.1459 45.8325 36.8835 45.5851 36.6425 45.3478C36.5204 45.2283 36.287 44.9859 36.1573 44.8866ZM41.857 44.8832C41.5717 45.1239 40.8654 45.8056 40.6182 46.0918C41.0683 47.1118 41.4695 48.1823 41.9135 49.2074C42.066 48.9347 42.301 48.551 42.4764 48.285C42.5725 48.1403 42.6656 48.0174 42.8502 47.9854C43.2057 47.9214 43.9242 48.1621 44.2873 48.2598C44.1287 47.9046 43.9609 47.5107 43.822 47.1471C43.5367 46.3964 43.1599 45.6356 42.9006 44.8798C42.6198 44.8714 42.1332 44.858 41.857 44.8832Z" fill="#2D5B8D"/>
<path d="M38.6856 33.0383C41.5416 32.8683 43.9978 34.9993 44.1717 37.7985C44.3456 40.596 42.1686 43.003 39.3126 43.173C36.4567 43.3431 34.0004 41.2104 33.8265 38.4129C33.6541 35.6137 35.8281 33.2066 38.6856 33.0383ZM39.1677 42.0268C41.3798 41.9342 43.0977 40.1011 43 37.9331C42.9039 35.7651 41.0289 34.0853 38.8168 34.1846C36.6092 34.2839 34.9006 36.1153 34.9982 38.2765C35.0943 40.4395 36.9601 42.116 39.1677 42.0268Z" fill="#2D5B8D"/>
<path d="M40.9413 36.1797C41.3273 36.1359 41.6446 36.3009 41.6752 36.715C41.6919 36.9422 41.5317 37.1223 41.3777 37.2738C40.7934 37.8478 40.2045 38.4218 39.6202 38.9957C39.4295 39.1826 38.804 39.8205 38.6102 39.9518C38.5156 40.0158 38.4042 40.0494 38.2913 40.0478C37.9359 40.0444 37.2753 39.2836 37.0037 39.0159C36.6711 38.6995 36.0517 38.2585 36.4393 37.7619C36.5399 37.634 36.691 37.5532 36.8557 37.5397C36.9732 37.5313 37.0892 37.5583 37.1914 37.6172C37.4294 37.7518 38.0366 38.4133 38.3173 38.6524C38.6316 38.3191 39.0877 37.8596 39.4188 37.5549C39.7315 37.2671 40.5981 36.3026 40.9413 36.1797Z" fill="#2D5B8D"/>
<path d="M24.888 4.96062C29.4725 4.71992 33.3888 8.16213 33.639 12.6547C33.8892 17.1455 30.3772 20.9867 25.7927 21.2341C21.2052 21.4815 17.2798 18.0376 17.0296 13.5417C16.7794 9.04582 20.299 5.20301 24.888 4.96062ZM25.5013 20.0929C29.4374 20.002 32.5573 16.8072 32.4734 12.9509C32.3895 9.09295 29.1354 6.02947 25.1993 6.10354C21.2495 6.1776 18.1113 9.37742 18.1952 13.2455C18.2791 17.1152 21.5515 20.1821 25.5013 20.0929Z" fill="#2D5B8D"/>
</svg>
