<svg width="56" height="56" viewBox="0 0 56 56" fill="none" xmlns="http://www.w3.org/2000/svg">
<path d="M33.9485 3.36572H35.9007C36.0506 3.42731 36.7116 3.47453 36.9333 3.50942C40.2754 4.03291 43.2788 5.8456 45.2968 8.56156C46.9452 10.8177 47.8752 13.4515 47.8629 16.2619C47.8608 16.617 47.7951 16.9989 47.75 17.352C47.6904 17.8426 47.6227 18.3312 47.5508 18.8198C48.062 19.4562 48.5732 20.1993 49.0597 20.8686C49.46 21.4187 50.0225 22.127 50.3304 22.7244C50.507 23.1124 50.47 23.566 50.3181 23.9458C50.0697 24.572 49.2465 25.0092 48.6491 25.2494C48.8195 25.6107 49.3574 26.8527 49.2917 27.2284C49.1849 27.836 48.2119 27.9818 47.8423 28.2281L47.8362 28.2692C47.9758 28.4498 48.4562 28.7516 48.6614 28.9507C48.8216 29.1047 48.9488 29.3038 48.9468 29.5317C48.9447 29.9033 48.3001 30.8004 48.1215 31.2705C47.8916 31.8761 47.8239 32.4899 47.4153 33.0175C47.1464 33.3644 46.7687 33.6498 46.3561 33.7996C45.7422 34.0255 45.0402 34.0213 44.3956 34.0604C42.8805 34.1548 41.3388 34.1979 39.8731 34.6187C39.6534 34.6824 39.4194 34.7358 39.2203 34.8487C38.6413 35.173 37.734 37.0124 37.1366 37.5995C37.0093 37.7268 36.8635 37.8253 36.6829 37.852C36.2928 37.9095 35.8453 37.8684 35.4512 37.8684L33.0165 37.8664L24.4026 37.8684C24.1891 38.0819 23.9427 38.355 23.643 38.4412C23.4706 38.4905 23.3104 38.4638 23.1565 38.3734C22.8034 38.1702 22.5262 37.8335 22.2327 37.5585C21.8508 37.2033 21.4629 36.8502 21.0749 36.5012C18.4821 34.1753 13.7687 30.1927 12.8859 26.824C12.502 25.3603 12.9455 23.6954 13.6968 22.4205C14.5734 20.9671 15.9858 19.916 17.6301 19.4931C19.3094 19.0497 21.0974 19.2981 22.5919 20.1829C22.3476 19.5137 22.1957 18.7972 22.0992 18.089C21.7564 15.6707 22.1095 13.2031 23.1175 10.9778C23.916 9.20616 25.1006 7.63366 26.5807 6.37319C26.6977 6.2767 26.8373 6.19664 26.9543 6.10221C28.184 5.11067 29.5943 4.36958 31.1073 3.92205C31.6287 3.76809 32.1029 3.65518 32.6346 3.54843C32.9343 3.48684 33.7247 3.46426 33.9485 3.36572ZM31.5712 36.3L34.4904 36.298C34.9811 36.298 35.6647 36.2775 36.1389 36.3144L36.1553 36.2939C36.6706 35.6246 37.1058 34.824 37.6375 34.1548C38.3991 33.1776 40.0845 32.8738 41.2526 32.7239C42.6773 32.5412 44.1595 32.5494 45.5883 32.3873C46.3088 32.3031 46.3643 31.5435 46.5429 30.9892C46.6927 30.5253 46.8816 30.1414 47.1238 29.7267C46.6455 29.3203 46.0974 28.9651 45.6766 28.5012C45.4631 28.2671 45.4548 27.7806 45.6889 27.5609C46.1692 27.1073 46.9514 26.943 47.5324 26.6515C46.4156 23.9869 46.8015 24.6027 48.916 23.3402C48.4828 22.8147 47.9121 21.9689 47.4954 21.3961L46.627 20.2055C46.2637 19.7046 45.8962 19.3576 45.9742 18.7212C46.0214 17.9596 46.2596 17.0646 46.2698 16.3153C46.3088 13.7635 45.3933 11.22 43.8249 9.22258C41.6139 6.40809 37.9002 4.67341 34.3057 4.94233C31.3126 5.10451 28.5042 6.44093 26.4904 8.66009C24.4642 10.9059 23.4151 13.8662 23.5753 16.886C23.6122 17.6394 23.7251 18.3866 23.914 19.1175C24.0125 19.487 24.1685 19.916 24.2425 20.2773C25.4105 19.411 27.2704 19.138 28.6951 19.3556C30.399 19.6286 31.9264 20.5627 32.9467 21.9545C33.8458 23.1924 34.4062 24.9004 34.1558 26.438C33.6775 29.3531 30.1157 32.6459 27.9951 34.59C27.3628 35.171 26.7367 35.7848 26.0716 36.3288C26.4103 36.2734 27.5147 36.298 27.9068 36.298L31.5712 36.3ZM23.489 36.5936C23.7374 36.2959 23.992 36.1009 24.2732 35.8402L25.8663 34.3827C26.1167 34.1568 26.5191 33.8161 26.7408 33.5861C27.02 33.3152 27.3218 33.0709 27.603 32.806C29.1919 31.3033 32.5669 28.068 32.6182 25.8222C32.649 24.5617 32.1111 23.2827 31.2428 22.3774C30.3272 21.4167 29.0626 20.8665 27.7344 20.8542C26.8352 20.8439 25.9484 21.0738 25.1704 21.5255C24.9835 21.6322 24.807 21.7534 24.6366 21.8868C24.3697 22.1003 23.8155 22.6936 23.489 22.6771C23.0867 22.6566 22.5098 22.0264 22.1588 21.7616C21.3951 21.1847 19.9868 20.7269 19.0302 20.8645C17.6835 20.963 16.4682 21.507 15.5731 22.5334C14.7602 23.4675 14.2573 24.7403 14.3394 25.9884C14.4954 28.3369 18.3404 31.8597 20.0751 33.465C20.6971 34.0398 21.3171 34.6311 21.9597 35.1853C22.4749 35.6308 23.0169 36.1009 23.489 36.5936Z" fill="#2F5D8F"/>
<path d="M11.449 39.9583C14.2553 38.856 17.8827 37.8336 20.9148 38.5829C21.311 38.6815 21.8756 38.9299 22.2656 39.092L23.9736 39.7982C25.2854 40.3402 26.5992 40.8821 27.911 41.4303C28.7609 41.7854 29.3193 42.4033 29.5328 43.3045C29.9619 43.206 30.4812 43.1362 30.9206 43.0644L33.2013 42.6969L34.9545 42.4115C35.3507 42.3458 35.9378 42.237 36.3237 42.2473C36.878 42.2596 37.4179 42.4198 37.888 42.7113C38.586 43.1424 39.0828 43.8342 39.2696 44.6307C39.4585 45.4436 39.3086 46.2956 38.8549 46.9956C38.3992 47.708 37.6745 48.1924 36.8513 48.3505C36.1328 48.4901 35.3917 48.5969 34.6691 48.7139L30.2513 49.4303L27.3999 49.8922C26.9955 49.9579 25.8397 50.1714 25.4989 50.1365C23.9223 49.9764 22.3457 49.4837 20.9723 48.6831C20.4427 48.3752 19.6318 47.8619 19.0672 47.71C18.2584 47.4924 16.9548 47.8476 16.2199 48.2397C16.3533 48.4326 16.4601 48.6338 16.5833 48.8309C16.8891 49.3154 17.0103 49.8635 16.419 50.2043C15.0272 51.009 13.6374 51.8384 12.227 52.6123C12.1901 52.6328 12.227 52.6102 12.1901 52.6349H11.7569C11.6194 52.5548 11.4634 52.4624 11.3751 52.3269C11.061 51.8445 10.7736 51.3169 10.4862 50.816L9.0184 48.2787L6.65759 44.1873C6.32503 43.6084 5.81591 42.818 5.56751 42.196C5.51414 42.0626 5.60652 41.7813 5.69479 41.652C5.75843 41.5616 5.83644 41.4836 5.92677 41.42C6.49747 41.0341 7.20366 40.6892 7.8072 40.3299C8.53598 39.8927 9.29143 39.4636 10.0346 39.051C10.7798 38.6363 11.1719 39.4533 11.449 39.9583ZM12.2312 41.3112L14.4503 45.1521C14.6885 45.5668 15.2653 46.4968 15.4357 46.8889C16.6407 46.273 18.3713 45.8275 19.6687 46.2751C20.5515 46.5809 21.2556 47.0675 22.0685 47.515C22.8178 47.9215 23.6226 48.2191 24.4581 48.3957C24.7127 48.4511 25.5174 48.601 25.7494 48.5722C26.279 48.5086 26.8764 48.3998 27.4081 48.3136L30.3827 47.8291L34.3673 47.1865C34.9688 47.09 36.5085 46.9053 36.9581 46.6774C37.3194 46.4968 37.5945 46.1765 37.7156 45.7906C37.8388 45.4005 37.8018 44.9776 37.6109 44.6163C37.4159 44.253 37.0812 43.9697 36.685 43.8568C36.2888 43.7418 35.8741 43.8383 35.4759 43.8999C34.0204 44.1688 32.5177 44.3618 31.0602 44.6204C30.705 44.6841 29.6621 44.8155 29.3809 44.9037C28.9806 45.6181 28.5577 46.0903 27.7324 46.3284C27.3116 46.4496 26.8682 46.4619 26.4412 46.3633C26.0922 46.2833 25.4312 45.9918 25.076 45.844L22.8466 44.9202L20.8697 44.1011C20.5125 43.9533 20.1471 43.8137 19.8042 43.6412C19.601 43.5386 19.447 43.3045 19.4142 43.0828C19.3608 42.703 19.6462 42.2925 20.0259 42.2206C20.3318 42.1631 20.6274 42.3212 20.9046 42.4321C21.2823 42.5901 21.6559 42.7482 22.0336 42.9022L25.3819 44.2899C25.8438 44.4829 26.394 44.7436 26.8682 44.8586C27.523 45.0146 28.141 44.3063 28.0178 43.6679C27.9028 43.0685 27.4409 42.9104 26.94 42.7051C26.7368 42.6209 26.5356 42.5388 26.3344 42.4546L24.3206 41.6232L21.9474 40.6399C21.543 40.4716 20.923 40.1924 20.5207 40.0877C19.8494 39.9111 18.9092 39.8495 18.2112 39.8947C16.6223 40.0015 15.3556 40.2909 13.8324 40.7631C13.3643 40.9088 12.6602 41.1942 12.2312 41.3112ZM7.39252 42.3643C7.67377 42.7893 7.99402 43.3743 8.25268 43.8239L9.67122 46.2853L11.3915 49.262C11.6687 49.7444 12.0279 50.3356 12.2804 50.8242C12.5535 50.6231 13.0154 50.3705 13.3192 50.1961L15.0128 49.2209C14.5796 48.564 14.0438 47.5725 13.6415 46.8745L10.9604 42.2329C10.8455 42.0359 10.2255 40.8945 10.1208 40.8C9.24627 41.2948 8.265 41.9024 7.39252 42.3643Z" fill="#2F5D8F"/>
</svg>
