<svg width="47" height="47" viewBox="0 0 47 47" fill="none" xmlns="http://www.w3.org/2000/svg">
<path fill-rule="evenodd" clip-rule="evenodd" d="M18.4603 8.92603C11.0871 13.6613 6.99095 19.173 6.17171 25.4612C4.89586 35.2499 13.6496 40.041 18.0852 35.7366C22.5209 31.4322 19.8624 25.9674 16.6508 24.4732C13.4391 22.979 11.4749 23.4999 11.8176 21.5034C12.1603 19.5069 16.7291 13.9736 20.7437 11.3965C20.8857 11.2754 20.9763 11.1047 20.9971 10.9192C21.0178 10.7337 20.9671 10.5472 20.8553 10.3977L19.8624 9.1062C19.4316 8.54611 19.0184 8.56765 18.4603 8.92505M37.8732 8.92603C30.5001 13.6613 26.4039 19.173 25.5847 25.4612C24.3078 35.2499 33.0616 40.041 37.4972 35.7366C41.9328 31.4322 39.2744 25.9674 36.0618 24.4732C32.8491 22.979 30.8859 23.4999 31.2286 21.5034C31.5713 19.5069 36.1411 13.9736 40.1557 11.3965C40.2976 11.2752 40.388 11.1045 40.4085 10.919C40.4291 10.7335 40.3782 10.5471 40.2663 10.3977L39.2744 9.1062C38.8436 8.54611 38.4304 8.56765 37.8732 8.92505" fill="#FF6B6B"/>
</svg>
