<svg width="56" height="56" viewBox="0 0 56 56" fill="none" xmlns="http://www.w3.org/2000/svg">
<path d="M20.9474 5.96116C24.2029 5.84143 27.4171 6.70433 30.173 8.44044C33.8248 10.736 36.4156 14.3899 37.3713 18.597C38.323 22.7835 37.5757 27.1744 35.2967 30.8117L37.5737 33.0247C37.9886 33.4273 38.4675 33.9186 38.8969 34.2922C40.1128 33.9103 40.8394 33.9991 41.7849 34.9012L47.6105 40.5493L49.3033 42.1925C50.0588 42.9294 50.676 43.3795 50.707 44.5149C50.738 45.6998 49.937 46.3108 49.1856 47.085L47.7571 48.561C47.0552 49.2856 46.4359 50.0556 45.3377 50.0494C44.7039 50.0452 44.1362 49.7893 43.6841 49.3619C43.2506 48.9491 42.8212 48.5341 42.3939 48.1192L39.2396 45.0536C37.8771 43.7614 36.5002 42.4154 35.1749 41.0819C34.4813 40.382 34.4875 39.3334 34.8425 38.4539C34.6505 38.2248 33.9776 37.5972 33.734 37.3598L31.4054 35.1159C31.2113 35.2232 30.8769 35.4689 30.6767 35.6072C30.3402 35.8425 29.9913 36.0634 29.6342 36.2699C23.5939 39.771 15.9001 38.9824 10.7124 34.3005C7.46312 31.4083 5.51645 27.3292 5.31208 22.9837C5.09738 18.6589 6.62293 14.427 9.54398 11.2294C12.527 7.9388 16.538 6.17792 20.9474 5.96116ZM22.1984 36.4825C30.0945 36.113 36.1947 29.41 35.819 21.5139C35.4453 13.6178 28.7362 7.52387 20.8421 7.90371C12.9543 8.28355 6.86653 14.9844 7.24017 22.8702C7.61588 30.7581 14.3106 36.8499 22.1984 36.4825ZM45.4842 48.0717C45.6679 47.9293 46.2666 47.3368 46.407 47.1634C46.8095 46.67 48.6943 45.0082 48.7954 44.5231C48.5931 44.1226 47.3855 43.0327 46.9933 42.6508L44.4025 40.1364C43.0483 38.8297 41.7085 37.5043 40.3461 36.2079C40.185 36.0552 40.0694 36.0056 39.8465 36.018C39.4295 36.2492 37.2103 38.7017 36.7004 39.193C36.653 39.2384 36.5559 39.385 36.5394 39.4531C36.527 39.515 36.5002 39.61 36.5394 39.6657C36.814 40.0435 37.2495 40.4316 37.586 40.7557L39.2272 42.3452L43.0029 46.0074C43.6573 46.6432 44.3075 47.2852 44.9681 47.9128C45.1353 48.0697 45.2633 48.0944 45.4842 48.0717ZM32.8628 33.8236C33.2901 34.2386 35.8375 36.8004 36.1348 36.947L36.1823 36.9367C36.4486 36.6621 37.2516 35.8714 37.4477 35.601C36.7108 34.8888 35.9758 34.1746 35.2451 33.4562C35.0717 33.2869 34.2831 32.4756 34.1324 32.4529C33.7092 32.9318 33.3149 33.3674 32.8628 33.8236Z" fill="#2F5D8F"/>
<path d="M21.141 9.54075C28.1329 9.32606 33.973 14.8234 34.1835 21.8153C34.392 28.8073 28.8885 34.6452 21.8965 34.8475C14.9129 35.0499 9.08522 29.5546 8.87672 22.5709C8.66822 15.5872 14.1573 9.75544 21.141 9.54075ZM22.0472 32.9029C27.9636 32.616 32.5259 27.5872 32.2368 21.6708C31.9478 15.7544 26.917 11.1943 21.0006 11.4854C15.0883 11.7764 10.5323 16.8052 10.8213 22.7175C11.1103 28.6277 16.135 33.1878 22.0472 32.9029Z" fill="#2F5D8F"/>
<path d="M27.5079 15.1267C28.0178 15.1122 28.4884 15.3269 28.5689 15.8657C28.6536 16.454 28.152 17.2818 27.9022 17.8124L26.8679 20.0315L25.6809 22.581C25.425 23.1342 25.0616 23.9868 24.7272 24.4575C24.4196 24.8827 24.0336 25.244 23.5898 25.5227C23.1418 25.8014 22.3532 26.142 21.8536 26.3753L18.8707 27.7625C18.4144 27.9751 15.8526 29.2117 15.5202 29.2674C15.0516 29.2757 14.6016 29.0527 14.5066 28.5697C14.3848 27.9648 14.9154 27.0937 15.1714 26.5507L16.2593 24.2201L17.4504 21.6562C18.5528 19.2863 18.6766 19.179 21.0238 18.0911L23.5278 16.9268L25.9906 15.7769C26.3601 15.6035 27.1611 15.201 27.5079 15.1267ZM21.8825 23.673C22.7021 23.479 23.2078 22.6533 23.0076 21.8358C22.8094 21.0162 21.9837 20.5146 21.1641 20.719C20.3529 20.9192 19.8574 21.7388 20.0535 22.5521C20.2517 23.3655 21.0671 23.865 21.8825 23.673ZM23.278 19.2161C23.6248 19.4102 23.759 19.532 24.046 19.8107C24.2338 20.0233 24.4052 20.2731 24.5724 20.4547C24.6797 20.11 25.6107 18.2376 25.588 18.1365L25.5467 18.12C24.9336 18.4234 23.8024 18.8879 23.278 19.2161ZM17.3988 26.3154L18.3195 25.8819C18.7736 25.6693 19.3455 25.4215 19.7831 25.1945C19.4322 24.9529 19.2938 24.8353 18.9986 24.5339C18.8892 24.4224 18.5713 23.9951 18.528 23.9682C18.1213 24.7114 17.8013 25.597 17.3988 26.3154Z" fill="#2F5D8F"/>
</svg>
