<svg width="24" height="24" viewBox="0 0 24 24" fill="none" xmlns="http://www.w3.org/2000/svg">
<path d="M3.76435 1.72731C4.0825 1.71496 4.46398 1.725 4.7883 1.72577H6.73968H12.7089H17.6333L19.2194 1.725C19.5074 1.725 19.7978 1.72191 20.0858 1.72886C20.3144 1.73504 20.4943 1.81998 20.6472 1.99373C20.7399 2.10106 20.7962 2.23466 20.8094 2.3752C20.8248 2.54586 20.8179 2.77984 20.8179 2.95436V3.92966L20.8171 7.01773V10.5413L20.8179 11.634C20.8179 11.7321 20.8163 11.8402 20.8186 11.9383C20.8271 12.3197 20.8233 12.5499 20.5175 12.8116C20.5669 12.858 20.6758 12.9321 20.7337 12.9753C20.8387 13.0518 20.9406 13.1329 21.0379 13.2186C21.6179 13.7244 22.0773 14.3522 22.3855 15.0565C22.9299 16.3144 22.953 17.7368 22.4488 19.0117C21.9337 20.3029 20.9237 21.3338 19.6426 21.8751C19.5314 21.9237 19.3947 21.9747 19.2796 22.0133C17.9746 22.4504 16.5483 22.3454 15.3213 21.7206C14.1004 21.1044 13.173 20.0295 12.7429 18.7314C12.349 17.5407 12.4031 16.0549 12.9691 14.9283H5.33966H3.02689L2.30333 14.929C1.97437 14.9298 1.6678 14.9669 1.41374 14.7167C1.23613 14.5422 1.19057 14.3646 1.19057 14.1213C1.18903 13.3977 1.19057 12.6742 1.19057 11.9506V7.6301V5.41308L1.1898 4.77369C1.18903 4.63237 1.18594 4.49106 1.19984 4.35052C1.22841 4.04935 1.4539 3.7868 1.7512 3.72116C1.93962 3.68024 2.14889 3.69336 2.34271 3.69336L3.0601 3.69491V2.86092C3.0601 2.70339 3.05006 2.45242 3.08095 2.30647C3.10566 2.18755 3.15894 2.07713 3.23539 1.98369C3.37361 1.81535 3.55354 1.74662 3.76435 1.72731ZM20.204 7.14746C19.7283 7.15905 19.2209 7.14824 18.7422 7.14901L16.0487 7.14824L15.2186 7.14901C14.9128 7.14901 14.59 7.15982 14.2919 7.08878C13.9761 7.01156 13.6873 6.85016 13.4564 6.62159C13.1197 6.28568 12.9328 5.82776 12.939 5.35285C12.9436 4.87716 13.139 4.42388 13.4811 4.09337C14.0178 3.57213 14.5398 3.59993 15.2255 3.59993H16.3645H18.8364C19.2634 3.59993 19.7067 3.59375 20.1321 3.60147L20.2078 3.60301L20.207 3.59066C20.1947 3.36749 20.2449 2.48254 20.1623 2.37288C20.0117 2.33273 19.0943 2.34817 18.8951 2.34817H16.0927L3.92497 2.34972C3.8408 2.35049 3.77439 2.33968 3.70798 2.38755C3.67478 2.4362 3.67246 2.53119 3.67246 2.59142C3.67323 3.32039 3.674 4.0509 3.674 4.77986L3.67323 9.32201V11.3112C3.67323 11.4363 3.65547 12.2479 3.70721 12.3035C3.80374 12.3591 4.29254 12.339 4.42768 12.339H5.65473H13.3104H14.9591C15.0618 12.339 15.6278 12.3483 15.6873 12.3251C16.8765 11.8564 18.2101 11.8116 19.4124 12.261C19.4704 12.2827 19.5391 12.3097 19.6009 12.3228C19.7213 12.3414 20.0951 12.3722 20.1762 12.2927C20.2202 12.1344 20.2063 11.7591 20.2063 11.5753V10.6587C20.2063 9.49576 20.2186 8.30887 20.204 7.14746ZM17.8039 20.2334C19.529 20.1469 20.8573 18.6758 20.7684 16.9507C20.6789 15.2256 19.207 13.8989 17.4819 13.99C15.7591 14.0812 14.4363 15.5499 14.5251 17.2727C14.6139 18.9955 16.0811 20.3206 17.8039 20.2334ZM17.2966 12.5831C16.0973 12.668 14.9815 13.2294 14.1985 14.1422C13.6502 14.7785 13.2896 15.5553 13.1568 16.3847C13.1429 16.4719 13.0965 16.7515 13.1151 16.8217C13.1413 16.8379 13.1274 16.8325 13.1591 16.8341L13.9375 16.8379C14.0286 15.814 14.4826 14.8727 15.2765 14.2093C15.8595 13.7174 16.5815 13.4201 17.3414 13.3576C17.3398 13.2564 17.3514 12.6271 17.3267 12.5838C17.319 12.5831 17.3035 12.5823 17.2966 12.5831ZM17.3429 21.6542C17.3337 21.4048 17.3383 21.1229 17.3398 20.872C17.1167 20.8411 16.9136 20.8117 16.695 20.7531C15.8935 20.5361 15.1877 20.0565 14.6904 19.3916C14.2425 18.8001 14.0317 18.1909 13.9506 17.4603C13.6965 17.4534 13.3552 17.4704 13.1228 17.4549C13.1058 17.4912 13.1197 17.5762 13.1251 17.621C13.1668 17.987 13.2525 18.3468 13.3807 18.6928C13.8031 19.8279 14.6603 20.7492 15.7622 21.2527C16.3197 21.5075 16.7445 21.5878 17.3429 21.6542ZM21.3476 17.4573C21.2573 18.4634 20.7669 19.3916 19.987 20.0341C19.4364 20.4859 18.6719 20.8264 17.9568 20.8704C17.9537 21.1083 17.9638 21.4179 17.9522 21.6481C18.1244 21.6372 18.2966 21.6164 18.4673 21.587C20.5329 21.1639 21.9986 19.5639 22.1847 17.4542C21.9932 17.4542 21.7924 17.4519 21.6009 17.4557C21.5175 17.458 21.4302 17.4619 21.3476 17.4573ZM20.207 6.52661C20.197 6.28568 20.2016 5.92737 20.2086 5.68335C18.9908 5.66559 17.7398 5.68026 16.519 5.68026L15.3722 5.68104C15.1861 5.68104 15.0085 5.6849 14.817 5.67486C14.5182 5.66019 14.4101 5.35748 14.6047 5.14358C14.6587 5.08489 14.7545 5.07099 14.8301 5.06481C15.1043 5.05632 15.3884 5.06018 15.6634 5.06095H17.2055H19.1769C19.485 5.06095 19.9036 5.04859 20.2063 5.06558C20.1924 4.83624 20.2063 4.46635 20.2047 4.2231C19.7955 4.23314 19.3468 4.2231 18.9337 4.2231H16.1885C15.7128 4.2231 15.2116 4.21461 14.7382 4.22387C14.366 4.24318 14.1104 4.30727 13.8456 4.59917C13.6417 4.82774 13.5367 5.12736 13.5544 5.43316C13.5707 5.74127 13.7104 6.03085 13.9421 6.23471C14.3104 6.56058 14.6749 6.52429 15.1313 6.52429L16.007 6.52352H18.7916H19.6928C19.8518 6.52352 20.0511 6.51811 20.207 6.52661ZM21.3507 16.8295C21.6333 16.841 21.9075 16.8318 22.1862 16.8395C22.1669 16.6016 22.1499 16.4202 22.1013 16.1847C21.8959 15.2032 21.3731 14.3167 20.6125 13.6634C20.0325 13.1622 19.3344 12.817 18.5839 12.6611C18.4734 12.6387 18.3692 12.6209 18.258 12.6078C18.1645 12.5962 18.0418 12.5931 17.9537 12.5722C17.9561 12.8062 17.963 13.1205 17.9514 13.3506C18.1808 13.3838 18.3777 13.4116 18.6008 13.4719C19.4039 13.6904 20.1105 14.1707 20.6078 14.8379C21.0588 15.4418 21.282 16.085 21.3507 16.8295ZM13.7552 13.7205C13.9969 13.4317 14.2749 13.1753 14.5823 12.9584H7.0949H4.81842L4.14737 12.9591C3.81763 12.9599 3.52574 12.99 3.27477 12.7383C3.17284 12.6356 3.09716 12.5035 3.07322 12.356C3.05315 12.1336 3.0601 11.8695 3.0601 11.6441L3.06087 10.2888V6.30653V4.99068C3.06087 4.78681 3.06936 4.5204 3.05932 4.3204C2.72959 4.32426 2.38441 4.31036 2.05622 4.32194C1.97205 4.32272 1.89328 4.31036 1.83228 4.36364C1.78595 4.44704 1.80216 5.10651 1.80216 5.25014L1.80294 6.67796L1.80216 12.3329V13.5143C1.80216 13.7476 1.79058 14.014 1.8207 14.2449C1.82996 14.3128 2.00834 14.3144 2.05777 14.3128C2.84619 14.3151 3.63539 14.3136 4.42459 14.3136H8.93431H11.8347C12.2919 14.3136 12.8625 14.3306 13.3073 14.312C13.4471 14.1005 13.5846 13.9074 13.7552 13.7205Z" fill="#1A1A1A"/>
<path d="M7.00672 4.35212C7.05537 4.34749 7.12873 4.34594 7.17892 4.34594C7.59592 4.34594 8.01137 4.34517 8.42913 4.34749C8.64072 4.35135 8.85616 4.33281 9.06698 4.35444C9.18281 4.36602 9.30559 4.46332 9.32335 4.58147C9.34961 4.76294 9.33957 4.95753 9.33957 5.14132L9.33802 6.04481C9.80058 6.05871 10.2655 6.03786 10.728 6.0533C10.8191 6.0533 10.9574 6.11431 10.9983 6.20388C11.0608 6.34211 11.0415 6.63014 11.0415 6.7815L11.0423 7.47494L11.0415 8.02553C11.0415 8.22476 11.0747 8.45797 10.8987 8.58307C10.8631 8.60855 10.7458 8.63172 10.6979 8.63326C10.4446 8.64098 10.1913 8.63403 9.93803 8.63635C9.81757 8.63558 9.44073 8.64871 9.34189 8.62863C9.32953 8.95373 9.34652 9.28115 9.33957 9.60779C9.33648 9.77073 9.36351 10.0155 9.29633 10.1676C9.25771 10.2541 9.17432 10.3028 9.08474 10.3306C8.64381 10.3584 8.17894 10.3236 7.73569 10.336C7.62835 10.336 7.50634 10.3352 7.40055 10.3375C7.04224 10.3375 6.76424 10.4032 6.75652 9.94061C6.7488 9.51358 6.77274 9.06184 6.75343 8.63944C6.45845 8.63635 6.16346 8.63558 5.86848 8.63635C5.69859 8.63789 5.50863 8.64562 5.34029 8.6294C5.26307 8.62245 5.21287 8.60237 5.15418 8.5545C5.06383 8.47882 5.05302 8.36608 5.05225 8.24793C5.04993 7.88576 5.04916 7.52436 5.05071 7.16143C5.05766 6.8703 5.03295 6.57146 5.06692 6.28265C5.07928 6.17686 5.19125 6.07492 5.29395 6.0618C5.46847 6.0394 5.65072 6.0479 5.82678 6.0479L6.75652 6.04944C6.75266 5.6587 6.75961 5.26719 6.75575 4.87568C6.75266 4.63398 6.73104 4.43243 7.00672 4.35212ZM5.67002 6.66953C5.65689 7.10351 5.68469 7.59309 5.66384 8.0124C5.95265 8.01626 6.24068 8.01704 6.52949 8.01549C6.59667 8.01549 6.67544 8.01163 6.74185 8.01472C6.9156 8.02321 7.15653 7.97843 7.2878 8.11897C7.40981 8.24947 7.36194 8.4765 7.36889 8.64176C7.35807 8.99311 7.38356 9.35682 7.36734 9.70586L7.36657 9.71667L8.416 9.72053C8.48241 9.72053 8.67778 9.73135 8.72334 9.70123C8.72566 9.38848 8.72566 9.07497 8.72412 8.76222C8.7218 7.98306 8.72103 8.01318 9.49478 8.01472H10.4145L10.4268 8.01549C10.4276 7.60854 10.4446 7.06876 10.4268 6.67493C9.97742 6.67879 9.51177 6.67493 9.06235 6.67339C8.65462 6.67184 8.72643 6.24713 8.72412 5.97531C8.71639 5.64866 8.73647 5.30348 8.72334 4.97298L7.87005 4.97221C7.75422 4.97221 7.47777 4.98147 7.37661 4.96294C7.35035 5.30348 7.3797 5.66025 7.36966 6.00929C7.36348 6.24558 7.4353 6.62165 7.08394 6.66567C6.86386 6.69347 6.62602 6.66103 6.40439 6.67262C6.22756 6.66798 5.85303 6.69038 5.69782 6.67262C5.68855 6.67184 5.67929 6.6703 5.67002 6.66953Z" fill="#1A1A1A"/>
<path d="M16.7336 8.85556C16.99 8.84707 17.2765 8.85324 17.5367 8.85324C17.8255 8.86483 18.1475 8.82544 18.4294 8.89185C18.9051 9.00305 19.2796 9.4185 19.319 9.90731C19.3506 10.2996 19.3228 10.6679 19.0587 10.9761C18.807 11.2695 18.5359 11.3745 18.1622 11.4077C17.7776 11.4239 17.3823 11.4023 16.9977 11.4116C16.5992 11.4201 16.2734 11.3791 15.9606 11.1112C15.7336 10.9174 15.593 10.6394 15.5722 10.3413C15.5421 9.9382 15.5737 9.56677 15.8525 9.25325C16.0973 8.97911 16.3776 8.87873 16.7336 8.85556ZM18.1622 10.7869C18.3282 10.773 18.4834 10.7143 18.5846 10.5815C18.8263 10.2648 18.7607 9.57603 18.2935 9.4965C18.0494 9.4548 17.817 9.47796 17.5714 9.47179C17.2958 9.47333 16.9954 9.46561 16.7228 9.47642C16.2471 9.53279 16.1336 9.86407 16.1822 10.2849C16.2363 10.7591 16.6409 10.8062 17.0201 10.7923C17.3992 10.7776 17.7877 10.8077 18.1622 10.7869Z" fill="#1A1A1A"/>
<path d="M17.5893 14.8369C17.9399 14.8176 17.9445 15.0825 17.9507 15.3435C18.1839 15.4215 18.5793 15.5976 18.6735 15.8431C18.7044 15.9219 18.7013 16.0099 18.6658 16.0864C18.6333 16.1566 18.5592 16.2315 18.482 16.2516C18.2063 16.3234 18.1816 16.1057 17.9669 16.0068C17.797 15.9227 17.6194 15.8933 17.4341 15.9528C17.2024 16.0277 17.0441 16.298 17.153 16.5319C17.2866 16.8207 17.5769 16.796 17.8387 16.837C17.9407 16.8524 18.0403 16.8817 18.1352 16.9227C18.4071 17.0401 18.6179 17.2485 18.7244 17.5265C18.821 17.7775 18.8125 18.0563 18.6997 18.3011C18.5515 18.6254 18.2966 18.793 17.9739 18.9134C17.9383 19.1366 18.0024 19.2455 17.7623 19.3744C17.6588 19.4069 17.5592 19.4038 17.4719 19.3297C17.3499 19.227 17.3507 19.071 17.3383 18.925C17.0827 18.8378 16.4966 18.5227 16.6758 18.1783C16.7136 18.1034 16.7808 18.0478 16.8619 18.0254C17.2078 17.9296 17.275 18.4586 17.8171 18.3119C17.9484 18.2764 18.0588 18.1899 18.1252 18.0717C18.1715 17.9876 18.1955 17.8733 18.163 17.7821C18.0264 17.396 17.709 17.4632 17.4155 17.4107C17.2935 17.3883 17.1762 17.3458 17.0681 17.2848C16.197 16.8022 16.3808 15.5891 17.3267 15.345C17.3298 15.1057 17.3105 14.9064 17.5893 14.8369Z" fill="#1A1A1A"/>
</svg>
