<svg width="20" height="20" viewBox="0 0 20 20" fill="none" xmlns="http://www.w3.org/2000/svg">
<path d="M10 2.20801C13.7509 2.20801 16.792 5.24907 16.792 9C16.792 9.84345 16.4009 10.8836 15.7197 12.0254C15.0483 13.1507 14.1425 14.2961 13.2207 15.332C12.3012 16.3654 11.3794 17.2746 10.6865 17.9258C10.4185 18.1777 10.1848 18.3898 10 18.5557C9.81525 18.3898 9.58153 18.1777 9.31348 17.9258C8.62056 17.2746 7.69875 16.3654 6.7793 15.332C5.85752 14.2961 4.95166 13.1507 4.28027 12.0254C3.59909 10.8836 3.20801 9.84345 3.20801 9C3.20801 5.24907 6.24907 2.20801 10 2.20801Z" stroke="#A81315" stroke-width="1.41667"/>
<circle cx="10.0004" cy="8.605" r="3.23895" stroke="#A81315" stroke-width="1.41667"/>
</svg>
