<svg width="65" height="34" viewBox="0 0 65 34" fill="none" xmlns="http://www.w3.org/2000/svg">
<rect x="0.45" y="0.45" width="63.6681" height="32.5309" rx="2.55" stroke="#C5BFBF" stroke-width="0.9"/>
<path d="M9.97055 14.2601L8.08755 12.0831V14.2601H7.28955V9.39508H8.08755V11.6141L9.97755 9.39508H10.9786L8.86455 11.8311L11.0136 14.2601H9.97055Z" fill="black"/>
<path d="M12.5172 10.9631C12.6339 10.7671 12.7879 10.6154 12.9792 10.5081C13.1752 10.3961 13.4062 10.3401 13.6722 10.3401V11.1661H13.4692C13.1566 11.1661 12.9186 11.2454 12.7552 11.4041C12.5966 11.5627 12.5172 11.8381 12.5172 12.2301V14.2601H11.7192V10.4031H12.5172V10.9631Z" fill="black"/>
<path d="M14.1398 12.3141C14.1398 11.9267 14.2191 11.5837 14.3778 11.2851C14.5411 10.9864 14.7604 10.7554 15.0358 10.5921C15.3158 10.4241 15.6238 10.3401 15.9598 10.3401C16.2631 10.3401 16.5268 10.4007 16.7508 10.5221C16.9794 10.6387 17.1614 10.7857 17.2968 10.9631V10.4031H18.1018V14.2601H17.2968V13.6861C17.1614 13.8681 16.9771 14.0197 16.7438 14.1411C16.5104 14.2624 16.2444 14.3231 15.9458 14.3231C15.6144 14.3231 15.3111 14.2391 15.0358 14.0711C14.7604 13.8984 14.5411 13.6604 14.3778 13.3571C14.2191 13.0491 14.1398 12.7014 14.1398 12.3141ZM17.2968 12.3281C17.2968 12.0621 17.2408 11.8311 17.1288 11.6351C17.0214 11.4391 16.8791 11.2897 16.7018 11.1871C16.5244 11.0844 16.3331 11.0331 16.1278 11.0331C15.9224 11.0331 15.7311 11.0844 15.5538 11.1871C15.3764 11.2851 15.2318 11.4321 15.1198 11.6281C15.0124 11.8194 14.9588 12.0481 14.9588 12.3141C14.9588 12.5801 15.0124 12.8134 15.1198 13.0141C15.2318 13.2147 15.3764 13.3687 15.5538 13.4761C15.7358 13.5787 15.9271 13.6301 16.1278 13.6301C16.3331 13.6301 16.5244 13.5787 16.7018 13.4761C16.8791 13.3734 17.0214 13.2241 17.1288 13.0281C17.2408 12.8274 17.2968 12.5941 17.2968 12.3281Z" fill="black"/>
<path d="M21.0959 10.3401C21.3992 10.3401 21.6699 10.4031 21.9079 10.5291C22.1506 10.6551 22.3396 10.8417 22.4749 11.0891C22.6102 11.3364 22.6779 11.6351 22.6779 11.9851V14.2601H21.8869V12.1041C21.8869 11.7587 21.8006 11.4951 21.6279 11.3131C21.4552 11.1264 21.2196 11.0331 20.9209 11.0331C20.6222 11.0331 20.3842 11.1264 20.2069 11.3131C20.0342 11.4951 19.9479 11.7587 19.9479 12.1041V14.2601H19.1499V10.4031H19.9479V10.8441C20.0786 10.6854 20.2442 10.5617 20.4449 10.4731C20.6502 10.3844 20.8672 10.3401 21.0959 10.3401Z" fill="black"/>
<path d="M25.2218 12.3351L26.9998 14.2601H25.9218L24.4938 12.6011V14.2601H23.6958V9.08008H24.4938V12.0901L25.8938 10.4031H26.9998L25.2218 12.3351Z" fill="black"/>
<path d="M31.1068 12.2371C31.1068 12.3817 31.0974 12.5124 31.0788 12.6291H28.1318C28.1551 12.9371 28.2694 13.1844 28.4748 13.3711C28.6801 13.5577 28.9321 13.6511 29.2308 13.6511C29.6601 13.6511 29.9634 13.4714 30.1408 13.1121H31.0018C30.8851 13.4667 30.6728 13.7584 30.3648 13.9871C30.0614 14.2111 29.6834 14.3231 29.2308 14.3231C28.8621 14.3231 28.5308 14.2414 28.2368 14.0781C27.9474 13.9101 27.7188 13.6767 27.5508 13.3781C27.3874 13.0747 27.3058 12.7247 27.3058 12.3281C27.3058 11.9314 27.3851 11.5837 27.5438 11.2851C27.7071 10.9817 27.9334 10.7484 28.2228 10.5851C28.5168 10.4217 28.8528 10.3401 29.2308 10.3401C29.5948 10.3401 29.9191 10.4194 30.2038 10.5781C30.4884 10.7367 30.7101 10.9607 30.8688 11.2501C31.0274 11.5347 31.1068 11.8637 31.1068 12.2371ZM30.2738 11.9851C30.2691 11.6911 30.1641 11.4554 29.9588 11.2781C29.7534 11.1007 29.4991 11.0121 29.1958 11.0121C28.9204 11.0121 28.6848 11.1007 28.4888 11.2781C28.2928 11.4507 28.1761 11.6864 28.1388 11.9851H30.2738Z" fill="black"/>
<path d="M33.8381 10.3401C34.1414 10.3401 34.4121 10.4031 34.6501 10.5291C34.8928 10.6551 35.0818 10.8417 35.2171 11.0891C35.3524 11.3364 35.4201 11.6351 35.4201 11.9851V14.2601H34.6291V12.1041C34.6291 11.7587 34.5428 11.4951 34.3701 11.3131C34.1974 11.1264 33.9618 11.0331 33.6631 11.0331C33.3644 11.0331 33.1264 11.1264 32.9491 11.3131C32.7764 11.4951 32.6901 11.7587 32.6901 12.1041V14.2601H31.8921V10.4031H32.6901V10.8441C32.8208 10.6854 32.9864 10.5617 33.1871 10.4731C33.3924 10.3844 33.6094 10.3401 33.8381 10.3401Z" fill="black"/>
<path d="M37.964 12.3351L39.742 14.2601H38.664L37.236 12.6011V14.2601H36.438V9.08008H37.236V12.0901L38.636 10.4031H39.742L37.964 12.3351Z" fill="black"/>
<path d="M40.048 12.3141C40.048 11.9267 40.1273 11.5837 40.286 11.2851C40.4493 10.9864 40.6686 10.7554 40.944 10.5921C41.224 10.4241 41.532 10.3401 41.868 10.3401C42.1713 10.3401 42.435 10.4007 42.659 10.5221C42.8876 10.6387 43.0696 10.7857 43.205 10.9631V10.4031H44.01V14.2601H43.205V13.6861C43.0696 13.8681 42.8853 14.0197 42.652 14.1411C42.4186 14.2624 42.1526 14.3231 41.854 14.3231C41.5226 14.3231 41.2193 14.2391 40.944 14.0711C40.6686 13.8984 40.4493 13.6604 40.286 13.3571C40.1273 13.0491 40.048 12.7014 40.048 12.3141ZM43.205 12.3281C43.205 12.0621 43.149 11.8311 43.037 11.6351C42.9296 11.4391 42.7873 11.2897 42.61 11.1871C42.4326 11.0844 42.2413 11.0331 42.036 11.0331C41.8306 11.0331 41.6393 11.0844 41.462 11.1871C41.2846 11.2851 41.14 11.4321 41.028 11.6281C40.9206 11.8194 40.867 12.0481 40.867 12.3141C40.867 12.5801 40.9206 12.8134 41.028 13.0141C41.14 13.2147 41.2846 13.3687 41.462 13.4761C41.644 13.5787 41.8353 13.6301 42.036 13.6301C42.2413 13.6301 42.4326 13.5787 42.61 13.4761C42.7873 13.3734 42.9296 13.2241 43.037 13.0281C43.149 12.8274 43.205 12.5941 43.205 12.3281Z" fill="black"/>
<path d="M46.4581 14.3231C46.1548 14.3231 45.8818 14.2694 45.6391 14.1621C45.4011 14.0501 45.2121 13.9007 45.0721 13.7141C44.9321 13.5227 44.8574 13.3104 44.8481 13.0771H45.6741C45.6881 13.2404 45.7651 13.3781 45.9051 13.4901C46.0498 13.5974 46.2294 13.6511 46.4441 13.6511C46.6681 13.6511 46.8408 13.6091 46.9621 13.5251C47.0881 13.4364 47.1511 13.3244 47.1511 13.1891C47.1511 13.0444 47.0811 12.9371 46.9411 12.8671C46.8058 12.7971 46.5888 12.7201 46.2901 12.6361C46.0008 12.5567 45.7651 12.4797 45.5831 12.4051C45.4011 12.3304 45.2424 12.2161 45.1071 12.0621C44.9764 11.9081 44.9111 11.7051 44.9111 11.4531C44.9111 11.2477 44.9718 11.0611 45.0931 10.8931C45.2144 10.7204 45.3871 10.5851 45.6111 10.4871C45.8398 10.3891 46.1011 10.3401 46.3951 10.3401C46.8338 10.3401 47.1861 10.4521 47.4521 10.6761C47.7228 10.8954 47.8674 11.1964 47.8861 11.5791H47.0881C47.0741 11.4064 47.0041 11.2687 46.8781 11.1661C46.7521 11.0634 46.5818 11.0121 46.3671 11.0121C46.1571 11.0121 45.9961 11.0517 45.8841 11.1311C45.7721 11.2104 45.7161 11.3154 45.7161 11.4461C45.7161 11.5487 45.7534 11.6351 45.8281 11.7051C45.9028 11.7751 45.9938 11.8311 46.1011 11.8731C46.2084 11.9104 46.3671 11.9594 46.5771 12.0201C46.8571 12.0947 47.0858 12.1717 47.2631 12.2511C47.4451 12.3257 47.6014 12.4377 47.7321 12.5871C47.8628 12.7364 47.9304 12.9347 47.9351 13.1821C47.9351 13.4014 47.8744 13.5974 47.7531 13.7701C47.6318 13.9427 47.4591 14.0781 47.2351 14.1761C47.0158 14.2741 46.7568 14.3231 46.4581 14.3231Z" fill="black"/>
<path d="M50.1974 14.3231C49.894 14.3231 49.621 14.2694 49.3784 14.1621C49.1404 14.0501 48.9514 13.9007 48.8114 13.7141C48.6714 13.5227 48.5967 13.3104 48.5874 13.0771H49.4134C49.4274 13.2404 49.5044 13.3781 49.6444 13.4901C49.789 13.5974 49.9687 13.6511 50.1834 13.6511C50.4074 13.6511 50.58 13.6091 50.7014 13.5251C50.8274 13.4364 50.8904 13.3244 50.8904 13.1891C50.8904 13.0444 50.8204 12.9371 50.6804 12.8671C50.545 12.7971 50.328 12.7201 50.0294 12.6361C49.74 12.5567 49.5044 12.4797 49.3224 12.4051C49.1404 12.3304 48.9817 12.2161 48.8464 12.0621C48.7157 11.9081 48.6504 11.7051 48.6504 11.4531C48.6504 11.2477 48.711 11.0611 48.8324 10.8931C48.9537 10.7204 49.1264 10.5851 49.3504 10.4871C49.579 10.3891 49.8404 10.3401 50.1344 10.3401C50.573 10.3401 50.9254 10.4521 51.1914 10.6761C51.462 10.8954 51.6067 11.1964 51.6254 11.5791H50.8274C50.8134 11.4064 50.7434 11.2687 50.6174 11.1661C50.4914 11.0634 50.321 11.0121 50.1064 11.0121C49.8964 11.0121 49.7354 11.0517 49.6234 11.1311C49.5114 11.2104 49.4554 11.3154 49.4554 11.4461C49.4554 11.5487 49.4927 11.6351 49.5674 11.7051C49.642 11.7751 49.733 11.8311 49.8404 11.8731C49.9477 11.9104 50.1064 11.9594 50.3164 12.0201C50.5964 12.0947 50.825 12.1717 51.0024 12.2511C51.1844 12.3257 51.3407 12.4377 51.4714 12.5871C51.602 12.7364 51.6697 12.9347 51.6744 13.1821C51.6744 13.4014 51.6137 13.5974 51.4924 13.7701C51.371 13.9427 51.1984 14.0781 50.9744 14.1761C50.755 14.2741 50.496 14.3231 50.1974 14.3231Z" fill="black"/>
<path d="M56.0716 12.2371C56.0716 12.3817 56.0623 12.5124 56.0436 12.6291H53.0966C53.12 12.9371 53.2343 13.1844 53.4396 13.3711C53.645 13.5577 53.897 13.6511 54.1956 13.6511C54.625 13.6511 54.9283 13.4714 55.1056 13.1121H55.9666C55.85 13.4667 55.6376 13.7584 55.3296 13.9871C55.0263 14.2111 54.6483 14.3231 54.1956 14.3231C53.827 14.3231 53.4956 14.2414 53.2016 14.0781C52.9123 13.9101 52.6836 13.6767 52.5156 13.3781C52.3523 13.0747 52.2706 12.7247 52.2706 12.3281C52.2706 11.9314 52.35 11.5837 52.5086 11.2851C52.672 10.9817 52.8983 10.7484 53.1876 10.5851C53.4816 10.4217 53.8176 10.3401 54.1956 10.3401C54.5596 10.3401 54.884 10.4194 55.1686 10.5781C55.4533 10.7367 55.675 10.9607 55.8336 11.2501C55.9923 11.5347 56.0716 11.8637 56.0716 12.2371ZM55.2386 11.9851C55.234 11.6911 55.129 11.4554 54.9236 11.2781C54.7183 11.1007 54.464 11.0121 54.1606 11.0121C53.8853 11.0121 53.6496 11.1007 53.4536 11.2781C53.2576 11.4507 53.141 11.6864 53.1036 11.9851H55.2386Z" fill="black"/>
<path d="M11.7116 24.2601L11.1096 23.6581C10.8763 23.8914 10.622 24.0664 10.3466 24.1831C10.0713 24.2951 9.7633 24.3511 9.42264 24.3511C9.0773 24.3511 8.77164 24.2904 8.50564 24.1691C8.23964 24.0477 8.0343 23.8751 7.88964 23.6511C7.74497 23.4224 7.67264 23.1587 7.67264 22.8601C7.67264 22.5241 7.7683 22.2254 7.95964 21.9641C8.15097 21.6981 8.43564 21.4881 8.81364 21.3341C8.6783 21.1707 8.58264 21.0191 8.52664 20.8791C8.47064 20.7344 8.44264 20.5757 8.44264 20.4031C8.44264 20.1884 8.4963 19.9971 8.60364 19.8291C8.71564 19.6611 8.8743 19.5281 9.07964 19.4301C9.28497 19.3321 9.52297 19.2831 9.79364 19.2831C10.069 19.2831 10.3023 19.3367 10.4936 19.4441C10.6896 19.5467 10.8343 19.6891 10.9276 19.8711C11.0256 20.0531 11.0653 20.2561 11.0466 20.4801H10.2486C10.2533 20.3074 10.2113 20.1744 10.1226 20.0811C10.034 19.9831 9.91264 19.9341 9.75864 19.9341C9.60464 19.9341 9.47864 19.9807 9.38064 20.0741C9.2873 20.1627 9.24064 20.2724 9.24064 20.4031C9.24064 20.5291 9.27564 20.6551 9.34564 20.7811C9.4203 20.9024 9.54864 21.0611 9.73064 21.2571L11.0186 22.5381L11.5156 21.7191H12.3766L11.7466 22.7971L11.5716 23.0841L12.7546 24.2601H11.7116ZM9.42264 23.6721C9.8613 23.6721 10.2486 23.4924 10.5846 23.1331L9.29664 21.8381C8.74597 22.0574 8.47064 22.3887 8.47064 22.8321C8.47064 23.0701 8.5593 23.2707 8.73664 23.4341C8.91397 23.5927 9.14264 23.6721 9.42264 23.6721Z" fill="black"/>
<path d="M16.6992 24.3091C16.3725 24.3091 16.0785 24.2531 15.8172 24.1411C15.5559 24.0244 15.3505 23.8611 15.2012 23.6511C15.0519 23.4411 14.9772 23.1961 14.9772 22.9161H15.8312C15.8499 23.1261 15.9315 23.2987 16.0762 23.4341C16.2255 23.5694 16.4332 23.6371 16.6992 23.6371C16.9745 23.6371 17.1892 23.5717 17.3432 23.4411C17.4972 23.3057 17.5742 23.1331 17.5742 22.9231C17.5742 22.7597 17.5252 22.6267 17.4272 22.5241C17.3339 22.4214 17.2149 22.3421 17.0702 22.2861C16.9302 22.2301 16.7342 22.1694 16.4822 22.1041C16.1649 22.0201 15.9059 21.9361 15.7052 21.8521C15.5092 21.7634 15.3412 21.6281 15.2012 21.4461C15.0612 21.2641 14.9912 21.0214 14.9912 20.7181C14.9912 20.4381 15.0612 20.1931 15.2012 19.9831C15.3412 19.7731 15.5372 19.6121 15.7892 19.5001C16.0412 19.3881 16.3329 19.3321 16.6642 19.3321C17.1355 19.3321 17.5205 19.4511 17.8192 19.6891C18.1225 19.9224 18.2905 20.2444 18.3232 20.6551H17.4412C17.4272 20.4777 17.3432 20.3261 17.1892 20.2001C17.0352 20.0741 16.8322 20.0111 16.5802 20.0111C16.3515 20.0111 16.1649 20.0694 16.0202 20.1861C15.8755 20.3027 15.8032 20.4707 15.8032 20.6901C15.8032 20.8394 15.8475 20.9631 15.9362 21.0611C16.0295 21.1544 16.1462 21.2291 16.2862 21.2851C16.4262 21.3411 16.6175 21.4017 16.8602 21.4671C17.1822 21.5557 17.4435 21.6444 17.6442 21.7331C17.8495 21.8217 18.0222 21.9594 18.1622 22.1461C18.3069 22.3281 18.3792 22.5731 18.3792 22.8811C18.3792 23.1284 18.3115 23.3617 18.1762 23.5811C18.0455 23.8004 17.8519 23.9777 17.5952 24.1131C17.3432 24.2437 17.0445 24.3091 16.6992 24.3091Z" fill="black"/>
<path d="M22.8558 22.2371C22.8558 22.3817 22.8465 22.5124 22.8278 22.6291H19.8808C19.9041 22.9371 20.0185 23.1844 20.2238 23.3711C20.4291 23.5577 20.6811 23.6511 20.9798 23.6511C21.4091 23.6511 21.7125 23.4714 21.8898 23.1121H22.7508C22.6341 23.4667 22.4218 23.7584 22.1138 23.9871C21.8105 24.2111 21.4325 24.3231 20.9798 24.3231C20.6111 24.3231 20.2798 24.2414 19.9858 24.0781C19.6965 23.9101 19.4678 23.6767 19.2998 23.3781C19.1365 23.0747 19.0548 22.7247 19.0548 22.3281C19.0548 21.9314 19.1341 21.5837 19.2928 21.2851C19.4561 20.9817 19.6825 20.7484 19.9718 20.5851C20.2658 20.4217 20.6018 20.3401 20.9798 20.3401C21.3438 20.3401 21.6681 20.4194 21.9528 20.5781C22.2375 20.7367 22.4591 20.9607 22.6178 21.2501C22.7765 21.5347 22.8558 21.8637 22.8558 22.2371ZM22.0228 21.9851C22.0181 21.6911 21.9131 21.4554 21.7078 21.2781C21.5025 21.1007 21.2481 21.0121 20.9448 21.0121C20.6695 21.0121 20.4338 21.1007 20.2378 21.2781C20.0418 21.4507 19.9251 21.6864 19.8878 21.9851H22.0228Z" fill="black"/>
<path d="M24.4391 19.0801V24.2601H23.6411V19.0801H24.4391Z" fill="black"/>
<path d="M26.2848 20.9771C26.4202 20.7904 26.6045 20.6387 26.8378 20.5221C27.0758 20.4007 27.3395 20.3401 27.6288 20.3401C27.9695 20.3401 28.2775 20.4217 28.5528 20.5851C28.8281 20.7484 29.0452 20.9817 29.2038 21.2851C29.3625 21.5837 29.4418 21.9267 29.4418 22.3141C29.4418 22.7014 29.3625 23.0491 29.2038 23.3571C29.0452 23.6604 28.8258 23.8984 28.5458 24.0711C28.2705 24.2391 27.9648 24.3231 27.6288 24.3231C27.3302 24.3231 27.0641 24.2647 26.8308 24.1481C26.6021 24.0314 26.4202 23.8821 26.2848 23.7001V24.2601H25.4868V19.0801H26.2848V20.9771ZM28.6298 22.3141C28.6298 22.0481 28.5738 21.8194 28.4618 21.6281C28.3545 21.4321 28.2098 21.2851 28.0278 21.1871C27.8505 21.0844 27.6592 21.0331 27.4538 21.0331C27.2532 21.0331 27.0618 21.0844 26.8798 21.1871C26.7025 21.2897 26.5578 21.4391 26.4458 21.6351C26.3385 21.8311 26.2848 22.0621 26.2848 22.3281C26.2848 22.5941 26.3385 22.8274 26.4458 23.0281C26.5578 23.2241 26.7025 23.3734 26.8798 23.4761C27.0618 23.5787 27.2532 23.6301 27.4538 23.6301C27.6592 23.6301 27.8505 23.5787 28.0278 23.4761C28.2098 23.3687 28.3545 23.2147 28.4618 23.0141C28.5738 22.8134 28.6298 22.5801 28.6298 22.3141Z" fill="black"/>
<path d="M31.631 24.3231C31.3276 24.3231 31.0546 24.2694 30.812 24.1621C30.574 24.0501 30.385 23.9007 30.245 23.7141C30.105 23.5227 30.0303 23.3104 30.021 23.0771H30.847C30.861 23.2404 30.938 23.3781 31.078 23.4901C31.2226 23.5974 31.4023 23.6511 31.617 23.6511C31.841 23.6511 32.0136 23.6091 32.135 23.5251C32.261 23.4364 32.324 23.3244 32.324 23.1891C32.324 23.0444 32.254 22.9371 32.114 22.8671C31.9786 22.7971 31.7616 22.7201 31.463 22.6361C31.1736 22.5567 30.938 22.4797 30.756 22.4051C30.574 22.3304 30.4153 22.2161 30.28 22.0621C30.1493 21.9081 30.084 21.7051 30.084 21.4531C30.084 21.2477 30.1446 21.0611 30.266 20.8931C30.3873 20.7204 30.56 20.5851 30.784 20.4871C31.0126 20.3891 31.274 20.3401 31.568 20.3401C32.0066 20.3401 32.359 20.4521 32.625 20.6761C32.8956 20.8954 33.0403 21.1964 33.059 21.5791H32.261C32.247 21.4064 32.177 21.2687 32.051 21.1661C31.925 21.0634 31.7546 21.0121 31.54 21.0121C31.33 21.0121 31.169 21.0517 31.057 21.1311C30.945 21.2104 30.889 21.3154 30.889 21.4461C30.889 21.5487 30.9263 21.6351 31.001 21.7051C31.0756 21.7751 31.1666 21.8311 31.274 21.8731C31.3813 21.9104 31.54 21.9594 31.75 22.0201C32.03 22.0947 32.2586 22.1717 32.436 22.2511C32.618 22.3257 32.7743 22.4377 32.905 22.5871C33.0356 22.7364 33.1033 22.9347 33.108 23.1821C33.108 23.4014 33.0473 23.5974 32.926 23.7701C32.8046 23.9427 32.632 24.0781 32.408 24.1761C32.1886 24.2741 31.9296 24.3231 31.631 24.3231Z" fill="black"/>
<path d="M34.9012 21.0541V23.1891C34.9012 23.3337 34.9339 23.4387 34.9992 23.5041C35.0692 23.5647 35.1859 23.5951 35.3492 23.5951H35.8392V24.2601H35.2092C34.8499 24.2601 34.5745 24.1761 34.3832 24.0081C34.1919 23.8401 34.0962 23.5671 34.0962 23.1891V21.0541H33.6412V20.4031H34.0962V19.4441H34.9012V20.4031H35.8392V21.0541H34.9012Z" fill="black"/>
<path d="M37.2817 23.6091H39.0317V24.2601H36.3577V23.6091L38.1147 21.0541H36.3577V20.4031H39.0317V21.0541L37.2817 23.6091Z" fill="black"/>
<path d="M39.6036 22.3141C39.6036 21.9267 39.683 21.5837 39.8416 21.2851C40.005 20.9864 40.2243 20.7554 40.4996 20.5921C40.7796 20.4241 41.0876 20.3401 41.4236 20.3401C41.727 20.3401 41.9906 20.4007 42.2146 20.5221C42.4433 20.6387 42.6253 20.7857 42.7606 20.9631V20.4031H43.5656V24.2601H42.7606V23.6861C42.6253 23.8681 42.441 24.0197 42.2076 24.1411C41.9743 24.2624 41.7083 24.3231 41.4096 24.3231C41.0783 24.3231 40.775 24.2391 40.4996 24.0711C40.2243 23.8984 40.005 23.6604 39.8416 23.3571C39.683 23.0491 39.6036 22.7014 39.6036 22.3141ZM42.7606 22.3281C42.7606 22.0621 42.7046 21.8311 42.5926 21.6351C42.4853 21.4391 42.343 21.2897 42.1656 21.1871C41.9883 21.0844 41.797 21.0331 41.5916 21.0331C41.3863 21.0331 41.195 21.0844 41.0176 21.1871C40.8403 21.2851 40.6956 21.4321 40.5836 21.6281C40.4763 21.8194 40.4226 22.0481 40.4226 22.3141C40.4226 22.5801 40.4763 22.8134 40.5836 23.0141C40.6956 23.2147 40.8403 23.3687 41.0176 23.4761C41.1996 23.5787 41.391 23.6301 41.5916 23.6301C41.797 23.6301 41.9883 23.5787 42.1656 23.4761C42.343 23.3734 42.4853 23.2241 42.5926 23.0281C42.7046 22.8274 42.7606 22.5941 42.7606 22.3281Z" fill="black"/>
<path d="M46.6088 20.3401C46.9028 20.3401 47.1641 20.4031 47.3928 20.5291C47.6261 20.6551 47.8081 20.8417 47.9388 21.0891C48.0741 21.3364 48.1418 21.6351 48.1418 21.9851V24.2601H47.3508V22.1041C47.3508 21.7587 47.2644 21.4951 47.0918 21.3131C46.9191 21.1264 46.6834 21.0331 46.3848 21.0331C46.0861 21.0331 45.8481 21.1264 45.6708 21.3131C45.4981 21.4951 45.4118 21.7587 45.4118 22.1041V24.2601H44.6138V19.0801H45.4118V20.8511C45.5471 20.6877 45.7174 20.5617 45.9228 20.4731C46.1328 20.3844 46.3614 20.3401 46.6088 20.3401Z" fill="black"/>
<path d="M49.9577 19.0801V24.2601H49.1597V19.0801H49.9577Z" fill="black"/>
<path d="M54.5404 22.2371C54.5404 22.3817 54.531 22.5124 54.5124 22.6291H51.5654C51.5887 22.9371 51.703 23.1844 51.9084 23.3711C52.1137 23.5577 52.3657 23.6511 52.6644 23.6511C53.0937 23.6511 53.397 23.4714 53.5744 23.1121H54.4354C54.3187 23.4667 54.1064 23.7584 53.7984 23.9871C53.495 24.2111 53.117 24.3231 52.6644 24.3231C52.2957 24.3231 51.9644 24.2414 51.6704 24.0781C51.381 23.9101 51.1524 23.6767 50.9844 23.3781C50.821 23.0747 50.7394 22.7247 50.7394 22.3281C50.7394 21.9314 50.8187 21.5837 50.9774 21.2851C51.1407 20.9817 51.367 20.7484 51.6564 20.5851C51.9504 20.4217 52.2864 20.3401 52.6644 20.3401C53.0284 20.3401 53.3527 20.4194 53.6374 20.5781C53.922 20.7367 54.1437 20.9607 54.3024 21.2501C54.461 21.5347 54.5404 21.8637 54.5404 22.2371ZM53.7074 21.9851C53.7027 21.6911 53.5977 21.4554 53.3924 21.2781C53.187 21.1007 52.9327 21.0121 52.6294 21.0121C52.354 21.0121 52.1184 21.1007 51.9224 21.2781C51.7264 21.4507 51.6097 21.6864 51.5724 21.9851H53.7074Z" fill="black"/>
<path d="M56.1237 20.9631C56.2403 20.7671 56.3943 20.6154 56.5857 20.5081C56.7817 20.3961 57.0127 20.3401 57.2787 20.3401V21.1661H57.0757C56.763 21.1661 56.525 21.2454 56.3617 21.4041C56.203 21.5627 56.1237 21.8381 56.1237 22.2301V24.2601H55.3257V20.4031H56.1237V20.9631Z" fill="black"/>
</svg>
