<svg width="65" height="34" viewBox="0 0 65 34" fill="none" xmlns="http://www.w3.org/2000/svg">
<rect x="0.45" y="0.45" width="63.6681" height="32.5309" rx="2.55" stroke="#C5BFBF" stroke-width="0.9"/>
<path d="M36.6009 8.93555H27.9412V24.4936H36.6009V8.93555Z" fill="#FF5A00"/>
<path d="M28.5178 16.7153C28.5178 13.5543 30.0038 10.7489 32.2841 8.93623C30.6059 7.61677 28.489 6.81934 26.18 6.81934C20.71 6.81934 16.2841 11.2453 16.2841 16.7153C16.2841 22.1852 20.71 26.6112 26.18 26.6112C28.489 26.6112 30.6059 25.8137 32.2841 24.4943C30.0006 22.7072 28.5178 19.8762 28.5178 16.7153Z" fill="#EB001B"/>
<path d="M48.2841 16.7153C48.2841 22.1852 43.8581 26.6112 38.3881 26.6112C36.0791 26.6112 33.9622 25.8137 32.2841 24.4943C34.5931 22.6784 36.0503 19.8762 36.0503 16.7153C36.0503 13.5543 34.5643 10.7489 32.2841 8.93623C33.959 7.61677 36.0759 6.81934 38.3849 6.81934C43.8581 6.81934 48.2841 11.2741 48.2841 16.7153Z" fill="#F79E1B"/>
</svg>
