<svg width="65" height="34" viewBox="0 0 65 34" fill="none" xmlns="http://www.w3.org/2000/svg">
<rect x="0.45" y="0.45" width="63.6681" height="32.5309" rx="2.55" stroke="#C5BFBF" stroke-width="0.9"/>
<path d="M42.9163 13.3211C42.9266 13.3207 42.9369 13.3204 42.9472 13.3203L44.6647 13.3194C45.6175 13.3189 46.9452 13.211 47.6701 13.9397C48.5775 14.8518 48.0862 16.8389 47.2638 17.6601C46.3987 18.524 45.2107 18.4596 44.085 18.4552C43.9051 18.4599 43.8392 18.5364 43.7287 18.665C43.5995 19.3062 43.5503 20.1196 43.3905 20.7256C43.3684 20.809 43.3356 20.9256 43.2552 20.9701C43.116 21.0472 41.7954 21.0468 41.6119 20.9918C41.5609 20.9766 41.5166 20.9531 41.4908 20.9047C41.4891 20.9017 41.4877 20.8986 41.4862 20.8956C41.4788 20.8821 41.472 20.8695 41.4676 20.8549C41.4303 20.7375 42.4314 14.4456 42.5436 13.8335C42.5639 13.7226 42.5826 13.5829 42.6406 13.486C42.6994 13.3882 42.8119 13.3478 42.9163 13.3211ZM43.9967 16.9128C44.4724 16.912 44.962 16.9387 45.4166 16.7949C45.6011 16.7029 45.7371 16.6082 45.8488 16.4301C46.138 15.9698 46.2399 15.1271 45.5668 14.9451C45.2391 14.8565 44.8446 14.8541 44.506 14.8686C44.4449 14.8845 44.355 14.9019 44.3356 14.9692C44.1769 15.5214 44.0891 16.3508 43.9967 16.9128Z" fill="#169BD6"/>
<path d="M23.2076 13.3242L24.9944 13.3224C25.9264 13.3221 27.2096 13.2259 27.9209 13.9397C28.8328 14.8549 28.3409 16.8361 27.5164 17.658C26.6444 18.5273 25.4432 18.4565 24.3105 18.4546C24.2851 18.4586 24.2599 18.4637 24.235 18.47C24.1369 18.4949 24.0625 18.5574 24.0141 18.6455C23.7721 19.0865 23.8396 20.426 23.5926 20.8298C23.5359 20.9225 23.4529 20.9736 23.3487 20.9986C23.1856 21.0378 21.9154 21.0426 21.809 20.9715C21.764 20.9414 21.7361 20.8856 21.7278 20.8333C21.6887 20.5872 22.175 17.8377 22.2594 17.3037C22.4426 16.145 22.5942 14.9731 22.8069 13.8202C22.827 13.7111 22.8448 13.5733 22.9094 13.4816C22.9811 13.3797 23.0901 13.3439 23.2076 13.3242ZM24.2479 16.9125C24.7039 16.9126 25.2193 16.9386 25.6539 16.8039C25.8362 16.723 25.9524 16.6591 26.071 16.4925C26.379 16.0598 26.5249 15.1652 25.8683 14.9601C25.5254 14.8531 25.117 14.8561 24.7573 14.8667C24.6751 14.8854 24.6478 14.8889 24.589 14.9536C24.4953 15.1574 24.3103 16.5738 24.2479 16.9125Z" fill="#253B80"/>
<path d="M50.4587 15.7709C50.6901 15.7382 51.1662 15.7662 51.397 15.8166C51.8629 15.9182 52.1216 16.0384 52.388 16.4353C52.4708 15.8738 52.5404 15.8424 53.1094 15.8799C53.3736 15.8974 53.6682 15.8861 53.9289 15.8834C54.1146 15.8815 54.2698 15.9774 54.2269 16.1733C54.1918 16.4838 54.1394 16.7994 54.0906 17.1082L53.8372 18.7183L53.6314 20.0197C53.5645 20.4421 53.5777 21.1098 53.0178 21.0161C52.6492 20.9545 51.658 21.2554 51.7202 20.6765C51.7296 20.5681 51.7465 20.5034 51.7732 20.3975C51.3451 20.7923 50.9378 21.0213 50.3536 21.109C47.7499 21.4998 47.0545 18.7145 48.3978 16.93C48.9321 16.2201 49.5797 15.8954 50.4587 15.7709ZM50.9525 19.6973C52.4047 19.4301 52.7906 17.0638 50.8185 17.1867C49.0811 17.5847 49.1129 20.0048 50.9525 19.6973Z" fill="#169BD6"/>
<path d="M30.7414 15.7704C31.4755 15.7318 32.1956 15.7897 32.6473 16.4428C32.6804 16.1837 32.6992 15.8647 33.0546 15.8664C33.2778 15.8782 33.5035 15.879 33.7262 15.89C33.9612 15.9017 34.5285 15.7711 34.4839 16.1638C34.4217 16.7123 34.3183 17.2583 34.2332 17.8028L33.9505 19.6144C33.8995 19.9387 33.8537 20.2604 33.7907 20.5876C33.6985 21.0673 33.4657 21.0144 33.0487 21.0225C32.7818 21.0178 32.513 21.0269 32.2461 21.0149C31.9602 21.0022 31.9484 20.8545 31.9807 20.6247L32.0187 20.4042C31.5881 20.8032 31.139 21.0373 30.5486 21.1152C27.963 21.4564 27.3254 18.6348 28.6851 16.902C29.2171 16.224 29.8756 15.8729 30.7414 15.7704ZM31.2255 19.6987C32.747 19.3739 32.9732 17.0247 31.0715 17.1875C29.3876 17.5227 29.3152 20.0189 31.2255 19.6987Z" fill="#253B80"/>
<path d="M35.305 15.8904C35.5846 15.8768 36.6342 15.8477 36.8883 15.9414C37.0488 16.0004 37.2603 16.8279 37.3316 17.0673C37.4968 17.6327 37.6664 18.1967 37.8401 18.7595C38.054 18.4054 39.5927 16.0772 39.7811 15.9511C39.8449 15.9082 39.9649 15.8925 40.0404 15.8857C40.207 15.8708 41.2225 15.8669 41.3561 15.8987C41.4416 15.9191 41.498 15.9537 41.5445 16.0308C41.5644 16.2714 40.9096 17.1269 40.7408 17.3704L39.3371 19.3974C39.1668 19.6208 38.9529 19.9505 38.7897 20.1862L37.6835 21.7869C37.4865 22.0717 37.2946 22.4114 37.0608 22.6636C36.9964 22.7333 36.9278 22.7734 36.8354 22.7954C36.6685 22.8351 35.4085 22.8379 35.2996 22.7668C35.2548 22.7373 35.2205 22.6745 35.2107 22.6227C35.2009 22.5709 35.2144 22.5222 35.2372 22.476C35.3614 22.2258 35.5579 21.9905 35.7197 21.7631L36.6234 20.4971C36.4504 20.066 35.1247 16.1645 35.1458 16.0634C35.1634 15.9783 35.2377 15.9345 35.305 15.8904Z" fill="#253B80"/>
<path d="M55.7355 13.3211C56.0112 13.3191 57.15 13.2475 57.283 13.4428C57.296 13.8244 57.2053 14.258 57.1448 14.642L56.8985 16.1963L56.4442 19.0816C56.3619 19.6046 56.282 20.1307 56.1913 20.6523C56.159 20.8384 56.1134 20.8919 55.957 20.9974C55.7002 21.035 54.6169 21.0789 54.4529 20.9168C54.4113 20.6218 54.6526 19.2832 54.7097 18.919L55.2398 15.5509L55.4559 14.1767C55.4905 13.9539 55.5231 13.7089 55.5726 13.4887C55.5919 13.4025 55.662 13.3599 55.7355 13.3211Z" fill="#169BD6"/>
<path d="M9.29139 10.5967H13.7164C13.9427 10.64 14.1861 10.6532 14.4203 10.6942C15.1867 10.8283 15.8413 11.1051 16.2937 11.7612C16.6482 12.2754 16.7468 12.9814 16.6319 13.587C16.6248 13.6242 16.6162 13.6611 16.606 13.6976L16.6399 13.7131C17.0709 13.9365 17.3932 14.3155 17.5316 14.7813C17.7942 15.665 17.5427 16.8552 17.1291 17.652C16.7198 18.4406 16.082 18.9499 15.2403 19.211C14.8654 19.3238 14.478 19.3895 14.0869 19.4066C13.0743 19.456 13.0152 19.2849 12.8499 20.3622L12.6501 21.669C12.6177 21.8807 12.5395 22.7253 12.2724 22.7619C11.9666 22.8038 9.96144 22.9498 9.80377 22.6455C9.75145 22.5445 9.9 21.687 9.95061 21.4647C9.1923 21.3993 8.34361 21.5159 7.57805 21.4475C7.41604 21.433 7.3756 21.3602 7.28406 21.241V21.0142C7.3346 20.8353 7.3989 20.3533 7.43081 20.1502L7.69443 18.4708L8.56139 12.9782C8.65984 12.3488 8.76284 11.5121 8.9225 10.8923C8.95791 10.7548 9.16111 10.6482 9.29139 10.5967Z" fill="#253B80"/>
<path d="M10.6223 17.6013C10.8921 17.3119 11.4614 17.3537 11.8406 17.3754C13.884 17.4922 15.7768 16.7188 16.3949 14.6257C16.4383 14.4786 16.5915 13.7894 16.6398 13.7104C17.0707 13.9339 17.393 14.3129 17.5315 14.7787C17.794 15.6624 17.5426 16.8525 17.1289 17.6494C16.7196 18.438 16.0818 18.9473 15.2401 19.2084C14.8653 19.3212 14.4778 19.3869 14.0867 19.404C13.0741 19.4533 13.015 19.2823 12.8498 20.3596L12.6499 21.6664C12.6175 21.8781 12.5394 22.7227 12.2723 22.7593C11.9664 22.8012 9.96127 22.9472 9.8036 22.6429C9.75128 22.5419 9.89983 21.6844 9.95044 21.4621C10.1318 20.4942 10.2524 19.5066 10.4182 18.5353C10.4664 18.2527 10.4976 17.8548 10.6223 17.6013Z" fill="#169BD6"/>
<path d="M10.6223 17.6026C10.6166 17.5936 10.6162 17.5937 10.6121 17.5849C10.5919 17.5408 10.5895 17.5061 10.5942 17.4584C10.6624 16.7688 10.8148 16.0679 10.9214 15.3817C10.992 14.9273 11.0806 14.0059 11.2181 13.6136C11.257 13.5027 11.338 13.419 11.444 13.3694C11.7223 13.2389 15.1245 13.3121 15.6448 13.3908C15.9 13.4294 16.1809 13.5092 16.4211 13.6022C16.4843 13.6267 16.5378 13.6728 16.5999 13.6943C16.6018 13.695 16.6039 13.6956 16.6059 13.6963L16.6398 13.7118C16.5915 13.7907 16.4383 14.4799 16.3949 14.627C15.7768 16.7201 13.8841 17.4935 11.8407 17.3767C11.4615 17.355 10.8921 17.3132 10.6223 17.6026Z" fill="#222D66"/>
</svg>
