<svg width="24" height="24" viewBox="0 0 24 24" fill="none" xmlns="http://www.w3.org/2000/svg">
<path d="M12 2.6496C16.5011 2.6496 20.1504 6.29887 20.1504 10.8C20.1504 11.812 19.6815 13.0599 18.8643 14.4299C18.0586 15.7803 16.9714 17.1554 15.8652 18.3986C14.7619 19.6386 13.6557 20.7295 12.8242 21.5109C12.5025 21.8133 12.2218 22.0677 12 22.2668C11.7782 22.0677 11.4975 21.8133 11.1758 21.5109C10.3443 20.7295 9.23811 19.6386 8.13477 18.3986C7.0286 17.1554 5.9414 15.7803 5.13574 14.4299C4.31848 13.0599 3.84961 11.812 3.84961 10.8C3.84961 6.29887 7.49888 2.6496 12 2.6496Z" stroke="#1A1A1A" stroke-width="1.7"/>
<circle cx="12.0004" cy="10.3262" r="3.88674" stroke="#1A1A1A" stroke-width="1.7"/>
</svg>
