<svg width="24" height="24" viewBox="0 0 24 24" fill="none" xmlns="http://www.w3.org/2000/svg">
<path d="M11.1946 0.311035L7.81197 0.489143L7.86649 1.23429L7.88612 1.2292C8.17182 1.16814 8.44298 1.13615 8.69451 1.12815C9.4542 1.10489 10.0699 1.29826 10.5781 1.57233C10.77 1.67702 10.9474 1.79042 11.1204 1.90528L11.1946 0.311035ZM8.83773 2.00633C8.80283 2.00633 8.76358 2.00633 8.72941 2.01142C8.53676 2.02015 8.32957 2.04777 8.0984 2.09502C6.73242 2.56392 5.82516 3.12587 5.31264 3.67764C4.79504 4.22869 4.662 4.74193 4.76014 5.25517C4.9477 6.20169 6.14575 7.28633 8.12748 7.96169V6.32019C7.88103 6.18642 7.68911 6.02867 7.59533 5.75315C7.53136 5.57068 7.55099 5.36858 7.60478 5.21519C7.65931 5.05744 7.74291 4.93458 7.84178 4.80154L8.0635 4.50057L8.39864 4.67287C10.77 5.87601 12.4217 6.18206 13.7382 5.63465C14.3693 5.37294 14.5466 5.1265 14.5663 5.04798C14.5815 4.96874 14.5415 4.82626 14.2857 4.60453C13.7826 4.14945 12.6485 3.67837 11.9637 3.50971L11.9143 3.49663L11.8648 3.47046C11.1895 3.11424 10.6966 2.64752 10.1543 2.35237C9.76971 2.14519 9.37496 2.00197 8.83773 2.00633ZM11.2927 3.83976C11.3959 3.84048 11.4955 3.88119 11.5682 3.95389C11.6417 4.02659 11.6824 4.12546 11.6824 4.22869C11.6824 4.27958 11.6729 4.33046 11.6533 4.37772C11.6337 4.42497 11.6053 4.46786 11.569 4.50421C11.5326 4.54056 11.4897 4.56964 11.4425 4.58927C11.3952 4.60889 11.3443 4.61907 11.2927 4.61907C11.2418 4.61907 11.1909 4.60889 11.143 4.58927C11.0957 4.56964 11.0528 4.54056 11.0165 4.50421C10.9808 4.46786 10.9518 4.42497 10.9321 4.37772C10.9132 4.33046 10.9031 4.27958 10.9031 4.22869C10.9031 4.12546 10.9445 4.02659 11.0172 3.95389C11.0906 3.88119 11.1895 3.84048 11.2927 3.83976ZM18.5799 5.45218C17.9736 5.46672 17.3964 5.62447 16.9529 5.86656C16.4346 5.79749 15.8974 5.65937 15.3405 5.48635C15.2075 5.7626 14.9661 5.98941 14.6208 6.19151C15.3056 6.41833 16.0057 6.62043 16.7108 6.72874C16.8439 7.35976 17.1056 7.98641 17.5839 8.55781L18.2636 7.9864C17.8842 7.53277 17.6777 7.0646 17.5737 6.55645C17.9881 6.39361 18.5944 6.28529 19.112 6.38416L19.2698 5.5067C19.0379 5.46672 18.8067 5.44709 18.5799 5.45218ZM9.01511 5.93998V8.78462C9.34515 8.69593 9.64612 8.61233 9.88311 8.53818C10.0605 8.47929 10.1834 8.42986 10.2575 8.3906L10.272 6.41833C9.86785 6.29038 9.4542 6.13263 9.01511 5.93998ZM11.1546 7.21218L11.1451 8.56289V8.54836C11.1502 8.72574 11.0608 8.8784 10.9823 8.96709C10.8987 9.05578 10.8144 9.10522 10.7308 9.15465C10.5585 9.24843 10.3709 9.3124 10.1492 9.38146C9.71009 9.51959 9.15832 9.65771 8.60582 9.82492C8.05405 9.99285 7.50155 10.2 7.09736 10.4363C6.69825 10.6784 6.4758 10.9292 6.42709 11.1858C6.2737 11.9942 6.422 12.4478 6.79639 12.8717C7.05301 13.1726 7.46739 13.4489 7.9799 13.72L7.8614 12.6696L8.16237 12.5416C9.06454 12.1425 10.0503 11.8612 10.8885 11.5013C11.7318 11.1466 12.4021 10.7227 12.7721 10.1113C13.0033 9.72169 13.0433 9.44035 12.9938 9.17428C12.9495 8.91329 12.7968 8.6465 12.5453 8.36588C12.2 7.98132 11.6824 7.60184 11.1546 7.21218ZM10.312 12.6797C9.79878 12.8673 9.28627 13.0396 8.8181 13.2315L8.98094 14.7211H8.9853C9.42948 14.5779 9.84313 14.4543 10.1143 14.346C10.2277 14.2965 10.2968 14.2573 10.3411 14.2275L10.312 12.6797ZM11.2142 13.4387L11.2287 14.3365V14.346C11.2287 14.6077 11.0608 14.7996 10.9183 14.913C10.7751 15.0213 10.6224 15.0955 10.4502 15.1645C10.1048 15.3077 9.69047 15.4255 9.26155 15.5636C8.41826 15.8348 7.58515 16.2245 7.3438 16.6141C7.07264 17.3927 7.17151 17.7627 7.44267 18.0928C7.60987 18.3 7.88612 18.4875 8.22126 18.6743L8.11294 17.7525L8.47279 17.6493C8.47279 17.6493 9.4542 17.3585 10.4545 16.87C10.9576 16.6236 11.4606 16.3328 11.8299 16.0173C12.2051 15.7068 12.4217 15.3863 12.461 15.1253C12.4813 15.0017 12.4217 14.7945 12.2639 14.5386C12.1011 14.2871 11.8503 14.0108 11.5835 13.7644C11.4606 13.6459 11.332 13.5376 11.2142 13.4387ZM10.2328 17.9503C9.74499 18.1567 9.35533 18.2898 9.09435 18.3741L9.11834 18.7194L9.29136 20.1835L9.2223 20.1486L9.22738 20.2083L9.28627 20.193C9.57706 20.1239 9.8235 20.0505 9.95218 19.9814C10.0852 19.9124 10.0605 19.9167 10.0605 19.9124L10.2233 18.0782L10.2328 17.9503ZM11.0514 18.8176L10.9474 19.9909C10.9132 20.3609 10.6275 20.6321 10.3607 20.7702C10.0896 20.9083 9.79442 20.9818 9.48837 21.0559C8.87698 21.1991 8.2118 21.3416 7.85632 21.5786C7.50664 21.8105 7.29945 22.0366 7.20059 22.2147C7.10245 22.3972 7.09736 22.5149 7.1417 22.6632C7.20568 22.8603 7.44267 23.1263 7.84178 23.3779C7.83669 23.1612 7.8614 22.9591 7.95009 22.757C8.04387 22.5447 8.23652 22.3725 8.43353 22.2787C8.63054 22.1849 8.83773 22.1405 9.08417 22.0962C9.63158 22.0024 10.4596 21.825 11.135 21.495C11.8103 21.1642 12.2792 20.7353 12.3526 20.1094C12.3628 20.0105 12.3134 19.868 12.1607 19.6754C12.0124 19.4878 11.7711 19.2857 11.5195 19.1084C11.3567 19 11.1989 18.9012 11.0514 18.8176ZM10.1245 22.7861C9.86785 22.8508 9.63158 22.8995 9.42439 22.9395L9.47383 23.6541L10.0801 23.689L10.1245 22.7861Z" fill="#7BAA6D"/>
</svg>
