<svg width="24" height="24" viewBox="0 0 24 24" fill="none" xmlns="http://www.w3.org/2000/svg">
<path d="M18.2948 17.2457V14.0983H15.1474V12H18.2948V8.85257H20.3931V12H23.5405V14.0983H20.3931V17.2457H18.2948ZM10.9509 21.4422L7.61985 18.4522C6.36088 17.316 5.28132 16.3015 4.38011 15.4097C3.4789 14.5179 2.73611 13.6786 2.15069 12.8918C1.56527 12.1049 1.13722 11.3443 0.865495 10.6099C0.593768 9.87548 0.45843 9.10646 0.459479 8.30177C0.459479 6.65777 1.01028 5.2897 2.11187 4.19754C3.21347 3.10539 4.58574 2.55879 6.22974 2.55774C7.13934 2.55774 8.00488 2.74554 8.82636 3.12218C9.64783 3.49882 10.356 4.03598 10.9509 4.7347C11.5457 4.03493 12.2539 3.49777 13.0754 3.12218C13.8968 2.74658 14.7624 2.55879 15.672 2.55774C17.1586 2.55774 18.4039 3.00782 19.4101 3.90903C20.4162 4.81024 21.0404 5.86357 21.2849 7.06904C20.9701 6.94629 20.6554 6.85501 20.3407 6.79416C20.0259 6.73331 19.7196 6.70289 19.4227 6.70184C17.657 6.70184 16.1525 7.31873 14.9114 8.55147C13.6702 9.78421 13.0491 11.2834 13.0491 13.0491C13.0491 13.9587 13.2327 14.8201 13.5999 15.6332C13.9671 16.4462 14.4833 17.1418 15.1474 17.7178C14.8148 18.0147 14.3826 18.3955 13.8496 18.8593C13.3167 19.323 12.8571 19.729 12.4721 20.0784L10.9509 21.4422Z" fill="#FF6B6B"/>
</svg>
