<svg width="24" height="24" viewBox="0 0 24 24" fill="none" xmlns="http://www.w3.org/2000/svg">
<path d="M11.5153 17.3854C11.5153 17.3854 11.8789 18.9312 13.8909 20.0812C15.1591 20.8064 17.8269 21.5576 19.1883 20.5516C20.7382 19.4057 21.0729 18.2712 21.1464 17.8537C21.22 17.4351 20.9993 16.2841 20.9993 16.2841L18.4486 15.3765C18.4486 15.3765 14.2308 16.4063 14.1572 16.4063C14.0857 16.4084 11.5153 17.3854 11.5153 17.3854Z" fill="#C16262"/>
<path d="M21.0077 18.351C21.0636 18.2049 21.0988 18.0806 21.1237 17.978C20.673 17.8568 20.1509 17.663 19.6763 17.461C19.7157 17.4434 19.754 17.4258 19.7913 17.4061C20.0245 17.288 20.2534 17.1502 20.4192 16.9482C20.5974 16.7306 20.6792 16.4488 20.6699 16.167L18.4486 15.3765C18.4486 15.3765 14.2319 16.4063 14.1583 16.4063C14.0837 16.4063 11.5164 17.3833 11.5143 17.3854C11.4811 17.3968 11.7526 17.9676 11.7702 17.9967C12.0168 18.4577 12.5845 19.098 12.973 19.4461C12.973 19.4461 12.7938 19.0348 13.1326 18.8804C13.2818 18.8131 13.4621 18.8462 13.6154 18.9063C14.0008 19.0596 14.4826 19.6502 15.6865 20.2832C16.505 20.7142 17.3452 21.0447 17.6177 21.0333C17.9813 21.0178 18.6392 20.8406 18.6392 20.8406C18.6392 20.8406 17.8 20.7609 16.4521 20.134C16.0439 19.9434 14.5344 19.2016 14.3914 18.7872C14.35 18.6711 14.2049 18.465 14.4691 18.3489C14.8732 18.1676 15.9745 19.1177 16.9204 19.5528C18.0466 20.0698 19.2743 20.4832 19.2743 20.4832C19.407 20.3827 19.5313 20.2812 19.6473 20.1807C19.0205 20.019 18.4061 19.7973 17.8135 19.5393C17.223 19.2834 16.6448 18.9509 16.1102 18.5851C15.7704 18.352 15.5352 17.9604 15.8999 17.9096C16.4987 17.8257 17.2716 18.3955 18.0466 18.7975C18.746 19.1601 19.5852 19.328 20.3726 19.4264C20.4731 19.3 20.6388 19.0596 20.6388 19.0596C20.6388 19.0596 20.3415 19.0089 19.4629 18.8151C19.0785 18.7291 18.7056 18.6183 18.3637 18.4266C18.2746 18.3759 17.9617 18.0557 18.3885 17.9076C18.8164 17.7604 19.2225 18.0536 19.867 18.2028C20.5145 18.3562 21.0015 18.3645 21.0077 18.351Z" fill="#6C2626"/>
<path d="M22.4848 10.3133C22.4848 10.3133 22.4361 8.74059 21.5918 7.34709C20.8634 6.14734 19.8242 6.02508 19.8242 6.02508C19.8242 6.02508 19.6181 5.26876 18.8949 4.68961C18.1728 4.11149 16.686 3.62765 16.686 3.62765C13.7105 2.28699 11.8549 3.38417 11.8549 3.38417C11.8549 3.38417 7.44129 2.33568 3.90834 5.333C3.90834 5.333 2.12425 6.1722 1.3959 7.75737C0.99391 8.63595 1.16693 10.0667 1.16693 10.0667C-0.0701211 11.5048 0.269706 13.781 1.65802 14.9217C2.3211 15.4636 3.13855 15.8231 3.99122 15.9142C4.32587 15.9495 4.49475 15.8697 4.63461 16.2095C4.84079 16.711 5.00138 17.2259 5.4158 17.5854C5.83748 17.9501 6.32857 18.234 6.85074 18.4277C7.86504 18.8028 9.01092 18.8442 10.0345 18.4764C10.3754 18.3542 11.4643 18.3428 11.4643 18.3428C11.4643 18.3428 12.0414 18.8183 14.0897 18.7427C16.1369 18.6671 17.001 17.7833 17.4693 17.6175C17.8288 17.4922 18.2702 17.2135 18.6618 17.286C18.8856 17.3264 19.0855 17.4414 19.2896 17.5388C19.8605 17.8123 20.5018 17.9615 21.1307 17.9035C23.5105 17.6838 23.7613 14.9435 23.5261 13.0589C23.2899 11.1567 22.4848 10.3133 22.4848 10.3133Z" fill="#FF9F9F"/>
<path d="M4.90815 14.0337C4.85946 14.1446 4.37355 15.2055 3.96534 15.3765C3.26082 15.6738 2.16882 14.9662 1.75128 14.7725C1.66944 14.7331 1.61556 14.8305 1.61556 14.8305C1.54718 14.9185 1.72435 15.0988 1.81345 15.163C2.15949 15.4117 2.98834 15.9753 3.60479 16.1286C4.39945 16.3265 4.99518 16.1286 4.99518 16.1286C4.99518 16.1286 5.21275 14.5373 5.23036 14.4658C5.24798 14.3933 5.23036 13.7602 5.23036 13.7602L4.90815 14.0337Z" fill="#5F1919"/>
<path d="M11.8499 18.524C11.8499 18.524 11.449 18.4618 10.8356 18.4712C10.2212 18.4805 9.35718 18.6577 9.35718 18.6577C9.35718 18.6577 9.96742 18.38 10.2389 18.1365C10.5113 17.892 10.5652 17.2973 10.5207 16.944C10.474 16.5824 10.3518 16.4001 9.42659 16.2084L12.197 16.054C11.2687 16.6726 11.0998 17.9448 11.8499 18.524ZM20.2358 12.6786C19.754 12.7428 19.2857 12.6506 18.8703 12.404C18.6889 12.2952 18.6703 12.0393 18.8288 11.9015C18.9366 11.8104 19.0899 11.8041 19.208 11.8818C19.8804 12.3232 20.5642 12.0331 20.9289 11.8062C21.8614 11.225 22.3245 10.1951 22.2623 9.11557C22.4488 9.44607 22.5845 9.81076 22.6177 10.1879C22.7006 11.1027 22.0427 11.8155 21.306 12.2766C20.9548 12.4973 20.5911 12.6319 20.2358 12.6786Z" fill="#733D39"/>
<path d="M22.3173 13.5893C22.108 13.5893 21.8811 13.5447 21.6646 13.4131C21.4439 13.2764 21.3196 13.094 21.2087 12.8692C21.1176 12.6848 20.9891 12.5698 20.7539 12.5874C20.5892 12.6009 20.4296 12.6941 20.2649 12.6703C20.4835 12.2818 20.8357 11.9709 21.2491 11.8021C21.4398 11.7244 21.6532 11.6757 21.848 11.7368C21.8687 11.8725 21.7775 11.9989 21.7257 12.1264C21.6335 12.3543 21.6708 12.6257 21.819 12.8205C21.9195 12.9521 22.1122 13.094 22.2883 13.0826C22.4054 13.0743 22.4872 12.9759 22.6012 12.9656C22.9566 12.9407 23.0467 13.4618 22.6965 13.5426C22.5836 13.5706 22.4561 13.5893 22.3173 13.5893ZM18.8983 6.38659C18.7574 6.40421 18.6134 6.38867 18.5398 6.26434C18.4445 6.10271 18.5243 5.90068 18.7004 5.83852C19.1884 5.66757 19.7365 5.69865 20.212 5.88929C20.6275 6.05609 20.8782 6.33997 21.043 6.53164C21.2087 6.72435 21.3217 7.10562 21.3217 7.10562C20.9072 6.74611 20.672 6.18042 18.8983 6.38659ZM17.0376 6.01154C16.618 5.99393 17.0262 6.01154 17.022 6.01154C16.3579 6.01154 15.5633 5.78257 15.4565 5.02418C15.2638 3.64519 17.2997 4.18186 18.0456 4.28443C18.0456 4.28443 17.4572 3.68041 16.6863 3.62757C16.3268 3.60478 15.9559 3.6141 15.6057 3.70735C15.2214 3.81096 15.0276 4.10002 14.6774 4.24403C14.4132 4.35074 14.1117 4.3093 13.8403 4.22849C13.5896 4.15285 12.7752 3.71564 12.7524 4.25957C12.7462 4.40876 12.8529 4.53723 12.999 4.55795C13.5896 4.64187 14.406 4.90607 14.7085 5.46968C14.8484 5.72766 14.8815 6.04055 14.7997 6.32236C14.7613 6.46015 14.7044 6.63732 14.8194 6.72435C14.9064 6.79273 15.0411 6.74818 15.1209 6.67047C15.1996 6.59277 15.2504 6.48709 15.3301 6.40939C15.5788 6.16488 15.8047 6.33997 16.0688 6.43322C16.3734 6.542 16.6957 6.59381 17.0199 6.59381C17.0282 6.59381 16.4512 6.53786 17.0417 6.59381C17.6302 6.64872 17.4551 6.02915 17.0376 6.01154ZM7.69958 5.37851C7.37736 5.08634 7.22403 3.95186 8.15026 3.36752C8.15026 3.36752 7.6457 3.38514 7.22403 3.71564C6.86452 3.99745 6.79199 4.48439 6.87798 4.99931C6.89974 5.13193 6.79613 5.25211 6.66248 5.24382C6.18072 5.21896 5.70102 5.30599 5.2866 5.49662C5.12912 5.57018 5.07524 5.7691 5.16849 5.91622C5.20682 5.97632 5.26588 6.01983 5.33426 6.03848C5.40264 6.05816 5.47516 6.05195 5.5394 6.02087C6.00355 5.80744 6.6801 5.69244 7.22195 5.82919C7.77106 5.96699 8.15855 6.12654 8.58955 6.87354C8.66311 6.99994 8.82266 7.04449 8.94285 6.96368C9.03609 6.89944 9.07546 6.77926 9.03609 6.67358C8.66725 5.65617 8.13472 5.77014 7.69958 5.37851ZM8.90244 8.87727C8.89208 8.83998 8.87447 8.80475 8.8496 8.7747C8.82577 8.74466 8.79676 8.71876 8.76257 8.70011C8.72838 8.68146 8.69108 8.67006 8.65275 8.66592C8.61442 8.66178 8.57608 8.66592 8.53878 8.67628C8.07256 8.81615 7.39808 8.77574 7.09763 8.47218C6.69564 7.5418 6.39 7.37706 5.90305 7.21233C5.70828 7.14602 5.51453 7.31283 5.53318 7.51486C5.54561 7.62986 5.62125 7.72622 5.7321 7.75937C6.07711 7.86297 6.42523 8.32713 6.60447 8.80061C6.76713 9.23057 6.78681 9.79522 6.41797 10.1993C6.32266 10.305 6.30297 10.4562 6.38689 10.5712L6.39 10.5764C6.49671 10.7246 6.71118 10.736 6.83551 10.6023C6.96708 10.4583 7.10488 10.2718 7.16394 10.0832C7.22403 9.88329 7.20641 9.70405 7.37944 9.54553C7.57111 9.36629 7.75449 9.40359 7.98553 9.40359C8.22175 9.40359 8.47662 9.3176 8.70041 9.23782C8.85167 9.18913 8.94906 9.02854 8.90244 8.87727ZM2.94615 11.5109C2.87984 11.5109 2.8156 11.5089 2.74826 11.5037C1.84896 11.426 1.37652 10.7784 1.16309 10.0698C0.948629 9.36008 1.12994 8.58925 1.12994 8.58925C1.40139 10.6873 2.49546 10.8955 2.79799 10.9225C3.37197 10.9732 3.919 10.7246 4.06923 10.3454C4.30545 9.74756 3.57918 9.16012 3.22381 8.7975C2.98863 8.5561 2.9016 8.14685 2.96376 7.82153C2.99484 7.65473 3.0684 7.49207 3.2062 7.38535C3.34192 7.27967 3.68382 7.18436 3.6372 7.48378C3.62373 7.57702 3.56364 7.65473 3.52737 7.74072C3.26111 8.34681 4.20703 8.90836 4.46501 9.35697C4.6774 9.71959 4.77064 10.1589 4.61109 10.5588C4.38523 11.1307 3.7035 11.5109 2.94615 11.5109Z" fill="#733D39"/>
<path d="M2.73881 11.3545C2.89526 11.3742 3.05688 11.3472 3.19882 11.2768C3.33455 11.2115 3.4568 11.1058 3.60703 11.0944C3.67852 11.0903 3.76762 11.1338 3.75622 11.2032C3.75208 11.2281 3.91785 11.2747 3.89609 11.2892C3.50964 11.5296 2.53056 11.7689 3.20607 13.5033C3.26099 13.6411 3.21851 13.7965 3.09211 13.8721C2.94395 13.9622 2.74814 13.9032 2.67769 13.7457C2.49327 13.3406 2.40417 12.8909 2.41038 12.4444C2.41556 12.0093 2.46011 11.629 2.16898 11.2654C2.1379 11.2281 2.10475 11.1763 2.13065 11.1348C2.14619 11.11 2.17727 11.1006 2.20628 11.0924C2.32646 11.0613 2.45493 11.0281 2.57719 11.054C2.63106 11.0654 3.23923 11.4011 3.24544 11.3897M20.0679 14.1601C19.6659 14.1114 19.2525 14.1404 18.8713 14.2844C18.549 14.4067 18.3087 14.6533 17.9378 14.5714C17.7161 14.5227 17.5192 14.3818 17.3814 14.2005C17.0903 13.8224 17.1296 13.4235 17.2384 12.9925C17.3472 12.5646 17.3348 12.0694 17.1431 11.6674C17.0923 11.5606 17.0064 11.4653 16.8965 11.427C16.7836 11.3876 16.6458 11.4208 16.5795 11.5202C16.5132 11.6207 16.5391 11.7554 16.5619 11.8735C16.6375 12.2372 16.7349 12.6288 16.6261 12.9842C16.5236 13.323 16.3816 13.6255 16.1381 13.8856C15.6781 14.3818 15.0099 14.6087 14.4328 14.4626C14.007 14.3559 13.664 14.0586 13.432 13.6048C13.3511 13.2484 13.2652 12.7863 12.8248 12.7355C12.7347 12.7262 12.6383 12.7397 12.57 12.7967C12.5016 12.8547 12.4705 12.9479 12.4705 13.037C12.4705 13.2608 12.685 13.4276 12.7233 13.6473C12.8455 14.3197 12.399 15.0884 11.7214 15.4614C11.1961 15.7505 9.75706 15.9142 8.46717 14.8325C8.41226 14.7859 8.41226 14.6958 8.36046 14.6471C8.32523 14.616 8.28068 14.5973 8.23613 14.589C8.04343 14.5528 7.84347 14.7351 7.86108 14.9289C7.87662 15.106 8.0227 15.2418 8.15221 15.3619C8.48997 15.6769 8.3387 15.8033 8.28068 15.9722C8.26721 16.0147 8.24131 16.054 8.2382 16.0986C8.22577 16.2229 8.41641 16.1825 8.54073 16.1721C8.66506 16.1628 8.77799 16.0944 8.89817 16.0602C9.04944 16.0167 9.74359 16.2716 9.87932 16.3006C10.2741 16.3866 10.4098 16.4249 10.7496 16.4249C11.1754 16.4249 11.536 16.6446 11.8468 16.3534C12.2902 15.939 12.6342 15.6697 13.0269 15.535C13.2206 15.4697 13.4537 15.4365 13.6174 15.5629C13.7334 15.652 13.7863 15.8012 13.8267 15.9411C13.9106 16.2291 13.9728 16.5223 14.095 16.7958C14.2173 17.0683 14.411 17.3222 14.6835 17.4444C14.7685 17.4838 14.8659 17.5087 14.9591 17.4879C15.0524 17.4662 15.1342 17.3864 15.1363 17.2932C15.1383 17.2289 15.1052 17.1709 15.07 17.1181C14.9363 16.9046 14.7768 16.7067 14.6586 16.485C14.5395 16.2633 14.4618 16.0053 14.5105 15.7588C14.5996 15.3019 15.128 15.1744 15.5072 15.0594C15.8708 14.9486 16.2335 14.7403 16.6241 14.7621C16.8686 14.7755 17.3876 15.0615 17.543 15.2521C17.5741 15.2905 17.5876 15.3391 17.5959 15.3899C17.6611 15.7992 17.3607 16.169 17.0747 16.4674C17.024 16.5203 16.9722 16.6 17.0146 16.6601C17.0302 16.6819 17.053 16.6933 17.0768 16.7005C17.283 16.7803 17.5233 16.7109 17.6984 16.5762C18.0828 16.2851 18.2175 15.7857 18.5449 15.4396C18.8153 15.1589 19.179 14.9734 19.5457 14.8532C20.8595 14.4222 20.9268 15.4552 21.162 16.0343C21.3972 16.6135 21.7453 16.2136 21.7484 16.054C21.7619 15.2987 21.2791 14.3041 20.0679 14.1601Z" fill="#733D39"/>
<path d="M7.77076 17.2267C7.56976 17.2153 7.43818 17.0081 7.52003 16.8227C7.64954 16.5274 7.89508 16.2342 8.21108 16.0094C8.69285 15.6675 9.17461 15.6053 9.65845 15.7431L9.75792 16.2362C9.44503 16.1471 8.88555 16.2466 8.54884 16.4849C8.3064 16.6579 8.13959 16.8693 8.05775 17.0464C8.00491 17.1614 7.89508 17.235 7.77076 17.2267Z" fill="#733D39"/>
<path d="M20.3507 8.27429C20.3134 8.02771 20.1217 7.7977 19.873 7.79045C19.7508 7.78631 19.614 7.85054 19.5809 7.96865C19.5653 8.02149 19.5736 8.07951 19.5757 8.13442C19.5912 8.53848 19.2669 8.92908 18.866 8.98503C18.4143 9.04926 18.0796 8.76953 17.7377 8.53641C17.4114 8.3147 17.0032 8.1655 16.6271 8.05879C15.6221 7.77698 14.758 7.96554 14.0991 8.79439C13.8546 9.10314 13.6215 9.44193 13.2775 9.63152C12.7377 9.93094 11.597 9.9527 11.2613 9.36629C10.82 8.59858 10.8044 6.24051 12.2186 6.50781C12.6559 6.59173 12.9801 6.97093 13.0112 7.25274C13.0309 7.43094 12.9201 7.58635 12.7781 7.70653C12.7263 7.75212 12.6911 7.81324 12.6807 7.88162C12.6704 7.95 12.6838 8.01942 12.7201 8.07744C12.8133 8.23181 13.0226 8.26393 13.1594 8.14996C13.5572 7.80806 13.6194 7.44855 13.5904 7.1885C13.4992 6.35862 12.5647 5.89032 11.8229 5.8696C11.6592 5.86338 11.4706 5.81055 11.4084 5.65721C11.3815 5.5909 11.3857 5.51941 11.3794 5.45C11.3411 4.95373 10.8334 4.41601 10.4377 4.16011C10.2916 4.06479 10.0958 4.12695 10.0201 4.28236C9.95589 4.41601 10.0067 4.57349 10.131 4.65534C10.5071 4.904 10.7371 5.26454 10.8127 5.73077C10.8977 6.26745 10.7816 6.81552 10.5558 7.30247C10.4428 7.54801 10.305 7.78423 10.1445 8.00181C10.0067 8.19037 9.80981 8.31677 9.72071 8.54263C9.71139 8.56749 9.70102 8.59443 9.70931 8.62033C9.72278 8.66799 9.78287 8.6825 9.83364 8.68353C9.97662 8.68975 10.1206 8.65867 10.2491 8.59858C10.1755 8.88453 10.3651 9.16219 10.5226 9.41084C10.6801 9.6595 10.8065 9.99725 10.6283 10.2324C10.62 10.2418 10.6107 10.2521 10.6024 10.2635C10.2201 10.4241 9.85125 10.6438 9.56323 10.9473C9.06799 11.4716 8.70123 11.944 7.97599 12.1771C7.33467 12.3843 6.62186 12.3595 5.99816 12.1087C5.87797 12.06 5.75572 12.0041 5.62518 12.0082C5.49567 12.0113 5.35787 12.1025 5.35373 12.2331C5.35166 12.2994 5.38481 12.3595 5.41382 12.4196C5.74432 13.0899 5.13823 13.525 4.87922 14.1073C4.63678 14.6512 4.51245 15.248 4.51245 15.8448C4.51245 16.4954 4.73624 16.9689 5.54229 17.7967C5.90698 18.1697 6.38461 18.3914 6.78763 18.5209C6.91403 18.5623 6.99277 18.3893 6.88088 18.3178C6.051 17.7894 5.92045 17.3211 5.66869 16.8394C5.0626 15.679 5.72464 13.9115 6.86534 13.0143C7.30566 12.6682 7.93144 12.6951 8.46397 12.8785C9.03484 13.0743 9.37259 13.4939 9.80256 13.8845C9.9186 13.9913 10.0688 14.1063 10.218 14.0596C10.3537 14.0182 10.4221 13.8576 10.4066 13.7177C10.391 13.5779 10.3113 13.4535 10.2356 13.3344C10.1517 13.2049 10.0688 13.0743 9.98283 12.9438C9.87197 12.7728 9.75801 12.5946 9.72278 12.3926C9.68341 12.173 9.87819 11.4135 11.7234 10.9432C12.0363 10.8634 12.3544 10.8986 12.6693 10.9877C13.0931 11.1079 13.3956 11.4187 13.752 11.6622C13.8504 11.7295 13.9592 11.8021 14.0794 11.8062C14.2317 11.8114 14.3788 11.6974 14.4099 11.5472C14.4524 11.341 14.297 11.1566 14.1944 10.9743C13.8525 10.3723 14.2504 9.56833 14.7539 9.18291C15.2046 8.84101 15.7972 8.71461 16.3587 8.77367C17.2135 8.8607 18.0568 9.43157 18.2526 10.2677C18.2972 10.4552 18.3521 10.6987 18.5438 10.7235C18.7572 10.7525 18.8722 10.4676 18.8504 10.2521C18.8297 10.0356 18.7593 9.79315 18.894 9.6222C18.9561 9.5445 19.0494 9.49995 19.1405 9.45954C19.4027 9.34454 19.6762 9.24922 19.9114 9.08449C20.1466 8.92079 20.3424 8.67006 20.36 8.38515C20.3579 8.35199 20.3569 8.31262 20.3507 8.27429Z" fill="#5F1919"/>
<path d="M9.8317 8.68249C9.97468 8.68871 10.1187 8.65763 10.2472 8.59754C10.1736 8.88349 10.3632 9.16115 10.5207 9.40981C10.6357 9.59215 10.7952 9.91644 10.6222 10.249C10.6222 10.249 10.8823 10.1029 11.3039 9.98067C11.7256 9.85842 12.1369 9.83148 12.1369 9.83148C11.8385 9.76932 11.3951 9.5994 11.2594 9.36526C10.818 8.59754 10.8025 6.23947 12.2167 6.50677C12.6539 6.59069 12.9782 6.96989 13.0093 7.2517C13.029 7.4299 12.9181 7.58531 12.7762 7.70549C12.7244 7.75108 12.6891 7.81221 12.6788 7.88059C12.6684 7.94897 12.6819 8.01838 12.7182 8.0764C12.8114 8.23077 13.0207 8.26289 13.1574 8.14892C13.5553 7.80703 13.6175 7.44751 13.5884 7.18746C13.4973 6.35758 12.5627 5.88928 11.8209 5.86856C11.6572 5.86235 11.4687 5.80951 11.4065 5.65617C11.3796 5.58986 11.3837 5.51838 11.3775 5.44896C11.3392 4.95269 10.8315 4.41497 10.4357 4.15907C10.2896 4.06375 10.0938 4.12591 10.0182 4.28132C9.95396 4.41497 10.0047 4.57246 10.1291 4.6543C10.5051 4.90296 10.7351 5.26351 10.8108 5.72973C10.8957 6.26641 10.7797 6.81448 10.5538 7.30143C10.4409 7.54698 10.3031 7.7832 10.1425 8.00077C10.0047 8.18933 9.80787 8.31573 9.71877 8.54159C9.70945 8.56646 9.69909 8.59339 9.70738 8.61929C9.72084 8.66695 9.78094 8.68146 9.8317 8.68249Z" fill="#733D39"/>
</svg>
