<svg width="24" height="24" viewBox="0 0 24 24" fill="none" xmlns="http://www.w3.org/2000/svg">
<path d="M9 11.9988L11 13.9988L15 9.99877M20 12.9988C20 17.9988 16.5 20.4988 12.34 21.9488C12.1222 22.0226 11.8855 22.0191 11.67 21.9388C7.5 20.4988 4 17.9988 4 12.9988V5.99877C4 5.73355 4.10536 5.4792 4.29289 5.29166C4.48043 5.10413 4.73478 4.99877 5 4.99877C7 4.99877 9.5 3.79877 11.24 2.27877C11.4519 2.09777 11.7214 1.99832 12 1.99832C12.2786 1.99832 12.5481 2.09777 12.76 2.27877C14.51 3.80877 17 4.99877 19 4.99877C19.2652 4.99877 19.5196 5.10413 19.7071 5.29166C19.8946 5.4792 20 5.73355 20 5.99877V12.9988Z" stroke="black" stroke-width="1.7" stroke-linecap="round" stroke-linejoin="round"/>
</svg>
