<svg width="48" height="48" viewBox="0 0 48 48" fill="none" xmlns="http://www.w3.org/2000/svg">
<path d="M9.02979 8.96389C9.58444 8.40567 10.3549 7.77611 10.9809 7.30706C14.5674 4.63722 18.9208 3.20332 23.3902 3.21937C28.8297 3.23542 34.0481 5.38271 37.9236 9.20109C39.1738 10.4424 40.2635 11.8335 41.1695 13.3423C41.3425 13.6348 41.6332 14.0539 41.6314 14.3856C41.6314 14.6085 41.5405 14.8226 41.3817 14.9813C41.223 15.14 41.0072 15.2274 40.7825 15.2221C40.2742 15.2131 40.0887 14.8654 39.8729 14.473C39.4948 13.781 39.0365 13.1586 38.5871 12.513C38.3677 12.6182 38.0663 12.7858 37.8576 12.9196C37.0979 13.4065 36.1847 13.6883 35.4071 14.1056C35.2894 15.0241 35.1147 15.6322 34.3299 16.2368C34.2871 16.2689 34.2443 16.301 34.2033 16.3331C34.5439 18.0132 34.8115 19.6468 34.9167 21.3625C34.9488 21.8833 35.0059 22.627 34.9952 23.1442C37.4385 23.1959 39.9478 23.1353 42.4001 23.1567C42.3769 22.8089 42.3537 22.4629 42.3252 22.1169C42.2966 21.7887 42.211 21.4231 42.2431 21.0985C42.2842 20.6705 42.5713 20.3584 43.0118 20.3459C43.4167 20.3334 43.7716 20.5546 43.8732 20.963C43.941 21.2448 43.9606 21.5355 43.9891 21.8244C44.0783 22.6716 44.114 23.5223 44.0979 24.3748C44.0658 26.2438 43.7823 28.1004 43.2544 29.8928C43.463 29.9855 43.7038 30.1193 43.9107 30.2334C44.4297 30.517 45.0039 30.8006 45.234 31.3802C45.3 31.5425 45.3464 31.8261 45.4016 31.9473V33.2849C45.3392 33.4615 45.2786 34.1445 45.2376 34.3764C45.168 34.7652 45.0967 35.1183 44.9915 35.5035C44.303 38.0307 42.8245 40.6702 40.9073 42.4662C40.3331 43.003 38.9045 44.123 38.1483 44.0392C36.8714 43.8983 35.3715 42.3806 34.5564 41.5049C34.3852 41.5798 34.1569 41.7296 33.9857 41.833C33.7236 41.99 33.4596 42.1434 33.1903 42.2896C32.1862 42.8336 31.1375 43.2919 30.0585 43.6647C24.9061 45.4267 19.2686 45.0914 14.3605 42.7337C9.028 40.1584 5.04375 35.4358 3.40119 29.7483C3.15329 28.894 2.96424 28.0237 2.83227 27.1445C2.7859 26.8127 2.74666 26.481 2.71277 26.1493C2.69137 25.9282 2.67532 25.3895 2.59863 25.1987V22.7768C2.67354 22.5592 2.69851 21.8886 2.72883 21.6282C2.80551 20.9898 2.90717 20.3548 3.03736 19.7253C3.41902 17.8901 4.05215 16.1156 4.91535 14.4516C5.08477 14.1199 5.26669 13.7935 5.45573 13.4743C5.55204 13.312 5.69828 13.0837 5.77854 12.9232C5.35051 12.2455 5.17751 11.5927 5.35764 10.7902C5.5128 10.1071 5.93192 9.51141 6.52403 9.13689C7.12505 8.76415 7.84735 8.64644 8.53577 8.80873C8.70341 8.84975 8.86749 8.90325 9.02979 8.96389ZM32.7106 32.065C32.6624 32.4003 32.7016 33.0727 32.7355 33.4151C32.9763 35.7283 33.9964 37.9415 35.3661 39.7981C36.001 40.6595 36.7893 41.4585 37.6846 42.0506C37.8433 42.1558 38.0681 42.3128 38.2607 42.3181C38.892 41.9472 39.4538 41.5406 39.9781 41.0126C41.5654 39.4129 42.7853 37.2121 43.3685 35.0398C43.5647 34.3033 43.8126 32.782 43.6806 32.0508C43.4648 31.901 43.117 31.7226 42.8763 31.5924L41.5529 30.879L39.502 29.7697C39.2915 29.6556 38.3195 29.0974 38.1519 29.0956L34.5261 31.0502L33.4774 31.6138C33.2492 31.7369 32.9049 31.9099 32.7106 32.065ZM11.0273 34.0197C11.1093 33.9858 11.202 33.9466 11.2859 33.918C11.4054 33.0263 11.5712 32.3593 12.3452 31.7708C12.3952 31.7333 12.4469 31.6959 12.4986 31.6584C12.0706 29.611 11.6996 26.9733 11.7121 24.8545C9.96789 24.8099 8.07563 24.8438 6.32606 24.8456H4.97777C4.76554 24.8456 4.5105 24.8563 4.30362 24.8456C4.51763 28.6872 5.73395 32.3165 8.0792 35.3912C8.0899 35.4055 8.13271 35.4304 8.14697 35.4376C8.38952 35.3573 8.7159 35.1255 8.9531 35.0077C9.52915 34.7188 10.4334 34.2159 11.0273 34.0197ZM7.1518 13.9219C5.77854 16.1263 4.87433 18.5892 4.49445 21.1574C4.38744 21.8761 4.37496 22.4682 4.2947 23.1477C5.33446 23.1567 6.376 23.1584 7.41576 23.1531H11.7014C11.7834 20.9915 11.9279 19.233 12.3435 17.0911C12.438 16.6078 12.5432 16.128 12.6591 15.6501C12.734 15.3398 12.8375 14.9849 12.9035 14.6799C11.9725 14.3446 11.0522 14.0289 10.1623 13.592C10.0036 13.5135 9.83591 13.4386 9.67005 13.3744C9.06367 13.8577 8.42698 14.1074 7.6369 14.0146C7.47283 13.995 7.31053 13.9647 7.1518 13.9219ZM13.3832 23.1531C14.1804 23.1424 15.0026 23.1531 15.8016 23.1531L20.8452 23.1549L21.0182 22.7928C21.3731 22.1223 21.819 21.762 22.5145 21.4873C22.5252 19.7467 22.527 18.006 22.5199 16.2654C19.8215 16.203 17.141 15.8338 14.5264 15.1668C13.7613 17.9846 13.4991 20.2603 13.3832 23.1531ZM14.1269 31.2125C15.1524 31.4176 15.5216 31.6103 16.1815 32.4324C16.5417 32.3754 16.9002 32.3058 17.2587 32.2398C18.7817 31.9616 20.2977 31.8385 21.8422 31.7583C22.033 31.7511 22.3487 31.7297 22.5288 31.7422L22.527 26.5149C21.5764 26.1065 21.2946 25.7391 20.8398 24.8777C20.8327 24.8652 20.6241 24.8402 20.5919 24.8438C19.9267 24.842 19.2579 24.8438 18.5927 24.8438L14.8349 24.8456C14.5514 24.8456 13.599 24.8652 13.3921 24.8331C13.4224 26.4133 13.5651 27.9898 13.8148 29.5504C13.9075 30.1211 14.0235 30.649 14.1269 31.2125ZM24.2088 16.2654C24.2017 17.4549 24.2017 18.6427 24.207 19.8305C24.2088 20.337 24.2266 20.9719 24.2035 21.4713C24.9543 21.8226 25.5321 22.2203 25.8335 23.0461C25.8442 23.0764 25.8549 23.1067 25.8656 23.137C26.2616 23.1674 26.7377 23.1549 27.139 23.1531H31.1019C31.8242 23.1531 32.6 23.1388 33.3134 23.1602L33.3116 23.1335C33.2688 22.6377 33.2741 22.0295 33.2349 21.4927C33.1457 20.1711 32.9763 18.8567 32.7266 17.5566C32.6927 17.3836 32.6321 16.9128 32.5429 16.7951C32.3717 16.7273 32.1398 16.6916 31.974 16.647C31.3444 16.4794 30.9307 16.0621 30.5205 15.5877C30.5062 15.5698 30.4634 15.5787 30.4366 15.5787C28.696 15.8998 26.9928 16.1548 25.2218 16.2244C24.9632 16.2333 24.4389 16.2761 24.2088 16.2654ZM34.9952 24.8456C34.9666 26.2581 34.8561 27.6688 34.6652 29.0688C35.293 28.6818 35.9885 28.3608 36.6288 27.9916C36.9106 27.8293 37.2102 27.6831 37.4938 27.5243C37.7435 27.3835 38.0716 27.2033 38.3659 27.2907C38.7065 27.3942 39.0597 27.6117 39.3753 27.783L40.7932 28.5498C41.0964 28.7157 41.437 28.9101 41.7456 29.0563C41.8543 28.5926 41.9667 28.1628 42.0594 27.6938C42.2414 26.7557 42.3555 25.8051 42.4037 24.8509C40.6808 24.826 38.917 24.8438 37.1906 24.8456H35.7175C35.4927 24.8456 35.2127 24.8581 34.9952 24.8456ZM10.2622 10.1249C10.585 10.7991 10.6081 11.1825 10.535 11.912C10.7401 11.9976 10.9327 12.0903 11.1343 12.1848C11.9475 12.5415 12.5842 12.7734 13.4082 13.0694C14.332 10.5119 15.5608 7.93484 17.503 5.97303C17.5512 5.92488 17.6635 5.84106 17.651 5.78399L17.6421 5.77685C15.3932 6.47597 13.2976 7.59241 11.4624 9.06733C11.0825 9.37409 10.6028 9.77358 10.2622 10.1249ZM22.445 5.00461C21.3125 5.15086 20.0837 5.88029 19.2365 6.63826C17.1891 8.46987 15.9496 11.006 15.0276 13.5492C15.3218 13.6205 15.6232 13.6901 15.9175 13.765C17.4174 14.1038 18.9405 14.3357 20.4742 14.4587C21.152 14.5158 21.8671 14.5176 22.5217 14.5764C22.5038 14.2786 22.5145 13.9005 22.5145 13.5938L22.5163 11.9708L22.511 6.72744C22.5092 6.49202 22.5288 5.11162 22.4895 5.01175C22.4503 5.00283 22.4664 5.00105 22.445 5.00461ZM36.6663 11.6426C36.8553 11.5499 37.3154 11.2984 37.4956 11.1807C37.0586 10.7527 36.668 10.3211 36.2097 9.90199C34.5297 8.37178 32.5928 7.15012 30.4848 6.29762C30.2672 6.20845 29.2346 5.80539 29.0259 5.79112L29.0491 5.82322C29.1276 5.92131 29.2399 6.0194 29.3291 6.11214C30.5008 7.35521 31.4193 8.8123 32.1666 10.3443C32.3432 10.7081 32.4965 11.0916 32.6731 11.4483C33.6932 11.5909 34.0963 11.6872 34.8382 12.4862C35.3697 12.2936 36.1669 11.9155 36.6663 11.6426ZM9.21883 36.818C9.62903 37.1853 10.0535 37.6811 10.4976 38.0842C12.0492 39.5038 13.8237 40.6577 15.7499 41.5013C16.2581 41.7207 17.1838 42.0934 17.717 42.2236C16.1476 40.697 14.8599 38.5622 14.0324 36.5379C13.2833 36.4844 12.759 36.34 12.1705 35.8246C12.0759 35.7425 11.935 35.5517 11.8334 35.5107C11.2092 35.7657 10.5974 36.0493 9.9982 36.3614C9.79846 36.4666 9.39183 36.6842 9.21883 36.818ZM32.5233 13.196C32.015 13.3191 31.7011 13.8292 31.8188 14.3392C31.9383 14.8493 32.4448 15.1668 32.9567 15.0526C33.4721 14.9367 33.7949 14.4231 33.6754 13.9076C33.5559 13.3922 33.0387 13.073 32.5233 13.196ZM28.9813 42.2308C29.3559 42.1237 29.6787 42.006 30.0461 41.8723C31.0341 41.4977 31.99 41.043 32.9049 40.5115C33.069 40.4152 33.3847 40.2386 33.5292 40.1263C33.2527 39.7036 32.9923 39.2702 32.7498 38.8279C32.6588 38.6603 32.2201 37.7471 32.1541 37.6829C31.9562 38.045 31.7814 38.4177 31.5745 38.7798C30.8807 39.9907 29.9961 41.2641 28.9813 42.2308ZM24.1963 4.98143C24.1785 5.80895 24.191 6.67393 24.191 7.50324L24.1981 11.821L24.2017 13.592C24.2017 13.8648 24.2159 14.2982 24.1963 14.5568C25.8853 14.5461 28.4374 14.2875 30.0978 13.9094C30.1138 13.8203 30.137 13.7168 30.1495 13.6294C30.3261 12.941 30.5436 12.5308 31.0912 12.0564C29.9926 9.4811 28.0896 6.41176 25.3627 5.31672C25.1433 5.22755 24.9186 5.15442 24.6903 5.09735C24.5477 5.06168 24.3283 5.02423 24.1963 4.98143ZM13.706 32.9514C13.1977 33.087 12.8945 33.6095 13.0301 34.1196C13.1674 34.6279 13.69 34.9293 14.1982 34.7937C14.7065 34.6564 15.0079 34.1338 14.8724 33.6256C14.7351 33.1173 14.2143 32.8159 13.706 32.9514ZM23.2761 23.0479C22.7553 23.0978 22.3718 23.5597 22.4182 24.0823C22.4646 24.6048 22.9247 24.9918 23.4473 24.9473C23.9734 24.9044 24.364 24.439 24.3176 23.9128C24.2694 23.3849 23.8022 22.9979 23.2761 23.0479ZM24.2213 26.5274C24.1999 27.1017 24.2142 27.7508 24.2159 28.3287L24.2177 31.728C26.752 31.8243 28.5266 32.0347 31.0056 32.5448C30.9966 32.3468 31.0163 32.1435 31.0287 31.9455C31.1839 30.9789 31.5798 30.706 32.4234 30.2655C32.5269 30.212 32.6945 30.1264 32.7855 30.0658C32.8907 29.6253 32.9495 29.1223 33.0137 28.6747C33.2028 27.3888 33.2599 26.1404 33.3151 24.8474L28.3054 24.8438L26.7788 24.8456C26.5291 24.8474 26.1314 24.8599 25.8942 24.8402L25.8763 24.8688C25.8014 24.9883 25.739 25.1827 25.6552 25.3253C25.418 25.7231 25.0827 26.053 24.6814 26.2831C24.5334 26.3669 24.364 26.4436 24.2213 26.5274ZM7.67792 10.4638C7.1732 10.6047 6.87537 11.1237 7.01091 11.6302C7.14824 12.1349 7.66544 12.4363 8.17194 12.3061C8.68558 12.1723 8.99055 11.6462 8.85322 11.1344C8.7159 10.6225 8.18799 10.3211 7.67792 10.4638ZM21.8529 33.4526C20.5384 33.5293 19.2561 33.622 17.9542 33.8431C17.5369 33.9145 17.0125 33.9912 16.6041 34.1053C16.4026 34.9667 16.2885 35.3127 15.6072 35.9423C16.399 37.7685 17.2533 39.2666 18.607 40.7291C19.7537 41.9062 20.8934 42.698 22.5413 43.0155L22.5359 33.4383C22.329 33.4419 22.0544 33.4401 21.8529 33.4526ZM24.2213 33.4365C24.2142 36.6111 24.2605 39.8338 24.2284 43.003C25.7123 42.723 26.8751 41.9436 27.9273 40.8914C28.1324 40.6845 28.3981 40.4134 28.5765 40.1869C29.6377 38.8868 30.417 37.5385 31.068 35.9904C31.1429 35.8121 31.3801 35.3413 31.3284 35.1914C31.2677 35.0167 31.2053 34.4263 31.1215 34.33C30.9645 34.2462 30.4028 34.1517 30.2048 34.1071C28.177 33.6594 26.2847 33.5203 24.2213 33.4365Z" fill="#0B72B2"/>
<path d="M40.4362 33.3669C40.6716 33.3687 40.8678 33.4187 41.0497 33.5756C41.2209 33.7219 41.3243 33.9323 41.3332 34.1588C41.3475 34.4656 41.212 34.676 41.0069 34.8865C40.2828 35.6337 39.5551 36.3756 38.8311 37.1229C38.6081 37.353 38.3745 37.6116 38.1212 37.8095C37.6968 38.0985 37.2759 37.8969 36.9549 37.5741C36.7747 37.3958 36.5803 37.2246 36.4002 37.0551C36.0738 36.7537 35.537 36.3614 35.4853 35.9262C35.4603 35.6997 35.5263 35.4732 35.6672 35.2966C35.9579 34.9275 36.4608 34.8793 36.8282 35.1611C37.1243 35.3894 37.3704 35.6694 37.6629 35.9048C37.8056 35.7764 38.0677 35.4893 38.2086 35.343L39.3393 34.1695C39.6728 33.8235 39.9404 33.4436 40.4362 33.3669Z" fill="#0B72B2"/>
<path d="M42.1447 16.8987C42.603 16.8381 43.0221 17.1573 43.0881 17.6139C43.1523 18.0705 42.8385 18.4932 42.3819 18.5627C41.92 18.6341 41.4902 18.313 41.4242 17.8511C41.3582 17.3874 41.6828 16.9612 42.1447 16.8987Z" fill="#0B72B2"/>
</svg>
