<svg width="48" height="48" viewBox="0 0 48 48" fill="none" xmlns="http://www.w3.org/2000/svg">
<path d="M7.14821 14.2641L7.14997 10.7468C7.14997 10.1529 7.12001 9.47094 7.17464 8.88942C7.28742 7.67351 8.37293 6.67788 9.59589 6.65849C10.2197 6.64968 10.8541 6.64968 11.4867 6.64968H14.9988H17.9116C18.4667 6.64968 19.0271 6.63735 19.5822 6.67083C21.8026 6.80123 22.2836 9.24186 22.8528 10.9477C23.4361 10.9688 24.0793 10.9565 24.6679 10.9565H27.8592L37.5001 10.9547H40.9205C41.8016 10.9547 42.9717 10.8437 43.7541 11.2402C44.2986 11.5133 44.7251 11.9768 44.9506 12.5442C45.0317 12.7504 45.0775 12.9565 45.1462 13.1662V39.1479L45.1392 39.1656C45.074 39.3435 45.0405 39.5427 44.9753 39.7136C44.7268 40.3356 44.2475 40.8396 43.6396 41.1216C43.3312 41.2626 42.9964 41.3419 42.658 41.3454C41.9655 41.3559 41.2677 41.3507 40.5769 41.3507L36.5802 41.3524H24.5392L11.8074 41.3507L7.66982 41.3524C7.04424 41.3524 6.41866 41.3524 5.79309 41.3524C5.33492 41.3524 4.94724 41.3489 4.51198 41.185C3.8723 40.9418 3.35598 40.4572 3.06875 39.8369C3.01059 39.703 2.89253 39.2484 2.85376 39.192V16.4034C2.90663 16.3135 2.95773 16.1179 2.99121 16.0087C3.14628 15.4976 3.46524 15.0712 3.88993 14.754C4.54898 14.2588 5.20452 14.257 5.98869 14.2588L7.14821 14.2641ZM39.3575 39.6924C39.1231 39.1708 39.1989 37.4862 39.1989 36.8236V32.8763V20.8159L39.2006 18.1233C39.2006 17.9312 39.2059 17.7338 39.2006 17.5435C39.1865 16.9743 39.3116 16.3347 38.7107 16.0122C38.568 15.9364 38.3442 15.9435 38.1874 15.9241C37.6006 15.9117 37.0049 15.917 36.4199 15.917L33.0929 15.9188H13.0956H7.58523L6.21601 15.917C6.02922 15.917 5.54109 15.9047 5.38602 15.9311C4.82212 15.9769 4.52255 16.3012 4.51022 16.8616C4.49964 17.3673 4.50493 17.8748 4.50669 18.3806V21.1912V29.8824V35.9866V37.8598C4.50669 38.14 4.49259 38.6351 4.51726 38.8942C4.54193 39.1321 4.66176 39.3488 4.84855 39.4951C5.01244 39.622 5.21509 39.6801 5.41774 39.6854C5.83009 39.6977 6.25302 39.6924 6.66713 39.6924L8.95974 39.6907H16.1265L38.5063 39.6924H39.3575ZM8.8029 14.2588L29.5068 14.2606H35.6304L37.4243 14.2588C37.8085 14.2588 38.279 14.2447 38.6526 14.2923C39.2059 14.3681 39.7205 14.6236 40.1134 15.0218C40.88 15.7954 40.8729 16.6307 40.8535 17.644C40.8483 17.9083 40.8536 18.185 40.8518 18.4493V22.1358V35.3134V37.3223C40.8518 37.7435 40.8571 38.1893 40.8518 38.6069C40.8412 39.7929 41.6783 39.7013 42.5523 39.6889C43.1691 39.6343 43.4827 39.3101 43.4915 38.6862C43.5004 38.0554 43.4968 37.4227 43.4951 36.7901V33.2111V22.2627V16.1761L43.4968 14.4174C43.4968 14.0808 43.5145 13.7125 43.4722 13.383C43.407 12.872 43.0228 12.6323 42.5453 12.6217C41.9091 12.6076 41.2782 12.6129 40.6439 12.6147H37.1318H27.29H24.0828C23.5242 12.6147 22.955 12.6129 22.3982 12.6147C21.5752 12.6147 21.4959 12.1389 21.2809 11.4834L20.8351 10.1353C20.6466 9.57315 20.4122 8.6762 19.836 8.4242C19.4624 8.26032 18.3786 8.30966 17.9487 8.30966H15.5926C13.6665 8.31142 11.6911 8.28675 9.77034 8.31319C9.31746 8.34843 8.87515 8.52465 8.82757 9.05154C8.77647 9.60311 8.80114 10.1952 8.80114 10.7538L8.8029 14.2588Z" fill="#0B72B2"/>
<path d="M21.5735 17.8943C27.0433 17.7427 31.6021 22.0513 31.7554 27.5211C31.9105 32.9909 27.6019 37.5497 22.1321 37.7065C16.6605 37.8634 12.0982 33.5513 11.9431 28.0797C11.7898 22.6081 16.1019 18.0476 21.5735 17.8943ZM21.8625 36.0606C26.416 36.0536 30.1042 32.3583 30.1024 27.8048C30.1024 23.2513 26.4142 19.5578 21.8589 19.5525C17.2966 19.5454 13.5943 23.2443 13.5943 27.8066C13.596 32.3706 17.2984 36.0677 21.8625 36.0606Z" fill="#0B72B2"/>
<path d="M21.7623 21.1983C21.7869 21.1983 21.8116 21.1983 21.8363 21.1983C22.7209 21.1947 23.5685 21.5454 24.1923 22.1728C25.3501 23.3358 25.1598 24.6416 25.1562 26.15C26.0338 26.143 26.8039 26.0214 26.8092 27.1879L26.8109 30.4515C26.8109 30.9026 26.8127 31.3537 26.8074 31.8049C26.8021 32.078 26.7704 32.3282 26.5554 32.5203C26.4409 32.6225 26.3316 32.7089 26.1712 32.73C25.6937 32.7899 25.1844 32.767 24.7016 32.767H21.9649H19.1436C18.6432 32.7688 18.081 32.7882 17.5876 32.7388C17.4061 32.7212 17.2845 32.656 17.1506 32.5344C16.9198 32.3353 16.8986 32.0798 16.8969 31.7925C16.8933 30.4691 16.8951 29.144 16.8951 27.8206C16.8951 27.4928 16.8828 27.1527 16.918 26.8285C16.9427 26.6663 17.0308 26.4884 17.1489 26.3773C17.4784 26.0672 18.1163 26.1465 18.5463 26.1518C18.5533 24.735 18.3577 23.4362 19.3798 22.3084C20.0406 21.5789 20.7913 21.2547 21.7623 21.1983ZM18.548 31.1053L25.1545 31.107C25.1562 30.0462 25.1316 28.8691 25.1615 27.817C23.6178 27.7959 22.053 27.8082 20.5093 27.81L19.274 27.8118C19.0784 27.8135 18.7331 27.8259 18.5533 27.7977C18.5251 28.8867 18.5621 30.0127 18.548 31.1053ZM20.201 26.1483L22.1094 26.15L23.5015 26.1518L23.5051 25.1368C23.5068 24.4618 23.528 23.831 23.0152 23.3199C22.6433 22.9481 22.1323 22.8301 21.6213 22.89C21.1772 22.9464 20.8265 23.1138 20.5446 23.4768C20.1692 23.9614 20.1992 24.5218 20.1992 25.0997C20.1992 25.4451 20.2045 25.8046 20.201 26.1483Z" fill="#0B72B2"/>
</svg>
