<svg width="65" height="34" viewBox="0 0 65 34" fill="none" xmlns="http://www.w3.org/2000/svg">
<rect x="0.45" y="0.45" width="63.6681" height="32.5309" rx="2.55" stroke="#C5BFBF" stroke-width="0.9"/>
<mask id="mask0_61_6506" style="mask-type:luminance" maskUnits="userSpaceOnUse" x="12" y="10" width="41" height="14">
<path d="M32.9711 14.3864C32.9483 16.1857 34.5746 17.1898 35.7998 17.7868C37.0585 18.3993 37.4813 18.7921 37.4765 19.3398C37.4669 20.1782 36.4724 20.5482 35.5415 20.5626C33.9176 20.5878 32.9735 20.1242 32.2228 19.7734L31.6378 22.5108C32.391 22.8579 33.7855 23.1606 35.2316 23.1738C38.626 23.1738 40.8469 21.4983 40.8589 18.9002C40.8721 15.6031 36.2982 15.4205 36.3295 13.9468C36.3403 13.4999 36.7667 13.0231 37.7011 12.9018C38.1636 12.8405 39.4404 12.7937 40.8877 13.4603L41.4559 10.8118C40.6775 10.5283 39.677 10.2569 38.4314 10.2569C35.2364 10.2569 32.9891 11.9553 32.9711 14.3864ZM46.915 10.4851C46.2952 10.4851 45.7727 10.8466 45.5397 11.4016L40.6908 22.9792H44.0827L44.7578 21.1139H48.9029L49.2944 22.9792H52.2841L49.6752 10.4851H46.915ZM47.3895 13.8603L48.3684 18.5519H45.6875L47.3895 13.8603ZM28.8584 10.4851L26.1847 22.9792H29.417L32.0895 10.4851H28.8584ZM24.0767 10.4851L20.7124 18.9891L19.3515 11.7583C19.1918 10.9511 18.5612 10.4851 17.8609 10.4851H12.3609L12.2841 10.8478C13.4131 11.0929 14.6959 11.488 15.4731 11.9108C15.9487 12.1691 16.0844 12.3949 16.2406 13.0087L18.8182 22.9792H22.2342L27.4711 10.4851H24.0767Z" fill="white"/>
</mask>
<g mask="url(#mask0_61_6506)">
<path d="M8.09534 11.799L47.5072 -2.71542L56.4732 21.6311L17.0618 36.1455" fill="url(#paint0_linear_61_6506)"/>
</g>
<defs>
<linearGradient id="paint0_linear_61_6506" x1="15.9075" y1="22.7807" x2="49.6189" y2="10.3653" gradientUnits="userSpaceOnUse">
<stop stop-color="#222357"/>
<stop offset="1" stop-color="#254AA5"/>
</linearGradient>
</defs>
</svg>
