<svg width="24" height="24" viewBox="0 0 24 24" fill="none" xmlns="http://www.w3.org/2000/svg">
<path d="M6.55494 2.42111C6.7031 2.47528 7.096 2.85056 7.2448 2.97848L9.3568 4.81179C9.69553 5.10614 10.2601 5.62762 10.6158 5.85017C10.4128 6.02639 10.0558 6.5322 9.96508 6.78804C9.5402 7.93215 9.35288 9.22115 9.00893 10.3829C8.60951 11.73 9.21321 12.363 9.3816 13.622C9.40836 13.8283 9.42663 14.0351 9.43642 14.2433C9.45274 14.6584 9.36137 15.2001 9.69096 15.503C9.984 15.7712 10.4154 15.6648 10.7463 15.5336C11.8617 15.1042 12.5294 13.9575 12.3518 12.7749C12.2402 11.9858 11.7436 11.4271 12.1136 10.5989C12.44 9.86923 13.0698 9.74066 13.7427 9.46459C14.441 9.17415 15.142 8.89025 15.8449 8.61156C15.8762 8.62984 15.9069 8.64942 15.9362 8.67096C16.2443 8.89743 16.6887 9.30142 16.974 9.57619C18.1905 10.7497 19.6583 12.3774 19.9788 14.0887C20.0552 14.4953 20.1119 15.2432 19.8574 15.5715C19.7301 15.7353 19.5578 15.9422 19.4253 16.1217L17.4132 13.6168C17.111 13.2402 16.799 12.8454 16.4897 12.4727C16.4381 12.4205 16.3481 12.3754 16.2776 12.3663C16.0093 12.3324 15.7835 12.643 15.9558 12.8786C16.2671 13.3029 16.6059 13.7095 16.9355 14.1206L19.0226 16.726C18.7883 17.4427 18.6813 18.1071 18.0541 18.5254C17.56 17.8525 16.7703 16.948 16.226 16.2849L15.1935 15.0272C14.9925 14.7824 14.6485 14.2884 14.364 14.1402C14.2289 14.0697 13.9476 14.2766 13.9535 14.4059C13.9678 14.7407 14.4769 15.2439 14.6936 15.5062C15.4507 16.4069 16.1823 17.3324 16.9381 18.235C17.1639 18.5052 17.3923 18.7819 17.609 19.0599C17.5078 19.5938 17.1123 19.9058 16.6463 20.1173C16.3898 19.9541 16.0159 19.6434 15.7783 19.4411C14.984 18.7773 14.2517 18.0425 13.5899 17.2456C13.3987 17.0119 12.684 15.9233 12.547 15.8574C12.4719 15.8208 12.3825 15.8078 12.3035 15.8391C12.1645 15.8946 12.1117 15.9996 12.0581 16.1321C12.0993 16.3769 12.3512 16.7202 12.4974 16.9349C13.4907 18.3955 14.6388 19.368 15.9578 20.486C15.7496 20.6439 15.5453 20.8052 15.3293 20.952C14.1747 21.7352 13.1768 20.5878 12.3897 19.864C10.9911 18.5789 9.7497 17.1627 8.56904 15.6805C8.27861 15.3176 7.99601 14.9489 7.72124 14.5742C7.56721 14.3654 7.2076 13.7832 6.97264 13.7258C6.60911 13.6194 6.48641 14.0038 6.64501 14.2525C7.09339 14.9534 7.70101 15.6498 8.18789 16.3168C8.15787 16.683 8.03843 17.1216 8.01233 17.5262C6.41593 17.1209 5.94601 16.4506 5.83833 14.8164C5.79656 14.2479 5.74108 13.6233 5.76849 13.0549C5.8207 12.0928 5.85268 11.3338 5.18632 10.563C4.20407 9.42543 3.18266 8.3133 2.21021 7.1705L5.52897 3.53259C5.87553 3.15731 6.19729 2.79052 6.55494 2.42111ZM17.8022 12.1809C18.0371 12.0243 18.0763 11.8148 17.9027 11.5975C17.6997 11.3436 16.6744 10.1127 16.3983 10.0644C16.3402 10.0546 16.2808 10.052 16.2221 10.0572C16.0779 10.1329 15.9121 10.3098 16.0028 10.5049C16.0537 10.6139 16.2051 10.7314 16.2789 10.8254C16.6796 11.2228 17.0484 11.6445 17.4204 12.068C17.5333 12.1966 17.6423 12.192 17.8022 12.1809Z" fill="#FFC193"/>
<path d="M16.6489 1.69012C16.7964 1.70579 18.0325 2.19332 18.2329 2.27229C19.4103 2.73699 20.6177 3.17361 21.7899 3.64549C21.3082 4.24201 20.8181 4.83136 20.3188 5.41353C20.093 5.68112 19.05 6.64836 19.6916 6.87222C20.0362 6.99231 20.6151 6.14516 20.839 5.88736C20.5191 7.13916 20.6817 7.92822 20.8213 9.17414C20.8468 9.5455 20.9584 10.0278 20.8677 10.3933C20.7032 11.0571 20.3508 11.7724 20.0766 12.4009C19.5049 11.2157 17.6644 9.07363 16.5856 8.31786C17.2174 8.04896 17.4197 7.8003 17.8263 7.25664C18.0612 6.9525 18.7681 6.24176 17.9516 6.14516C17.7558 6.12232 17.1038 7.05301 16.985 7.20703C16.6737 7.62604 16.1483 7.73308 15.6529 7.94323C14.5003 8.43272 13.1683 8.84781 12.1097 9.52136C11.908 9.64993 11.6854 9.94428 11.5719 10.1486C11.2919 10.642 11.2136 11.2248 11.3532 11.7743C11.4172 12.0165 11.521 12.2808 11.5954 12.5236C11.861 13.391 11.568 14.2916 10.7671 14.7531C10.5596 14.8725 10.3769 14.9214 10.1432 14.9854C10.1798 14.2296 10.0577 13.3081 9.8593 12.5751C9.77576 12.2664 9.57866 11.7795 9.56626 11.4741C9.53885 10.7738 9.87953 9.79547 10.044 9.08408C10.1536 8.60959 10.4278 7.43546 10.5962 7.06737C10.7404 6.75017 10.9479 6.46627 11.2051 6.23262C11.4929 5.96894 12.0379 5.65371 12.3903 5.43311L14.2301 4.28574C14.4011 4.17871 14.8782 3.90655 14.9944 3.78124C15.5772 3.1573 16.1039 2.34343 16.6489 1.69012ZM19.1557 5.39069C19.4149 5.31237 19.8175 4.80069 20.0283 4.60097C20.3005 4.34318 20.4239 3.9183 19.9017 3.86674C19.6844 3.9072 18.1017 5.25755 19.1557 5.39069Z" fill="#FFC193"/>
<path d="M8.76769 17.0798C8.90279 17.1216 9.5685 17.9857 9.73036 18.1267C9.80215 18.1893 10.0684 18.5072 10.1383 18.5927C10.0704 19.246 10.0019 19.819 9.68467 20.4031C9.41121 20.7484 9.20432 20.8528 8.8323 20.5572C8.72918 20.3568 8.70046 20.054 8.67697 19.8308C8.5732 18.9138 8.60387 17.9876 8.76769 17.0798Z" fill="#FFC193"/>
<path d="M10.7502 19.2708C10.8461 19.3034 11.4113 19.8849 11.5288 20.0024C11.4981 20.5434 11.3173 21.7835 10.9564 22.2136C10.8814 22.271 10.7208 22.3258 10.6347 22.3056C10.2313 22.192 10.2522 21.5949 10.2463 21.2738C10.2385 20.7764 10.4362 20.4605 10.5955 20.0063C10.6758 19.7759 10.7182 19.5142 10.7502 19.2708Z" fill="#FFC193"/>
<path d="M12.1873 20.644C12.3655 20.7203 12.8778 21.217 13.0469 21.3775C13.1382 21.4643 12.7773 21.7195 12.701 21.7678C12.4719 21.8775 12.1475 21.8514 11.8962 21.8422C11.9426 21.666 12.154 20.7203 12.1873 20.644Z" fill="#FFC193"/>
</svg>
