<svg width="30" height="30" viewBox="0 0 30 30" fill="none" xmlns="http://www.w3.org/2000/svg">
<path d="M22.8685 21.5572V17.6229H18.9343V15.0001H22.8685V11.0658H25.4914V15.0001H29.4257V17.6229H25.4914V21.5572H22.8685ZM13.6886 26.8029L9.52481 23.0653C7.9511 21.6451 6.60165 20.3769 5.47514 19.2622C4.34862 18.1475 3.42014 17.0984 2.68836 16.1148C1.95659 15.1312 1.42153 14.1804 1.08187 13.2624C0.742211 12.3444 0.573037 11.3832 0.574348 10.3773C0.574348 8.32231 1.26285 6.61221 2.63984 5.24702C4.01683 3.88183 5.73218 3.19858 7.78718 3.19727C8.92418 3.19727 10.0061 3.43201 11.0329 3.90281C12.0598 4.37361 12.945 5.04506 13.6886 5.91847C14.4322 5.04375 15.3174 4.3723 16.3442 3.90281C17.3711 3.43332 18.453 3.19858 19.59 3.19727C21.4483 3.19727 23.0049 3.75987 24.2626 4.88638C25.5202 6.01289 26.3005 7.32956 26.6061 8.83639C26.2127 8.68295 25.8192 8.56886 25.4258 8.49279C25.0324 8.41673 24.6495 8.3787 24.2783 8.37739C22.0712 8.37739 20.1906 9.1485 18.6392 10.6894C17.0878 12.2303 16.3114 14.1044 16.3114 16.3115C16.3114 17.4485 16.5409 18.5252 16.9999 19.5415C17.4589 20.5579 18.1041 21.4274 18.9343 22.1473C18.5186 22.5185 17.9782 22.9945 17.312 23.5742C16.6458 24.1538 16.0714 24.6613 15.5901 25.098L13.6886 26.8029Z" fill="#FF6B6B"/>
</svg>
