<svg width="32" height="32" viewBox="0 0 32 32" fill="none" xmlns="http://www.w3.org/2000/svg">
<path d="M15.3538 23.1805C15.3538 23.1805 15.8386 25.2416 18.5213 26.7749C20.2122 27.7419 23.7693 28.7434 25.5845 27.4021C27.6511 25.8743 28.0973 24.3616 28.1953 23.8049C28.2934 23.2468 27.9992 21.7121 27.9992 21.7121L24.5982 20.502C24.5982 20.502 18.9744 21.8751 18.8764 21.8751C18.781 21.8778 15.3538 23.1805 15.3538 23.1805Z" fill="#C16262"/>
<path d="M28.0103 24.468C28.0849 24.2732 28.1319 24.1074 28.1651 23.9707C27.5642 23.809 26.8679 23.5507 26.2352 23.2813C26.2877 23.2579 26.3388 23.2344 26.3886 23.2081C26.6994 23.0507 27.0047 22.8669 27.2257 22.5976C27.4633 22.3075 27.5724 21.9317 27.56 21.556L24.5983 20.502C24.5983 20.502 18.9759 21.8751 18.8779 21.8751C18.7784 21.8751 15.3553 23.1777 15.3525 23.1805C15.3083 23.1957 15.6702 23.9569 15.6937 23.9955C16.0225 24.6103 16.7795 25.464 17.2975 25.9281C17.2975 25.9281 17.0585 25.3797 17.5103 25.1739C17.7092 25.0841 17.9495 25.1283 18.154 25.2084C18.6679 25.4129 19.3102 26.2003 20.9154 27.0443C22.0067 27.619 23.1271 28.0596 23.4904 28.0444C23.9753 28.0237 24.8524 27.7875 24.8524 27.7875C24.8524 27.7875 23.7335 27.6811 21.9363 26.8454C21.392 26.5912 19.3793 25.6021 19.1887 25.0496C19.1334 24.8948 18.94 24.6199 19.2923 24.4652C19.831 24.2235 21.2995 25.4902 22.5607 26.0704C24.0623 26.7597 25.6993 27.3109 25.6993 27.3109C25.8761 27.1769 26.0418 27.0415 26.1966 26.9075C25.3608 26.692 24.5416 26.3964 23.7515 26.0525C22.9641 25.7112 22.1932 25.2678 21.4804 24.7802C21.0273 24.4694 20.7137 23.9472 21.2 23.8795C21.9985 23.7676 23.029 24.5274 24.0623 25.0634C24.9947 25.5469 26.1137 25.7706 27.1635 25.9019C27.2975 25.7334 27.5186 25.4129 27.5186 25.4129C27.5186 25.4129 27.1221 25.3452 25.9507 25.0869C25.4382 24.9722 24.9409 24.8244 24.485 24.5688C24.3662 24.5011 23.949 24.0743 24.5181 23.8767C25.0887 23.6806 25.6302 24.0715 26.4894 24.2704C27.3528 24.4749 28.0021 24.4859 28.0103 24.468Z" fill="#6C2626"/>
<path d="M29.9799 13.7513C29.9799 13.7513 29.915 11.6543 28.7891 9.79633C27.818 8.19665 26.4325 8.03365 26.4325 8.03365C26.4325 8.03365 26.1576 7.02522 25.1933 6.25301C24.2305 5.48219 22.2482 4.83707 22.2482 4.83707C18.2808 3.04952 15.8067 4.51244 15.8067 4.51244C15.8067 4.51244 9.92185 3.11445 5.21124 7.11087C5.21124 7.11087 2.83245 8.22981 1.86132 10.3434C1.32533 11.5148 1.55603 13.4225 1.55603 13.4225C-0.0933728 15.3399 0.359729 18.3749 2.21082 19.8958C3.09492 20.6183 4.18485 21.0976 5.32175 21.2192C5.76795 21.2662 5.99312 21.1598 6.17961 21.6129C6.45451 22.2815 6.66863 22.9681 7.22119 23.4474C7.78342 23.9337 8.43821 24.3122 9.13444 24.5705C10.4868 25.0706 12.0147 25.1258 13.3795 24.6354C13.834 24.4724 15.2859 24.4572 15.2859 24.4572C15.2859 24.4572 16.0553 25.0913 18.7864 24.9905C21.516 24.8896 22.6681 23.7113 23.2925 23.4902C23.7719 23.3231 24.3603 22.9515 24.8825 23.0482C25.1809 23.1021 25.4475 23.2554 25.7196 23.3853C26.4808 23.7499 27.3359 23.9489 28.1744 23.8715C31.3475 23.5787 31.6818 19.9248 31.3682 17.412C31.0533 14.8758 29.9799 13.7513 29.9799 13.7513Z" fill="#FF9F9F"/>
<path d="M6.54436 18.7119C6.47944 18.8597 5.83156 20.2742 5.28728 20.5022C4.34792 20.8986 2.89192 19.9551 2.33521 19.6968C2.22608 19.6443 2.15424 19.7742 2.15424 19.7742C2.06307 19.8916 2.29929 20.1319 2.41809 20.2176C2.87948 20.5491 3.98461 21.3006 4.80655 21.5051C5.86609 21.7689 6.6604 21.5051 6.6604 21.5051C6.6604 21.5051 6.9505 19.3832 6.97398 19.2879C6.99747 19.1912 6.97398 18.3472 6.97398 18.3472L6.54436 18.7119Z" fill="#5F1919"/>
<path d="M15.8 24.6989C15.8 24.6989 15.2654 24.616 14.4476 24.6284C13.6284 24.6409 12.4763 24.8771 12.4763 24.8771C12.4763 24.8771 13.29 24.5069 13.6519 24.1822C14.0152 23.8562 14.087 23.0633 14.0276 22.5922C13.9655 22.1101 13.8025 21.867 12.5689 21.6114L16.2628 21.4056C15.025 22.2303 14.7998 23.9267 15.8 24.6989ZM26.9811 16.905C26.3388 16.9906 25.7144 16.8677 25.1604 16.5389C24.9187 16.3938 24.8938 16.0526 25.1052 15.8689C25.2488 15.7473 25.4533 15.7391 25.6108 15.8427C26.5073 16.4311 27.419 16.0443 27.9053 15.7418C29.1486 14.9668 29.766 13.5937 29.6832 12.1543C29.9318 12.595 30.1128 13.0812 30.157 13.5841C30.2675 14.8038 29.3903 15.7543 28.4081 16.369C27.9398 16.6632 27.4549 16.8428 26.9811 16.905Z" fill="#733D39"/>
<path d="M29.7565 18.1192C29.4775 18.1192 29.175 18.0598 28.8862 17.8844C28.592 17.702 28.4262 17.4589 28.2784 17.1591C28.1569 16.9132 27.9856 16.7599 27.672 16.7834C27.4523 16.8014 27.2396 16.9257 27.02 16.8939C27.3114 16.3759 27.7811 15.9615 28.3323 15.7363C28.5865 15.6327 28.871 15.5678 29.1308 15.6493C29.1584 15.8302 29.0368 15.9988 28.9677 16.1687C28.8448 16.4726 28.8945 16.8345 29.0921 17.0942C29.2261 17.2697 29.483 17.4589 29.7179 17.4437C29.874 17.4327 29.9831 17.3014 30.135 17.2876C30.6089 17.2545 30.729 17.9493 30.2621 18.0571C30.1116 18.0944 29.9416 18.1192 29.7565 18.1192ZM25.1979 8.51566C25.01 8.53915 24.818 8.51842 24.7199 8.35266C24.5928 8.13716 24.6992 7.86778 24.934 7.7849C25.5847 7.55696 26.3154 7.59841 26.9495 7.85259C27.5035 8.07499 27.8378 8.4535 28.0574 8.70906C28.2784 8.966 28.429 9.47436 28.429 9.47436C27.8764 8.99501 27.5629 8.24076 25.1979 8.51566ZM22.7169 8.01559C22.1574 7.99211 22.7017 8.01559 22.6961 8.01559C21.8107 8.01559 20.7511 7.7103 20.6088 6.69911C20.3519 4.86045 23.0664 5.57602 24.061 5.71278C24.061 5.71278 23.2763 4.90742 22.2486 4.83697C21.7692 4.80658 21.2747 4.81901 20.8078 4.94334C20.2953 5.08148 20.0369 5.46689 19.57 5.65891C19.2178 5.80119 18.8158 5.74594 18.4538 5.63819C18.1195 5.53734 17.0337 4.95439 17.0034 5.67963C16.9951 5.87855 17.1374 6.04985 17.3321 6.07747C18.1195 6.18937 19.2081 6.54163 19.6115 7.29311C19.798 7.63709 19.8422 8.05427 19.733 8.43001C19.6819 8.61374 19.6059 8.84996 19.7593 8.966C19.8753 9.05717 20.0549 8.99777 20.1613 8.89417C20.2662 8.79056 20.3339 8.64966 20.4403 8.54605C20.7718 8.22004 21.073 8.4535 21.4253 8.57783C21.8314 8.72287 22.261 8.79194 22.6934 8.79194C22.7044 8.79194 21.935 8.71735 22.7224 8.79194C23.507 8.86516 23.2736 8.03908 22.7169 8.01559ZM10.2662 7.17155C9.83661 6.78199 9.63216 5.26935 10.8671 4.49023C10.8671 4.49023 10.1944 4.51372 9.63216 4.95439C9.15281 5.33013 9.05611 5.97939 9.17077 6.66595C9.19978 6.84277 9.06164 7.00302 8.88343 6.99197C8.24108 6.95881 7.60149 7.07485 7.04892 7.32903C6.83895 7.42711 6.76711 7.69234 6.89144 7.8885C6.94255 7.96862 7.02129 8.02664 7.11247 8.05151C7.20364 8.07775 7.30034 8.06947 7.38599 8.02802C8.00486 7.74345 8.90692 7.59012 9.6294 7.77246C10.3615 7.95619 10.8782 8.16893 11.4529 9.16492C11.5509 9.33346 11.7637 9.39286 11.9239 9.28511C12.0482 9.19946 12.1007 9.03922 12.0482 8.89831C11.5565 7.54177 10.8464 7.69372 10.2662 7.17155ZM11.87 11.8366C11.8562 11.7868 11.8327 11.7399 11.7996 11.6998C11.7678 11.6597 11.7291 11.6252 11.6836 11.6003C11.638 11.5755 11.5882 11.5603 11.5371 11.5548C11.486 11.5492 11.4349 11.5548 11.3852 11.5686C10.7635 11.7551 9.86423 11.7012 9.46363 11.2964C8.92764 10.0559 8.52012 9.83629 7.87086 9.61664C7.61116 9.52823 7.35283 9.75064 7.3777 10.02C7.39427 10.1734 7.49512 10.3018 7.64293 10.346C8.10294 10.4842 8.56709 11.103 8.80608 11.7343C9.02296 12.3076 9.0492 13.0605 8.55742 13.5992C8.43033 13.7402 8.40409 13.9418 8.51598 14.0952L8.52012 14.1021C8.66241 14.2996 8.94836 14.3148 9.11413 14.1366C9.28957 13.9446 9.4733 13.6959 9.55204 13.4445C9.63216 13.1779 9.60867 12.9389 9.83937 12.7276C10.0949 12.4886 10.3394 12.5383 10.6475 12.5383C10.9625 12.5383 11.3023 12.4237 11.6007 12.3173C11.8024 12.2524 11.9322 12.0383 11.87 11.8366ZM3.92832 15.3481C3.83991 15.3481 3.75426 15.3454 3.66447 15.3384C2.46541 15.2348 1.83548 14.3715 1.55091 13.4266C1.26496 12.4803 1.50671 11.4525 1.50671 11.4525C1.86864 14.2499 3.3274 14.5276 3.73078 14.5635C4.49608 14.6312 5.22546 14.2996 5.42577 13.794C5.74073 12.997 4.77236 12.2137 4.29854 11.7302C3.98496 11.4083 3.86892 10.8627 3.9518 10.4289C3.99324 10.2065 4.09132 9.98963 4.27505 9.84734C4.45602 9.70644 4.91188 9.57935 4.84972 9.97857C4.83176 10.1029 4.75164 10.2065 4.70329 10.3212C4.34827 11.1293 5.60949 11.878 5.95346 12.4762C6.23665 12.9597 6.36098 13.5454 6.14824 14.0786C5.8471 14.8411 4.93813 15.3481 3.92832 15.3481Z" fill="#733D39"/>
<path d="M3.65179 15.1396C3.86038 15.1658 4.07588 15.1299 4.26514 15.036C4.4461 14.9489 4.60911 14.808 4.80941 14.7928C4.90473 14.7873 5.02353 14.8453 5.00833 14.9379C5.00281 14.9711 5.22383 15.0332 5.19483 15.0526C4.67956 15.373 3.37413 15.6921 4.27481 18.0046C4.34802 18.1884 4.29138 18.3956 4.12285 18.4964C3.92531 18.6166 3.66422 18.5379 3.57029 18.3279C3.3244 17.7877 3.2056 17.1882 3.21388 16.5928C3.22079 16.0126 3.28019 15.5057 2.89202 15.0208C2.85057 14.9711 2.80637 14.902 2.8409 14.8467C2.86162 14.8136 2.90307 14.8011 2.94175 14.7901C3.10199 14.7486 3.27328 14.7044 3.43629 14.739C3.50812 14.7542 4.31901 15.2017 4.3273 15.1866M26.7572 18.8804C26.2213 18.8155 25.6701 18.8542 25.1617 19.0462C24.7321 19.2092 24.4116 19.538 23.9171 19.4289C23.6214 19.3639 23.359 19.1761 23.1753 18.9343C22.7871 18.4301 22.8396 17.8983 22.9846 17.3236C23.1297 16.7531 23.1131 16.0928 22.8575 15.5568C22.7898 15.4145 22.6752 15.2874 22.5288 15.2363C22.3782 15.1838 22.1945 15.228 22.106 15.3606C22.0176 15.4946 22.0522 15.6742 22.0826 15.8317C22.1834 16.3165 22.3133 16.8387 22.1682 17.3125C22.0314 17.7643 21.8422 18.1676 21.5176 18.5144C20.9042 19.1761 20.0132 19.4786 19.2438 19.2838C18.676 19.1415 18.2188 18.7451 17.9093 18.14C17.8016 17.6648 17.6869 17.0487 17.0998 16.981C16.9796 16.9686 16.8512 16.9865 16.76 17.0625C16.6688 17.1399 16.6274 17.2642 16.6274 17.383C16.6274 17.6814 16.9133 17.9038 16.9644 18.1966C17.1274 19.0932 16.5321 20.1182 15.6286 20.6155C14.9282 21.0009 13.0095 21.2192 11.2896 19.777C11.2164 19.7148 11.2164 19.5946 11.1473 19.5297C11.1004 19.4883 11.041 19.4634 10.9816 19.4523C10.7246 19.404 10.458 19.6471 10.4815 19.9054C10.5022 20.1417 10.697 20.3226 10.8697 20.4829C11.32 20.9028 11.1183 21.0714 11.041 21.2965C11.023 21.3532 10.9885 21.4057 10.9843 21.4651C10.9677 21.6308 11.2219 21.577 11.3877 21.5631C11.5535 21.5507 11.704 21.4595 11.8643 21.4139C12.066 21.3559 12.9915 21.6958 13.1725 21.7344C13.6988 21.8491 13.8797 21.9002 14.3328 21.9002C14.9006 21.9002 15.3813 22.1931 15.7958 21.8049C16.387 21.2523 16.8456 20.8932 17.3692 20.7136C17.6275 20.6265 17.9383 20.5823 18.1566 20.7509C18.3113 20.8697 18.3818 21.0686 18.4356 21.2551C18.5475 21.6391 18.6304 22.0301 18.7934 22.3947C18.9564 22.7581 19.2148 23.0965 19.5781 23.2595C19.6913 23.312 19.8212 23.3452 19.9455 23.3175C20.0698 23.2885 20.179 23.1821 20.1817 23.0578C20.1845 22.9722 20.1403 22.8948 20.0933 22.8244C19.9151 22.5398 19.7024 22.2759 19.5449 21.9803C19.386 21.6847 19.2824 21.3407 19.3474 21.012C19.4662 20.4028 20.1707 20.2328 20.6763 20.0795C21.1612 19.9317 21.6446 19.654 22.1654 19.683C22.4915 19.701 23.1835 20.0823 23.3908 20.3364C23.4322 20.3876 23.4502 20.4525 23.4612 20.5202C23.5482 21.0658 23.1476 21.559 22.7664 21.9568C22.6987 22.0273 22.6296 22.1337 22.6862 22.2138C22.707 22.2428 22.7373 22.258 22.7691 22.2677C23.044 22.374 23.3645 22.2815 23.598 22.1019C24.1105 21.7137 24.29 21.0479 24.7266 20.5865C25.0871 20.2121 25.572 19.9648 26.061 19.8046C27.8126 19.2299 27.9024 20.6072 28.216 21.3794C28.5296 22.1516 28.9937 21.6184 28.9979 21.4057C29.0159 20.3986 28.3721 19.0725 26.7572 18.8804Z" fill="#733D39"/>
<path d="M10.3611 22.9691C10.0931 22.9539 9.91766 22.6776 10.0268 22.4303C10.1995 22.0366 10.5269 21.6457 10.9482 21.3459C11.5905 20.8901 12.2329 20.8072 12.878 20.9909L13.0106 21.6485C12.5934 21.5297 11.8475 21.6623 11.3985 21.98C11.0753 22.2107 10.8529 22.4925 10.7437 22.7287C10.6733 22.8821 10.5269 22.9801 10.3611 22.9691Z" fill="#733D39"/>
<path d="M27.1345 11.0327C27.0847 10.7039 26.8292 10.3973 26.4976 10.3876C26.3346 10.3821 26.1523 10.4677 26.1081 10.6252C26.0873 10.6956 26.0984 10.773 26.1012 10.8462C26.1219 11.385 25.6895 11.9058 25.1549 11.9804C24.5526 12.066 24.1064 11.693 23.6505 11.3822C23.2154 11.0866 22.6711 10.8877 22.1697 10.7454C20.8297 10.3696 19.6776 10.6211 18.799 11.7262C18.473 12.1378 18.1622 12.5896 17.7036 12.8424C16.9839 13.2416 15.4629 13.2706 15.0153 12.4887C14.4269 11.4651 14.4061 8.321 16.2918 8.67741C16.8747 8.7893 17.3071 9.2949 17.3485 9.67064C17.3748 9.90824 17.227 10.1155 17.0377 10.2757C16.9687 10.3365 16.9217 10.418 16.9079 10.5092C16.8941 10.6003 16.912 10.6929 16.9604 10.7702C17.0847 10.9761 17.3637 11.0189 17.5461 10.8669C18.0766 10.4111 18.1594 9.93173 18.1208 9.58499C17.9992 8.47849 16.7532 7.85409 15.7641 7.82646C15.5458 7.81817 15.2944 7.74772 15.2115 7.54327C15.1756 7.45486 15.1811 7.35954 15.1728 7.26699C15.1217 6.60529 14.4448 5.88834 13.9171 5.54713C13.7223 5.42004 13.4613 5.50293 13.3604 5.71014C13.2748 5.88834 13.3425 6.09832 13.5082 6.20745C14.0097 6.53899 14.3164 7.01972 14.4172 7.64135C14.5305 8.35692 14.3758 9.08769 14.0746 9.73695C13.924 10.0643 13.7403 10.3793 13.5262 10.6694C13.3425 10.9208 13.08 11.0893 12.9612 11.3905C12.9488 11.4237 12.9349 11.4596 12.946 11.4941C12.964 11.5576 13.0441 11.577 13.1118 11.5784C13.3024 11.5867 13.4944 11.5452 13.6657 11.4651C13.5676 11.8464 13.8204 12.2166 14.0304 12.5481C14.2404 12.8797 14.4089 13.33 14.1713 13.6436C14.1603 13.656 14.1478 13.6698 14.1368 13.685C13.627 13.8991 13.1352 14.192 12.7512 14.5967C12.0909 15.2957 11.6019 15.9257 10.6349 16.2365C9.77981 16.5128 8.8294 16.4796 7.99779 16.1453C7.83754 16.0804 7.67454 16.0058 7.50048 16.0113C7.3278 16.0155 7.14408 16.137 7.13855 16.3111C7.13579 16.3995 7.17999 16.4796 7.21867 16.5597C7.65934 17.4535 6.85122 18.0337 6.50586 18.81C6.18261 19.5353 6.01685 20.331 6.01685 21.1267C6.01685 21.9942 6.31523 22.6255 7.38997 23.7292C7.87622 24.2266 8.51305 24.5222 9.05042 24.6949C9.21895 24.7501 9.32394 24.5194 9.17475 24.4241C8.06824 23.7196 7.89418 23.0952 7.5585 22.4528C6.75037 20.9056 7.6331 18.549 9.15403 17.3527C9.74113 16.8913 10.5755 16.9272 11.2855 17.1717C12.0467 17.4328 12.497 17.9923 13.0703 18.513C13.225 18.6553 13.4253 18.8087 13.6243 18.7465C13.8052 18.6912 13.8964 18.4771 13.8757 18.2906C13.855 18.1041 13.7486 17.9384 13.6478 17.7795C13.5359 17.6068 13.4253 17.4328 13.3107 17.2587C13.1629 17.0308 13.0109 16.7932 12.964 16.5238C12.9115 16.231 13.1712 15.2184 15.6315 14.5912C16.0486 14.4849 16.4727 14.5318 16.8927 14.6506C17.4577 14.8109 17.8611 15.2253 18.3363 15.5499C18.4675 15.6397 18.6125 15.7364 18.7728 15.7419C18.9758 15.7488 19.172 15.5969 19.2135 15.3966C19.2701 15.1217 19.0629 14.8758 18.9261 14.6327C18.4703 13.8301 19.0007 12.7581 19.6721 12.2442C20.273 11.7883 21.0632 11.6198 21.8119 11.6986C22.9515 11.8146 24.076 12.5757 24.3371 13.6905C24.3965 13.9406 24.4697 14.2652 24.7253 14.2984C25.0098 14.337 25.1632 13.9572 25.1342 13.6698C25.1065 13.3811 25.0126 13.0579 25.1922 12.8299C25.2751 12.7263 25.3994 12.6669 25.521 12.613C25.8705 12.4597 26.2352 12.3326 26.5487 12.113C26.8623 11.8947 27.1234 11.5604 27.1469 11.1805C27.1441 11.1363 27.1427 11.0838 27.1345 11.0327Z" fill="#5F1919"/>
<path d="M13.109 11.5769C13.2997 11.5852 13.4917 11.5437 13.663 11.4636C13.5649 11.8449 13.8177 12.2151 14.0277 12.5467C14.181 12.7898 14.3937 13.2222 14.163 13.6656C14.163 13.6656 14.5098 13.4708 15.072 13.3078C15.6342 13.1448 16.1827 13.1089 16.1827 13.1089C15.7848 13.026 15.1936 12.7995 15.0126 12.4873C14.4241 11.4636 14.4034 8.31954 16.289 8.67594C16.872 8.78784 17.3044 9.29343 17.3458 9.66918C17.372 9.90678 17.2242 10.114 17.035 10.2742C16.9659 10.335 16.9189 10.4165 16.9051 10.5077C16.8913 10.5989 16.9093 10.6914 16.9576 10.7688C17.082 10.9746 17.361 11.0174 17.5433 10.8655C18.0738 10.4096 18.1567 9.93026 18.118 9.58353C17.9964 8.47702 16.7504 7.85262 15.7613 7.82499C15.5431 7.81671 15.2916 7.74625 15.2088 7.54181C15.1728 7.4534 15.1784 7.35808 15.1701 7.26552C15.119 6.60383 14.4421 5.88688 13.9144 5.54567C13.7196 5.41858 13.4585 5.50146 13.3577 5.70868C13.272 5.88688 13.3397 6.09685 13.5055 6.20598C14.0069 6.53752 14.3136 7.01825 14.4144 7.63989C14.5277 8.35546 14.373 9.08622 14.0719 9.73548C13.9213 10.0629 13.7376 10.3778 13.5234 10.6679C13.3397 10.9194 13.0772 11.0879 12.9584 11.389C12.946 11.4222 12.9322 11.4581 12.9432 11.4926C12.9612 11.5562 13.0413 11.5755 13.109 11.5769Z" fill="#733D39"/>
</svg>
