<svg width="30" height="30" viewBox="0 0 30 30" fill="none" xmlns="http://www.w3.org/2000/svg">
<g clip-path="url(#clip0_83_7140)">
<path d="M13.9933 0.388672L9.76502 0.611307L9.83318 1.54274L9.85771 1.53638C10.2148 1.46005 10.5538 1.42006 10.8682 1.41007C11.8178 1.38099 12.5875 1.62271 13.2227 1.96529C13.4626 2.09615 13.6843 2.23791 13.9006 2.38148L13.9933 0.388672ZM11.0472 2.5078C11.0036 2.5078 10.9545 2.5078 10.9118 2.51416C10.671 2.52506 10.412 2.55959 10.1231 2.61866C8.41558 3.20478 7.28151 3.90722 6.64086 4.59693C5.99386 5.28574 5.82756 5.92729 5.95024 6.56884C6.18469 7.75199 7.68225 9.10779 10.1594 9.95199V7.90011C9.85135 7.73291 9.61145 7.53572 9.49423 7.19131C9.41426 6.96322 9.43879 6.7106 9.50604 6.51886C9.57419 6.32167 9.6787 6.1681 9.80228 6.0018L10.0794 5.6256L10.4984 5.84096C13.4626 7.34489 15.5272 7.72745 17.1729 7.04319C17.9616 6.71605 18.1834 6.408 18.2079 6.30986C18.227 6.21081 18.177 6.0327 17.8571 5.75554C17.2283 5.18669 15.8107 4.59784 14.9547 4.38702L14.8929 4.37066L14.8311 4.33795C13.9869 3.89268 13.3708 3.30928 12.6929 2.94034C12.2122 2.68136 11.7188 2.50234 11.0472 2.5078ZM14.116 4.79957C14.245 4.80048 14.3695 4.85137 14.4604 4.94224C14.5521 5.03311 14.603 5.1567 14.603 5.28574C14.603 5.34935 14.5912 5.41296 14.5667 5.47202C14.5421 5.53109 14.5067 5.5847 14.4613 5.63014C14.4158 5.67558 14.3622 5.71192 14.3031 5.73646C14.2441 5.761 14.1805 5.77372 14.116 5.77372C14.0523 5.77372 13.9887 5.761 13.9288 5.73646C13.8697 5.71192 13.8161 5.67558 13.7706 5.63014C13.7261 5.5847 13.6898 5.53109 13.6652 5.47202C13.6416 5.41296 13.6289 5.34935 13.6289 5.28574C13.6289 5.1567 13.6807 5.03311 13.7715 4.94224C13.8633 4.85137 13.9869 4.80048 14.116 4.79957ZM23.2249 6.8151C22.467 6.83328 21.7455 7.03047 21.1912 7.33307C20.5433 7.24674 19.8718 7.07409 19.1757 6.85781C19.0094 7.20313 18.7077 7.48664 18.276 7.73927C19.1321 8.02279 20.0071 8.27541 20.8886 8.41081C21.0549 9.19957 21.382 9.98288 21.98 10.6971L22.8296 9.98288C22.3553 9.41585 22.0972 8.83063 21.9672 8.19544C22.4852 7.99189 23.2431 7.85649 23.8901 7.98008L24.0873 6.88326C23.7974 6.83328 23.5084 6.80874 23.2249 6.8151ZM11.2689 7.42485V10.9807C11.6815 10.8698 12.0577 10.7653 12.354 10.6726C12.5757 10.599 12.7293 10.5372 12.8219 10.4881L12.8401 8.02279C12.3349 7.86285 11.8178 7.66566 11.2689 7.42485ZM13.9433 9.0151L13.9315 10.7035V10.6853C13.9378 10.907 13.8261 11.0979 13.7279 11.2087C13.6234 11.3196 13.518 11.3814 13.4135 11.4432C13.1981 11.5604 12.9637 11.6404 12.6865 11.7267C12.1377 11.8994 11.448 12.072 10.7573 12.281C10.0676 12.4909 9.377 12.7499 8.87176 13.0453C8.37287 13.3479 8.09481 13.6614 8.03392 13.9821C7.84218 14.9926 8.02756 15.5597 8.49555 16.0894C8.81633 16.4657 9.33429 16.811 9.97494 17.1499L9.82682 15.8368L10.203 15.6769C11.3307 15.178 12.563 14.8263 13.6107 14.3765C14.6648 13.9331 15.5027 13.4033 15.9652 12.6391C16.2542 12.152 16.3041 11.8003 16.2423 11.4677C16.1869 11.1415 15.9961 10.808 15.6817 10.4572C15.25 9.97652 14.603 9.50217 13.9433 9.0151ZM12.8901 15.8495C12.2485 16.084 11.6079 16.2994 11.0227 16.5393L11.2262 18.4012H11.2317C11.7869 18.2222 12.304 18.0677 12.6429 17.9323C12.7847 17.8705 12.871 17.8215 12.9264 17.7842L12.8901 15.8495ZM14.0178 16.7982L14.036 17.9205V17.9323C14.036 18.2595 13.8261 18.4994 13.648 18.6411C13.4689 18.7765 13.2781 18.8692 13.0628 18.9555C12.6311 19.1346 12.1131 19.2818 11.577 19.4544C10.5229 19.7934 9.4815 20.2804 9.17981 20.7675C8.84086 21.7407 8.96445 22.2033 9.3034 22.6158C9.5124 22.8748 9.85771 23.1093 10.2766 23.3428L10.1412 22.1906L10.591 22.0615C10.591 22.0615 11.8178 21.698 13.0682 21.0874C13.697 20.7793 14.3259 20.4158 14.7875 20.0215C15.2564 19.6334 15.5272 19.2327 15.5763 18.9065C15.6017 18.752 15.5272 18.493 15.33 18.1731C15.1264 17.8587 14.8129 17.5134 14.4794 17.2054C14.3259 17.0572 14.165 16.9218 14.0178 16.7982ZM12.791 22.4377C12.1813 22.6958 11.6942 22.8621 11.368 22.9675L11.398 23.3992L11.6143 25.2293L11.5279 25.1857L11.5343 25.2602L11.6079 25.2411C11.9714 25.1548 12.2794 25.063 12.4403 24.9767C12.6066 24.8904 12.5757 24.8958 12.5757 24.8904L12.7792 22.5977L12.791 22.4377ZM13.8143 23.5218L13.6843 24.9885C13.6416 25.451 13.2845 25.79 12.951 25.9626C12.612 26.1353 12.2431 26.2271 11.8605 26.3198C11.0963 26.4988 10.2648 26.6769 9.82046 26.9731C9.38336 27.263 9.12438 27.5456 9.00079 27.7683C8.87812 27.9963 8.87176 28.1436 8.92719 28.3289C9.00716 28.5752 9.3034 28.9078 9.80228 29.2222C9.79592 28.9514 9.82682 28.6988 9.93768 28.4462C10.0549 28.1808 10.2957 27.9654 10.542 27.8482C10.7882 27.731 11.0472 27.6756 11.3553 27.6201C12.0395 27.5029 13.0746 27.2812 13.9188 26.8686C14.763 26.4552 15.3491 25.919 15.4409 25.1366C15.4536 25.013 15.3918 24.8349 15.201 24.5941C15.0156 24.3597 14.7139 24.107 14.3995 23.8853C14.1959 23.7499 13.9987 23.6263 13.8143 23.5218ZM12.6556 28.4825C12.3349 28.5634 12.0395 28.6243 11.7806 28.6742L11.8423 29.5675L12.6002 29.6111L12.6556 28.4825Z" fill="#7BAA6D"/>
</g>
<defs>
<clipPath id="clip0_83_7140">
<rect width="30" height="30" fill="white"/>
</clipPath>
</defs>
</svg>
