<svg width="357" height="72" viewBox="0 0 357 72" fill="none" xmlns="http://www.w3.org/2000/svg">
<g clip-path="url(#clip0_12_2293)">
<path d="M32.4465 0H34.8971C35.143 0.127104 35.5909 0.165469 35.8792 0.191788C37.7226 0.360109 39.3966 0.542968 41.1965 1.03974C50.2074 3.43279 57.5221 10.0054 60.8619 18.7099C64.1905 27.4859 63.2005 37.6161 57.9398 45.4115C55.4572 49.0905 51.5802 52.5278 48.4892 55.777L40.5301 64.0496C40.1759 64.4162 39.1567 65.4954 38.8476 65.8902C38.0342 66.9285 34.367 70.0113 33.9184 71.0201H33.6777C33.5721 67.0377 33.6013 62.3151 33.6676 58.3227C30.0977 58.6081 24.9925 57.2695 21.7947 55.8107C14.6659 52.5586 9.06312 46.7651 6.31815 39.3804C3.77368 32.535 3.9351 24.0035 7.00781 17.3395C7.69749 15.8438 8.49259 14.2743 9.40323 12.8991C13.3388 6.95628 19.4181 2.89594 26.2395 1.02795C27.0251 0.812838 27.8535 0.6064 28.6608 0.501922C29.5439 0.387613 31.6802 0.297294 32.4036 0.0172309C32.418 0.0116642 32.4322 0.00574363 32.4465 0Z" fill="#CE1819"/>
<path d="M37.0242 12.9045C37.6806 12.8383 38.5216 13.0181 39.1187 13.2863C42.9457 15.0048 42.7556 22.3509 39.075 24.1815C36.9343 25.2462 35.7616 24.769 33.6591 24.1277C33.6166 25.3907 33.6662 26.8019 33.6328 28.0625C33.5924 29.5892 37.2886 28.8531 38.2065 28.7527L38.2042 25.3442C38.8763 25.0056 39.5652 24.7869 40.2429 24.4193L40.251 28.8508C40.7081 28.8095 43.5487 28.7528 43.86 28.9799C43.8648 29.202 43.9009 29.183 43.7867 29.341C43.1579 29.446 41.0206 29.3885 40.2452 29.3834C40.268 31.5678 40.2283 33.7583 40.2424 35.9435C40.2505 37.206 40.1738 37.9671 40.7673 39.1271C40.7941 39.1373 40.8209 39.1472 40.8479 39.1568C41.6187 39.4315 42.0549 39.3475 42.7553 39.0161C42.8905 38.7507 43.0303 38.4877 43.1744 38.2271C43.9711 36.8187 45.107 35.755 46.6953 35.3162C48.0993 34.9244 49.6011 35.1006 50.8762 35.8069C50.6872 34.1535 51.0275 31.8749 50.7413 30.1968C50.7129 30.0306 50.4995 29.7262 50.3968 29.5791C49.8787 29.4158 49.0108 29.4261 48.7029 29.1727L48.7519 29.091C49.3913 28.8623 52.1087 28.8993 52.9339 28.8881L52.9473 42.4184C52.9536 43.3334 52.8333 44.7906 52.9769 45.6478C53.1374 46.605 54.3637 46.388 54.8428 46.6465L54.8495 46.7326C54.4321 46.8509 51.5119 46.8611 50.8952 46.8655L50.8839 45.5326C49.3244 47.0299 47.0605 47.467 45.1223 46.4272C44.4838 46.0181 44.2073 45.7261 43.7317 45.1452C43.7794 45.3031 43.8252 45.4615 43.8691 45.6204C44.3576 47.4348 44.0234 49.5683 43.0905 51.2074C41.7755 53.5176 39.3119 54.1803 36.848 53.4696C36.1093 53.2565 35.5133 52.9105 34.8381 52.5192C34.4856 53.067 34.1033 53.6047 33.5405 53.9355L33.5576 42.2983C33.5577 40.494 33.5948 38.5308 33.5339 36.7448C32.8319 36.0327 32.2 36.3467 31.4415 35.9986L31.415 35.9109C31.7964 35.6563 34.9122 35.7021 35.6234 35.6972C35.6081 38.3378 35.6728 41.0748 35.6072 43.7028C35.6673 43.6362 35.7292 43.5714 35.7929 43.5082C36.882 42.4243 37.8801 41.8945 39.4354 41.9233C41.1262 41.9547 41.7308 42.3191 42.8811 43.4853C42.5393 42.1808 42.3138 41.0491 42.6956 39.7378C42.043 40.042 41.5015 40.3128 40.7659 40.3151C37.7036 40.3245 38.2 37.0214 38.2027 34.9845L38.2016 29.3958L32.5388 29.386C31.9552 29.3862 29.968 29.5298 29.6243 29.2073L29.6677 29.1006C30.1764 28.9424 30.7597 28.9415 31.3717 28.7754C31.4957 28.1077 31.4543 26.4249 31.4546 25.6859L31.4535 20.0809L31.4532 16.305C31.4528 15.6956 31.4668 14.9725 31.4289 14.3695C31.38 13.5917 30.0481 13.6946 29.666 13.4034L29.6708 13.2781C29.9672 13.1508 32.9373 13.1109 33.6019 13.0683L33.6008 14.6789C34.8874 13.5967 35.3553 13.2295 37.0242 12.9045Z" fill="#FEFEFE"/>
<path d="M37.7868 42.8209C38.0566 42.8041 38.5147 42.7635 38.7638 42.8174C41.9048 43.4974 41.9995 47.5046 41.5227 49.9968C41.2693 51.3218 40.6208 52.5719 39.4173 53.1009C39.1062 53.1885 38.7838 53.2294 38.4607 53.2222C37.0585 53.1789 35.6425 51.9871 35.6194 50.5381C35.6081 49.8331 35.6089 49.13 35.6099 48.4248C35.6032 46.9902 35.6135 45.5555 35.6409 44.121C36.4673 43.5116 36.7955 43.1616 37.7868 42.8209Z" fill="#CE1819"/>
<path d="M47.8516 35.6583C49.257 35.5959 49.9621 35.8691 50.8261 36.9855C50.9257 39.3585 50.8368 42.4464 50.8367 44.8842C50.0065 45.7603 49.1512 46.2071 47.9106 46.0565C46.1456 45.5177 45.3191 44.3613 44.9972 42.591C44.5789 40.2908 45.0552 36.2268 47.8516 35.6583Z" fill="#CE1819"/>
<path d="M35.834 13.8869C37.4872 13.7833 38.4454 14.5039 39.0404 16.0176C39.9309 18.2834 39.8686 23.0896 37.2339 24.1913C36.8974 24.2905 36.3078 24.3412 35.9518 24.2961C33.2699 23.9587 33.6054 21.3143 33.643 19.3203C33.6681 17.9913 33.569 16.5995 33.681 15.2754C34.3359 14.5613 34.8494 14.0967 35.834 13.8869Z" fill="#CE1819"/>
</g>
<path d="M90.4452 18.2022C90.4452 19.127 90.233 19.9759 89.8085 20.7491C89.384 21.507 88.7322 22.121 87.8529 22.591C86.9736 23.0609 85.8821 23.2959 84.5784 23.2959H82.168V29.0263H78.2795V13.0631H84.5784C85.8518 13.0631 86.9282 13.2829 87.8074 13.7225C88.6867 14.1622 89.3461 14.7686 89.7858 15.5417C90.2254 16.3148 90.4452 17.2017 90.4452 18.2022ZM84.2828 20.2033C85.0256 20.2033 85.5789 20.029 85.9428 19.6803C86.3066 19.3316 86.4885 18.8389 86.4885 18.2022C86.4885 17.5655 86.3066 17.0728 85.9428 16.7242C85.5789 16.3755 85.0256 16.2011 84.2828 16.2011H82.168V20.2033H84.2828Z" fill="#1A1A1A"/>
<path d="M97.6315 29.2082C96.5248 29.2082 95.5394 29.0187 94.6753 28.6397C93.8112 28.2607 93.129 27.7453 92.6287 27.0934C92.1285 26.4264 91.848 25.6835 91.7874 24.8649H95.6304C95.6758 25.3046 95.8805 25.6608 96.2443 25.9337C96.6082 26.2066 97.0554 26.343 97.586 26.343C98.0711 26.343 98.4425 26.252 98.7002 26.0701C98.9731 25.873 99.1095 25.6229 99.1095 25.3197C99.1095 24.9559 98.92 24.6906 98.541 24.5238C98.162 24.3419 97.5481 24.1448 96.6991 23.9326C95.7895 23.7204 95.0316 23.5006 94.4252 23.2732C93.8188 23.0306 93.2958 22.6592 92.8561 22.1589C92.4165 21.6435 92.1967 20.9537 92.1967 20.0896C92.1967 19.3619 92.3938 18.7025 92.7879 18.1113C93.1972 17.5049 93.7885 17.0274 94.5616 16.6787C95.3499 16.33 96.2822 16.1557 97.3586 16.1557C98.9503 16.1557 100.201 16.5498 101.111 17.3381C102.035 18.1264 102.566 19.1725 102.702 20.4762H99.1095C99.0489 20.0366 98.8518 19.6879 98.5183 19.4302C98.1999 19.1725 97.7755 19.0436 97.2449 19.0436C96.7901 19.0436 96.4414 19.1346 96.1989 19.3165C95.9563 19.4832 95.835 19.7182 95.835 20.0214C95.835 20.3852 96.0245 20.6581 96.4035 20.84C96.7977 21.0219 97.4041 21.2039 98.2227 21.3858C99.1626 21.6283 99.9281 21.8709 100.519 22.1134C101.111 22.3408 101.626 22.7198 102.066 23.2504C102.52 23.7658 102.755 24.4632 102.771 25.3425C102.771 26.0853 102.558 26.7523 102.134 27.3435C101.725 27.9196 101.126 28.3744 100.337 28.7079C99.5643 29.0414 98.6623 29.2082 97.6315 29.2082Z" fill="#1A1A1A"/>
<path d="M118.111 16.3376L110.152 35.0523H105.968L108.879 28.5942L103.717 16.3376H108.06L110.994 24.2737L113.904 16.3376H118.111Z" fill="#1A1A1A"/>
<path d="M118.744 22.6819C118.744 21.363 119.009 20.2109 119.54 19.2255C120.086 18.2401 120.836 17.4821 121.791 16.9516C122.761 16.421 123.868 16.1557 125.111 16.1557C126.703 16.1557 128.029 16.5726 129.091 17.4063C130.167 18.2401 130.872 19.415 131.205 20.931H127.067C126.718 19.9608 126.043 19.4756 125.043 19.4756C124.33 19.4756 123.762 19.7561 123.337 20.317C122.913 20.8628 122.701 21.6511 122.701 22.6819C122.701 23.7128 122.913 24.5087 123.337 25.0696C123.762 25.6153 124.33 25.8882 125.043 25.8882C126.043 25.8882 126.718 25.4031 127.067 24.4329H131.205C130.872 25.9185 130.167 27.0858 129.091 27.9348C128.014 28.7837 126.688 29.2082 125.111 29.2082C123.868 29.2082 122.761 28.9429 121.791 28.4123C120.836 27.8817 120.086 27.1237 119.54 26.1383C119.009 25.153 118.744 24.0008 118.744 22.6819Z" fill="#1A1A1A"/>
<path d="M141.085 16.2011C142.54 16.2011 143.708 16.6863 144.587 17.6565C145.466 18.6115 145.906 19.9304 145.906 21.6132V29.0263H142.04V22.1362C142.04 21.2872 141.82 20.6278 141.381 20.1578C140.941 19.6879 140.35 19.4529 139.607 19.4529C138.864 19.4529 138.273 19.6879 137.833 20.1578C137.394 20.6278 137.174 21.2872 137.174 22.1362V29.0263H133.285V12.199H137.174V18.0431C137.568 17.4821 138.106 17.0349 138.788 16.7014C139.47 16.3679 140.236 16.2011 141.085 16.2011Z" fill="#1A1A1A"/>
<path d="M154.384 29.2082C153.141 29.2082 152.019 28.9429 151.018 28.4123C150.033 27.8817 149.252 27.1237 148.676 26.1383C148.115 25.153 147.835 24.0008 147.835 22.6819C147.835 21.3782 148.123 20.2336 148.699 19.2483C149.275 18.2477 150.063 17.4821 151.064 16.9516C152.064 16.421 153.186 16.1557 154.429 16.1557C155.672 16.1557 156.794 16.421 157.795 16.9516C158.795 17.4821 159.584 18.2477 160.16 19.2483C160.736 20.2336 161.024 21.3782 161.024 22.6819C161.024 23.9857 160.728 25.1378 160.137 26.1383C159.561 27.1237 158.765 27.8817 157.749 28.4123C156.749 28.9429 155.627 29.2082 154.384 29.2082ZM154.384 25.8427C155.127 25.8427 155.756 25.5699 156.271 25.0241C156.802 24.4784 157.067 23.6976 157.067 22.6819C157.067 21.6662 156.809 20.8855 156.294 20.3397C155.794 19.794 155.172 19.5211 154.429 19.5211C153.671 19.5211 153.042 19.794 152.542 20.3397C152.042 20.8703 151.791 21.6511 151.791 22.6819C151.791 23.6976 152.034 24.4784 152.519 25.0241C153.019 25.5699 153.641 25.8427 154.384 25.8427Z" fill="#1A1A1A"/>
<path d="M170.159 25.729V29.0263H168.18C166.77 29.0263 165.671 28.6852 164.883 28.003C164.095 27.3056 163.701 26.1762 163.701 24.6148V19.5666H162.154V16.3376H163.701V13.245H167.589V16.3376H170.136V19.5666H167.589V24.6603C167.589 25.0393 167.68 25.3121 167.862 25.4789C168.044 25.6457 168.347 25.729 168.771 25.729H170.159Z" fill="#1A1A1A"/>
<path d="M180.124 16.2011C181.58 16.2011 182.747 16.6863 183.626 17.6565C184.505 18.6115 184.945 19.9304 184.945 21.6132V29.0263H181.079V22.1362C181.079 21.2872 180.859 20.6278 180.42 20.1578C179.98 19.6879 179.389 19.4529 178.646 19.4529C177.903 19.4529 177.312 19.6879 176.872 20.1578C176.433 20.6278 176.213 21.2872 176.213 22.1362V29.0263H172.325V12.199H176.213V18.0431C176.607 17.4821 177.145 17.0349 177.828 16.7014C178.51 16.3679 179.275 16.2011 180.124 16.2011Z" fill="#1A1A1A"/>
<path d="M199.608 22.4773C199.608 22.8411 199.585 23.2201 199.54 23.6142H190.74C190.8 24.4026 191.05 25.0089 191.49 25.4334C191.945 25.8427 192.498 26.0474 193.15 26.0474C194.12 26.0474 194.795 25.6381 195.174 24.8194H199.313C199.1 25.6532 198.714 26.4036 198.153 27.0707C197.607 27.7377 196.917 28.2607 196.084 28.6397C195.25 29.0187 194.317 29.2082 193.287 29.2082C192.043 29.2082 190.937 28.9429 189.967 28.4123C188.996 27.8817 188.238 27.1237 187.693 26.1383C187.147 25.153 186.874 24.0008 186.874 22.6819C186.874 21.363 187.139 20.2109 187.67 19.2255C188.216 18.2401 188.974 17.4821 189.944 16.9516C190.914 16.421 192.028 16.1557 193.287 16.1557C194.514 16.1557 195.606 16.4134 196.561 16.9288C197.516 17.4442 198.259 18.1795 198.79 19.1346C199.335 20.0896 199.608 21.2039 199.608 22.4773ZM195.629 21.454C195.629 20.787 195.401 20.2564 194.947 19.8622C194.492 19.4681 193.923 19.271 193.241 19.271C192.589 19.271 192.036 19.4605 191.581 19.8395C191.141 20.2185 190.869 20.7566 190.762 21.454H195.629Z" fill="#1A1A1A"/>
<path d="M205.548 18.4524C206.003 17.755 206.571 17.2093 207.253 16.8151C207.936 16.4058 208.694 16.2011 209.527 16.2011V20.317H208.459C207.488 20.317 206.761 20.5292 206.276 20.9537C205.791 21.363 205.548 22.0907 205.548 23.1367V29.0263H201.66V16.3376H205.548V18.4524Z" fill="#1A1A1A"/>
<path d="M210.613 22.6592C210.613 21.3555 210.855 20.2109 211.341 19.2255C211.841 18.2401 212.515 17.4821 213.364 16.9516C214.213 16.421 215.161 16.1557 216.207 16.1557C217.101 16.1557 217.882 16.3376 218.549 16.7014C219.231 17.0653 219.754 17.5428 220.118 18.134V16.3376H224.006V29.0263H220.118V27.2298C219.739 27.8211 219.208 28.2986 218.526 28.6624C217.859 29.0263 217.078 29.2082 216.184 29.2082C215.153 29.2082 214.213 28.9429 213.364 28.4123C212.515 27.8665 211.841 27.101 211.341 26.1156C210.855 25.1151 210.613 23.9629 210.613 22.6592ZM220.118 22.6819C220.118 21.7117 219.845 20.9461 219.299 20.3852C218.769 19.8243 218.117 19.5439 217.344 19.5439C216.571 19.5439 215.911 19.8243 215.365 20.3852C214.835 20.931 214.57 21.689 214.57 22.6592C214.57 23.6294 214.835 24.4026 215.365 24.9786C215.911 25.5395 216.571 25.82 217.344 25.82C218.117 25.82 218.769 25.5395 219.299 24.9786C219.845 24.4177 220.118 23.6521 220.118 22.6819Z" fill="#1A1A1A"/>
<path d="M230.708 18.134C231.087 17.5428 231.61 17.0653 232.277 16.7014C232.944 16.3376 233.725 16.1557 234.619 16.1557C235.665 16.1557 236.613 16.421 237.462 16.9516C238.311 17.4821 238.978 18.2401 239.463 19.2255C239.963 20.2109 240.213 21.3555 240.213 22.6592C240.213 23.9629 239.963 25.1151 239.463 26.1156C238.978 27.101 238.311 27.8665 237.462 28.4123C236.613 28.9429 235.665 29.2082 234.619 29.2082C233.74 29.2082 232.959 29.0263 232.277 28.6624C231.61 28.2986 231.087 27.8286 230.708 27.2526V35.075H226.82V16.3376H230.708V18.134ZM236.257 22.6592C236.257 21.689 235.984 20.931 235.438 20.3852C234.907 19.8243 234.248 19.5439 233.46 19.5439C232.686 19.5439 232.027 19.8243 231.481 20.3852C230.951 20.9461 230.685 21.7117 230.685 22.6819C230.685 23.6521 230.951 24.4177 231.481 24.9786C232.027 25.5395 232.686 25.82 233.46 25.82C234.233 25.82 234.892 25.5395 235.438 24.9786C235.984 24.4026 236.257 23.6294 236.257 22.6592Z" fill="#1A1A1A"/>
<path d="M254.214 22.4773C254.214 22.8411 254.191 23.2201 254.146 23.6142H245.346C245.406 24.4026 245.657 25.0089 246.096 25.4334C246.551 25.8427 247.104 26.0474 247.756 26.0474C248.726 26.0474 249.401 25.6381 249.78 24.8194H253.919C253.706 25.6532 253.32 26.4036 252.759 27.0707C252.213 27.7377 251.523 28.2607 250.69 28.6397C249.856 29.0187 248.923 29.2082 247.893 29.2082C246.65 29.2082 245.543 28.9429 244.573 28.4123C243.602 27.8817 242.844 27.1237 242.299 26.1383C241.753 25.153 241.48 24.0008 241.48 22.6819C241.48 21.363 241.745 20.2109 242.276 19.2255C242.822 18.2401 243.58 17.4821 244.55 16.9516C245.52 16.421 246.634 16.1557 247.893 16.1557C249.121 16.1557 250.212 16.4134 251.167 16.9288C252.122 17.4442 252.865 18.1795 253.396 19.1346C253.941 20.0896 254.214 21.2039 254.214 22.4773ZM250.235 21.454C250.235 20.787 250.007 20.2564 249.553 19.8622C249.098 19.4681 248.529 19.271 247.847 19.271C247.195 19.271 246.642 19.4605 246.187 19.8395C245.748 20.2185 245.475 20.7566 245.369 21.454H250.235Z" fill="#1A1A1A"/>
<path d="M268.795 16.3376V29.0263H264.907V27.2981C264.512 27.859 263.974 28.3138 263.292 28.6624C262.625 28.9959 261.882 29.1627 261.064 29.1627C260.093 29.1627 259.237 28.9505 258.494 28.526C257.751 28.0864 257.175 27.4572 256.766 26.6386C256.357 25.82 256.152 24.8573 256.152 23.7507V16.3376H260.018V23.2277C260.018 24.0766 260.237 24.7361 260.677 25.206C261.117 25.676 261.708 25.9109 262.451 25.9109C263.209 25.9109 263.808 25.676 264.247 25.206C264.687 24.7361 264.907 24.0766 264.907 23.2277V16.3376H268.795Z" fill="#1A1A1A"/>
<path d="M278.66 25.729V29.0263H276.682C275.272 29.0263 274.173 28.6852 273.385 28.003C272.596 27.3056 272.202 26.1762 272.202 24.6148V19.5666H270.656V16.3376H272.202V13.245H276.091V16.3376H278.637V19.5666H276.091V24.6603C276.091 25.0393 276.182 25.3121 276.363 25.4789C276.545 25.6457 276.849 25.729 277.273 25.729H278.66Z" fill="#1A1A1A"/>
<path d="M282.782 15.0187C282.099 15.0187 281.539 14.8216 281.099 14.4275C280.674 14.0181 280.462 13.5179 280.462 12.9266C280.462 12.3203 280.674 11.82 281.099 11.4258C281.539 11.0165 282.099 10.8119 282.782 10.8119C283.449 10.8119 283.994 11.0165 284.419 11.4258C284.859 11.82 285.078 12.3203 285.078 12.9266C285.078 13.5179 284.859 14.0181 284.419 14.4275C283.994 14.8216 283.449 15.0187 282.782 15.0187ZM284.715 16.3376V29.0263H280.826V16.3376H284.715Z" fill="#1A1A1A"/>
<path d="M292.694 29.2082C291.588 29.2082 290.602 29.0187 289.738 28.6397C288.874 28.2607 288.192 27.7453 287.692 27.0934C287.191 26.4264 286.911 25.6835 286.85 24.8649H290.693C290.739 25.3046 290.943 25.6608 291.307 25.9337C291.671 26.2066 292.118 26.343 292.649 26.343C293.134 26.343 293.505 26.252 293.763 26.0701C294.036 25.873 294.172 25.6229 294.172 25.3197C294.172 24.9559 293.983 24.6906 293.604 24.5238C293.225 24.3419 292.611 24.1448 291.762 23.9326C290.852 23.7204 290.094 23.5006 289.488 23.2732C288.882 23.0306 288.359 22.6592 287.919 22.1589C287.479 21.6435 287.26 20.9537 287.26 20.0896C287.26 19.3619 287.457 18.7025 287.851 18.1113C288.26 17.5049 288.851 17.0274 289.625 16.6787C290.413 16.33 291.345 16.1557 292.421 16.1557C294.013 16.1557 295.264 16.5498 296.174 17.3381C297.098 18.1264 297.629 19.1725 297.765 20.4762H294.172C294.112 20.0366 293.915 19.6879 293.581 19.4302C293.263 19.1725 292.838 19.0436 292.308 19.0436C291.853 19.0436 291.504 19.1346 291.262 19.3165C291.019 19.4832 290.898 19.7182 290.898 20.0214C290.898 20.3852 291.087 20.6581 291.466 20.84C291.861 21.0219 292.467 21.2039 293.286 21.3858C294.226 21.6283 294.991 21.8709 295.582 22.1134C296.174 22.3408 296.689 22.7198 297.129 23.2504C297.583 23.7658 297.818 24.4632 297.834 25.3425C297.834 26.0853 297.621 26.7523 297.197 27.3435C296.787 27.9196 296.189 28.3744 295.4 28.7079C294.627 29.0414 293.725 29.2082 292.694 29.2082Z" fill="#1A1A1A"/>
<path d="M299.439 22.6819C299.439 21.363 299.705 20.2109 300.235 19.2255C300.781 18.2401 301.531 17.4821 302.486 16.9516C303.457 16.421 304.563 16.1557 305.806 16.1557C307.398 16.1557 308.725 16.5726 309.786 17.4063C310.862 18.2401 311.567 19.415 311.901 20.931H307.762C307.413 19.9608 306.739 19.4756 305.738 19.4756C305.026 19.4756 304.457 19.7561 304.033 20.317C303.608 20.8628 303.396 21.6511 303.396 22.6819C303.396 23.7128 303.608 24.5087 304.033 25.0696C304.457 25.6153 305.026 25.8882 305.738 25.8882C306.739 25.8882 307.413 25.4031 307.762 24.4329H311.901C311.567 25.9185 310.862 27.0858 309.786 27.9348C308.709 28.7837 307.383 29.2082 305.806 29.2082C304.563 29.2082 303.457 28.9429 302.486 28.4123C301.531 27.8817 300.781 27.1237 300.235 26.1383C299.705 25.153 299.439 24.0008 299.439 22.6819Z" fill="#1A1A1A"/>
<path d="M321.78 16.2011C323.236 16.2011 324.403 16.6863 325.282 17.6565C326.161 18.6115 326.601 19.9304 326.601 21.6132V29.0263H322.735V22.1362C322.735 21.2872 322.515 20.6278 322.076 20.1578C321.636 19.6879 321.045 19.4529 320.302 19.4529C319.559 19.4529 318.968 19.6879 318.528 20.1578C318.089 20.6278 317.869 21.2872 317.869 22.1362V29.0263H313.981V12.199H317.869V18.0431C318.263 17.4821 318.801 17.0349 319.484 16.7014C320.166 16.3679 320.931 16.2011 321.78 16.2011Z" fill="#1A1A1A"/>
<path d="M341.264 22.4773C341.264 22.8411 341.241 23.2201 341.196 23.6142H332.396C332.456 24.4026 332.706 25.0089 333.146 25.4334C333.601 25.8427 334.154 26.0474 334.806 26.0474C335.776 26.0474 336.451 25.6381 336.83 24.8194H340.969C340.756 25.6532 340.37 26.4036 339.809 27.0707C339.263 27.7377 338.573 28.2607 337.74 28.6397C336.906 29.0187 335.973 29.2082 334.943 29.2082C333.699 29.2082 332.593 28.9429 331.623 28.4123C330.652 27.8817 329.894 27.1237 329.349 26.1383C328.803 25.153 328.53 24.0008 328.53 22.6819C328.53 21.363 328.795 20.2109 329.326 19.2255C329.872 18.2401 330.63 17.4821 331.6 16.9516C332.57 16.421 333.684 16.1557 334.943 16.1557C336.17 16.1557 337.262 16.4134 338.217 16.9288C339.172 17.4442 339.915 18.1795 340.446 19.1346C340.991 20.0896 341.264 21.2039 341.264 22.4773ZM337.285 21.454C337.285 20.787 337.057 20.2564 336.603 19.8622C336.148 19.4681 335.579 19.271 334.897 19.271C334.245 19.271 333.692 19.4605 333.237 19.8395C332.797 20.2185 332.525 20.7566 332.418 21.454H337.285Z" fill="#1A1A1A"/>
<path d="M347.204 18.4524C347.659 17.755 348.227 17.2093 348.909 16.8151C349.592 16.4058 350.35 16.2011 351.183 16.2011V20.317H350.115C349.144 20.317 348.417 20.5292 347.932 20.9537C347.446 21.363 347.204 22.0907 347.204 23.1367V29.0263H343.315V16.3376H347.204V18.4524Z" fill="#1A1A1A"/>
<path d="M87.9439 51.84C88.8686 52.0371 89.6114 52.4995 90.1723 53.2271C90.7332 53.9396 91.0137 54.7583 91.0137 55.683C91.0137 57.0171 90.5438 58.0782 89.6038 58.8666C88.6791 59.6397 87.383 60.0263 85.7154 60.0263H78.2795V44.0631H85.4652C87.0873 44.0631 88.3532 44.4345 89.2628 45.1773C90.1875 45.9201 90.6499 46.9283 90.6499 48.2017C90.6499 49.1416 90.3997 49.9223 89.8995 50.5439C89.4144 51.1654 88.7625 51.5975 87.9439 51.84ZM82.168 50.5211H84.7148C85.3515 50.5211 85.8367 50.3847 86.1702 50.1118C86.5188 49.8238 86.6932 49.4069 86.6932 48.8611C86.6932 48.3154 86.5188 47.8985 86.1702 47.6105C85.8367 47.3224 85.3515 47.1784 84.7148 47.1784H82.168V50.5211ZM85.0332 56.8882C85.6851 56.8882 86.1853 56.7442 86.534 56.4562C86.8978 56.153 87.0798 55.7209 87.0798 55.16C87.0798 54.5991 86.8903 54.1595 86.5113 53.8411C86.1474 53.5227 85.6396 53.3636 84.9877 53.3636H82.168V56.8882H85.0332Z" fill="#1A1A1A"/>
<path d="M105.23 53.4773C105.23 53.8411 105.207 54.2201 105.162 54.6143H96.3616C96.4222 55.4026 96.6724 56.0089 97.112 56.4334C97.5668 56.8427 98.1201 57.0474 98.772 57.0474C99.7422 57.0474 100.417 56.6381 100.796 55.8194H104.934C104.722 56.6532 104.336 57.4036 103.775 58.0707C103.229 58.7377 102.539 59.2607 101.705 59.6397C100.872 60.0187 99.9393 60.2082 98.9084 60.2082C97.6653 60.2082 96.5587 59.9429 95.5884 59.4123C94.6182 58.8817 93.8602 58.1237 93.3145 57.1383C92.7687 56.153 92.4959 55.0008 92.4959 53.6819C92.4959 52.363 92.7612 51.2109 93.2917 50.2255C93.8375 49.2401 94.5955 48.4821 95.5657 47.9516C96.5359 47.421 97.6502 47.1557 98.9084 47.1557C100.136 47.1557 101.228 47.4134 102.183 47.9288C103.138 48.4442 103.881 49.1795 104.411 50.1346C104.957 51.0896 105.23 52.2039 105.23 53.4773ZM101.251 52.454C101.251 51.787 101.023 51.2564 100.568 50.8622C100.114 50.4681 99.5451 50.271 98.8629 50.271C98.2111 50.271 97.6577 50.4605 97.203 50.8395C96.7633 51.2185 96.4904 51.7566 96.3843 52.454H101.251Z" fill="#1A1A1A"/>
<path d="M111.17 49.4524C111.625 48.755 112.193 48.2093 112.875 47.8151C113.558 47.4058 114.315 47.2011 115.149 47.2011V51.317H114.081C113.11 51.317 112.383 51.5292 111.898 51.9537C111.412 52.363 111.17 53.0907 111.17 54.1367V60.0263H107.281V47.3376H111.17V49.4524Z" fill="#1A1A1A"/>
<path d="M128.969 53.4773C128.969 53.8411 128.946 54.2201 128.901 54.6143H120.1C120.161 55.4026 120.411 56.0089 120.851 56.4334C121.306 56.8427 121.859 57.0474 122.511 57.0474C123.481 57.0474 124.156 56.6381 124.535 55.8194H128.673C128.461 56.6532 128.074 57.4036 127.514 58.0707C126.968 58.7377 126.278 59.2607 125.444 59.6397C124.61 60.0187 123.678 60.2082 122.647 60.2082C121.404 60.2082 120.298 59.9429 119.327 59.4123C118.357 58.8817 117.599 58.1237 117.053 57.1383C116.508 56.153 116.235 55.0008 116.235 53.6819C116.235 52.363 116.5 51.2109 117.031 50.2255C117.576 49.2401 118.334 48.4821 119.305 47.9516C120.275 47.421 121.389 47.1557 122.647 47.1557C123.875 47.1557 124.967 47.4134 125.922 47.9288C126.877 48.4442 127.62 49.1795 128.15 50.1346C128.696 51.0896 128.969 52.2039 128.969 53.4773ZM124.989 52.454C124.989 51.787 124.762 51.2564 124.307 50.8622C123.852 50.4681 123.284 50.271 122.602 50.271C121.95 50.271 121.397 50.4605 120.942 50.8395C120.502 51.2185 120.229 51.7566 120.123 52.454H124.989Z" fill="#1A1A1A"/>
<path d="M132.976 46.0187C132.294 46.0187 131.733 45.8216 131.293 45.4275C130.869 45.0181 130.656 44.5179 130.656 43.9266C130.656 43.3203 130.869 42.82 131.293 42.4258C131.733 42.0165 132.294 41.8119 132.976 41.8119C133.643 41.8119 134.189 42.0165 134.613 42.4258C135.053 42.82 135.273 43.3203 135.273 43.9266C135.273 44.5179 135.053 45.0181 134.613 45.4275C134.189 45.8216 133.643 46.0187 132.976 46.0187ZM134.909 47.3376V60.0263H131.02V47.3376H134.909Z" fill="#1A1A1A"/>
<path d="M144.799 56.729V60.0263H142.82C141.41 60.0263 140.311 59.6852 139.523 59.003C138.735 58.3056 138.341 57.1762 138.341 55.6148V50.5666H136.794V47.3376H138.341V44.245H142.229V47.3376H144.776V50.5666H142.229V55.6603C142.229 56.0393 142.32 56.3121 142.502 56.4789C142.684 56.6457 142.987 56.729 143.412 56.729H144.799Z" fill="#1A1A1A"/>
<path d="M152.126 60.2082C151.02 60.2082 150.034 60.0187 149.17 59.6397C148.306 59.2607 147.624 58.7453 147.124 58.0934C146.624 57.4264 146.343 56.6836 146.282 55.8649H150.125C150.171 56.3046 150.376 56.6608 150.739 56.9337C151.103 57.2066 151.55 57.343 152.081 57.343C152.566 57.343 152.938 57.252 153.195 57.0701C153.468 56.873 153.605 56.6229 153.605 56.3197C153.605 55.9559 153.415 55.6906 153.036 55.5238C152.657 55.3419 152.043 55.1448 151.194 54.9326C150.285 54.7204 149.527 54.5006 148.92 54.2732C148.314 54.0306 147.791 53.6592 147.351 53.1589C146.912 52.6435 146.692 51.9537 146.692 51.0896C146.692 50.3619 146.889 49.7025 147.283 49.1113C147.692 48.5049 148.284 48.0274 149.057 47.6787C149.845 47.33 150.777 47.1557 151.854 47.1557C153.445 47.1557 154.696 47.5498 155.606 48.3381C156.53 49.1264 157.061 50.1725 157.197 51.4762H153.605C153.544 51.0366 153.347 50.6879 153.013 50.4302C152.695 50.1725 152.271 50.0436 151.74 50.0436C151.285 50.0436 150.936 50.1346 150.694 50.3165C150.451 50.4832 150.33 50.7182 150.33 51.0214C150.33 51.3852 150.52 51.6581 150.899 51.84C151.293 52.0219 151.899 52.2039 152.718 52.3858C153.658 52.6283 154.423 52.8709 155.014 53.1134C155.606 53.3408 156.121 53.7198 156.561 54.2504C157.015 54.7658 157.25 55.4632 157.266 56.3425C157.266 57.0853 157.053 57.7523 156.629 58.3435C156.22 58.9196 155.621 59.3744 154.832 59.7079C154.059 60.0414 153.157 60.2082 152.126 60.2082Z" fill="#1A1A1A"/>
<path d="M158.871 53.6819C158.871 52.363 159.137 51.2109 159.667 50.2255C160.213 49.2401 160.963 48.4821 161.919 47.9516C162.889 47.421 163.995 47.1557 165.239 47.1557C166.83 47.1557 168.157 47.5726 169.218 48.4063C170.294 49.2401 170.999 50.415 171.333 51.931H167.194C166.845 50.9608 166.171 50.4756 165.17 50.4756C164.458 50.4756 163.889 50.7561 163.465 51.317C163.04 51.8628 162.828 52.6511 162.828 53.6819C162.828 54.7128 163.04 55.5087 163.465 56.0696C163.889 56.6153 164.458 56.8882 165.17 56.8882C166.171 56.8882 166.845 56.4031 167.194 55.4329H171.333C170.999 56.9185 170.294 58.0858 169.218 58.9348C168.142 59.7837 166.815 60.2082 165.239 60.2082C163.995 60.2082 162.889 59.9429 161.919 59.4123C160.963 58.8817 160.213 58.1237 159.667 57.1383C159.137 56.153 158.871 55.0008 158.871 53.6819Z" fill="#1A1A1A"/>
<path d="M181.212 47.2011C182.668 47.2011 183.835 47.6863 184.714 48.6565C185.594 49.6115 186.033 50.9304 186.033 52.6132V60.0263H182.167V53.1362C182.167 52.2872 181.948 51.6278 181.508 51.1578C181.068 50.6879 180.477 50.4529 179.734 50.4529C178.991 50.4529 178.4 50.6879 177.961 51.1578C177.521 51.6278 177.301 52.2872 177.301 53.1362V60.0263H173.413V43.199H177.301V49.0431C177.695 48.4821 178.233 48.0349 178.916 47.7014C179.598 47.3679 180.363 47.2011 181.212 47.2011Z" fill="#1A1A1A"/>
<path d="M187.962 53.6592C187.962 52.3555 188.205 51.2109 188.69 50.2255C189.19 49.2401 189.865 48.4821 190.714 47.9516C191.563 47.421 192.51 47.1557 193.556 47.1557C194.45 47.1557 195.231 47.3376 195.898 47.7014C196.58 48.0652 197.103 48.5428 197.467 49.134V47.3376H201.356V60.0263H197.467V58.2298C197.088 58.8211 196.558 59.2986 195.875 59.6624C195.208 60.0263 194.428 60.2082 193.533 60.2082C192.502 60.2082 191.563 59.9429 190.714 59.4123C189.865 58.8666 189.19 58.101 188.69 57.1156C188.205 56.1151 187.962 54.9629 187.962 53.6592ZM197.467 53.6819C197.467 52.7117 197.194 51.9461 196.649 51.3852C196.118 50.8243 195.466 50.5439 194.693 50.5439C193.92 50.5439 193.26 50.8243 192.715 51.3852C192.184 51.931 191.919 52.689 191.919 53.6592C191.919 54.6294 192.184 55.4026 192.715 55.9786C193.26 56.5395 193.92 56.82 194.693 56.82C195.466 56.82 196.118 56.5395 196.649 55.9786C197.194 55.4177 197.467 54.6521 197.467 53.6819Z" fill="#1A1A1A"/>
<path d="M210.536 50.5666H208.444V60.0263H204.555V50.5666H203.146V47.3376H204.555V46.9738C204.555 45.4123 205.003 44.2298 205.897 43.4264C206.791 42.6078 208.103 42.1984 209.831 42.1984C210.119 42.1984 210.331 42.206 210.468 42.2212V45.5184C209.725 45.4729 209.202 45.5791 208.899 45.8368C208.595 46.0945 208.444 46.5569 208.444 47.2239V47.3376H210.536V50.5666Z" fill="#1A1A1A"/>
<path d="M217.525 60.2082C216.418 60.2082 215.433 60.0187 214.569 59.6397C213.705 59.2607 213.023 58.7453 212.522 58.0934C212.022 57.4264 211.742 56.6836 211.681 55.8649H215.524C215.569 56.3046 215.774 56.6608 216.138 56.9337C216.502 57.2066 216.949 57.343 217.479 57.343C217.965 57.343 218.336 57.252 218.594 57.0701C218.867 56.873 219.003 56.6229 219.003 56.3197C219.003 55.9559 218.814 55.6906 218.435 55.5238C218.056 55.3419 217.442 55.1448 216.593 54.9326C215.683 54.7204 214.925 54.5006 214.319 54.2732C213.712 54.0306 213.189 53.6592 212.75 53.1589C212.31 52.6435 212.09 51.9537 212.09 51.0896C212.09 50.3619 212.287 49.7025 212.681 49.1113C213.091 48.5049 213.682 48.0274 214.455 47.6787C215.243 47.33 216.176 47.1557 217.252 47.1557C218.844 47.1557 220.095 47.5498 221.004 48.3381C221.929 49.1264 222.459 50.1725 222.596 51.4762H219.003C218.942 51.0366 218.745 50.6879 218.412 50.4302C218.093 50.1725 217.669 50.0436 217.138 50.0436C216.684 50.0436 216.335 50.1346 216.092 50.3165C215.85 50.4832 215.729 50.7182 215.729 51.0214C215.729 51.3852 215.918 51.6581 216.297 51.84C216.691 52.0219 217.298 52.2039 218.116 52.3858C219.056 52.6283 219.822 52.8709 220.413 53.1134C221.004 53.3408 221.52 53.7198 221.959 54.2504C222.414 54.7658 222.649 55.4632 222.664 56.3425C222.664 57.0853 222.452 57.7523 222.027 58.3435C221.618 58.9196 221.019 59.3744 220.231 59.7079C219.458 60.0414 218.556 60.2082 217.525 60.2082Z" fill="#1A1A1A"/>
<path d="M232.115 56.729V60.0263H230.137C228.727 60.0263 227.628 59.6852 226.839 59.003C226.051 58.3056 225.657 57.1762 225.657 55.6148V50.5666H224.111V47.3376H225.657V44.245H229.546V47.3376H232.092V50.5666H229.546V55.6603C229.546 56.0393 229.636 56.3121 229.818 56.4789C230 56.6457 230.303 56.729 230.728 56.729H232.115Z" fill="#1A1A1A"/>
<path d="M233.508 53.6592C233.508 52.3555 233.75 51.2109 234.236 50.2255C234.736 49.2401 235.41 48.4821 236.259 47.9516C237.108 47.421 238.056 47.1557 239.102 47.1557C239.936 47.1557 240.694 47.33 241.376 47.6787C242.073 48.0274 242.619 48.4973 243.013 49.0885V43.199H246.901V60.0263H243.013V58.2071C242.649 58.8135 242.126 59.2986 241.444 59.6624C240.777 60.0263 239.996 60.2082 239.102 60.2082C238.056 60.2082 237.108 59.9429 236.259 59.4123C235.41 58.8666 234.736 58.101 234.236 57.1156C233.75 56.1151 233.508 54.9629 233.508 53.6592ZM243.013 53.6819C243.013 52.7117 242.74 51.9461 242.194 51.3852C241.664 50.8243 241.012 50.5439 240.239 50.5439C239.466 50.5439 238.806 50.8243 238.26 51.3852C237.73 51.931 237.465 52.689 237.465 53.6592C237.465 54.6294 237.73 55.4026 238.26 55.9786C238.806 56.5395 239.466 56.82 240.239 56.82C241.012 56.82 241.664 56.5395 242.194 55.9786C242.74 55.4177 243.013 54.6521 243.013 53.6819Z" fill="#1A1A1A"/>
<path d="M251.67 46.0187C250.988 46.0187 250.427 45.8216 249.987 45.4275C249.563 45.0181 249.351 44.5179 249.351 43.9266C249.351 43.3203 249.563 42.82 249.987 42.4258C250.427 42.0165 250.988 41.8119 251.67 41.8119C252.337 41.8119 252.883 42.0165 253.307 42.4258C253.747 42.82 253.967 43.3203 253.967 43.9266C253.967 44.5179 253.747 45.0181 253.307 45.4275C252.883 45.8216 252.337 46.0187 251.67 46.0187ZM253.603 47.3376V60.0263H249.715V47.3376H253.603Z" fill="#1A1A1A"/>
<path d="M268.382 53.4773C268.382 53.8411 268.359 54.2201 268.314 54.6143H259.514C259.574 55.4026 259.824 56.0089 260.264 56.4334C260.719 56.8427 261.272 57.0474 261.924 57.0474C262.894 57.0474 263.569 56.6381 263.948 55.8194H268.086C267.874 56.6532 267.488 57.4036 266.927 58.0707C266.381 58.7377 265.691 59.2607 264.857 59.6397C264.024 60.0187 263.091 60.2082 262.06 60.2082C260.817 60.2082 259.711 59.9429 258.74 59.4123C257.77 58.8817 257.012 58.1237 256.467 57.1383C255.921 56.153 255.648 55.0008 255.648 53.6819C255.648 52.363 255.913 51.2109 256.444 50.2255C256.99 49.2401 257.747 48.4821 258.718 47.9516C259.688 47.421 260.802 47.1557 262.06 47.1557C263.288 47.1557 264.38 47.4134 265.335 47.9288C266.29 48.4442 267.033 49.1795 267.563 50.1346C268.109 51.0896 268.382 52.2039 268.382 53.4773ZM264.403 52.454C264.403 51.787 264.175 51.2564 263.72 50.8622C263.266 50.4681 262.697 50.271 262.015 50.271C261.363 50.271 260.81 50.4605 260.355 50.8395C259.915 51.2185 259.642 51.7566 259.536 52.454H264.403Z" fill="#1A1A1A"/>
<path d="M278.165 47.2011C279.65 47.2011 280.833 47.6863 281.712 48.6565C282.607 49.6115 283.054 50.9304 283.054 52.6132V60.0263H279.188V53.1362C279.188 52.2872 278.968 51.6278 278.529 51.1578C278.089 50.6879 277.498 50.4529 276.755 50.4529C276.012 50.4529 275.421 50.6879 274.981 51.1578C274.542 51.6278 274.322 52.2872 274.322 53.1362V60.0263H270.433V47.3376H274.322V49.0203C274.716 48.4594 275.247 48.0198 275.914 47.7014C276.581 47.3679 277.331 47.2011 278.165 47.2011Z" fill="#1A1A1A"/>
<path d="M290.918 60.2082C289.811 60.2082 288.826 60.0187 287.962 59.6397C287.098 59.2607 286.415 58.7453 285.915 58.0934C285.415 57.4264 285.134 56.6836 285.074 55.8649H288.917C288.962 56.3046 289.167 56.6608 289.531 56.9337C289.895 57.2066 290.342 57.343 290.872 57.343C291.357 57.343 291.729 57.252 291.987 57.0701C292.259 56.873 292.396 56.6229 292.396 56.3197C292.396 55.9559 292.206 55.6906 291.827 55.5238C291.448 55.3419 290.834 55.1448 289.986 54.9326C289.076 54.7204 288.318 54.5006 287.712 54.2732C287.105 54.0306 286.582 53.6592 286.143 53.1589C285.703 52.6435 285.483 51.9537 285.483 51.0896C285.483 50.3619 285.68 49.7025 286.074 49.1113C286.484 48.5049 287.075 48.0274 287.848 47.6787C288.636 47.33 289.569 47.1557 290.645 47.1557C292.237 47.1557 293.487 47.5498 294.397 48.3381C295.322 49.1264 295.852 50.1725 295.989 51.4762H292.396C292.335 51.0366 292.138 50.6879 291.805 50.4302C291.486 50.1725 291.062 50.0436 290.531 50.0436C290.076 50.0436 289.728 50.1346 289.485 50.3165C289.243 50.4832 289.121 50.7182 289.121 51.0214C289.121 51.3852 289.311 51.6581 289.69 51.84C290.084 52.0219 290.69 52.2039 291.509 52.3858C292.449 52.6283 293.215 52.8709 293.806 53.1134C294.397 53.3408 294.912 53.7198 295.352 54.2504C295.807 54.7658 296.042 55.4632 296.057 56.3425C296.057 57.0853 295.845 57.7523 295.42 58.3435C295.011 58.9196 294.412 59.3744 293.624 59.7079C292.851 60.0414 291.949 60.2082 290.918 60.2082Z" fill="#1A1A1A"/>
<path d="M305.508 56.729V60.0263H303.53C302.12 60.0263 301.021 59.6852 300.232 59.003C299.444 58.3056 299.05 57.1762 299.05 55.6148V50.5666H297.504V47.3376H299.05V44.245H302.938V47.3376H305.485V50.5666H302.938V55.6603C302.938 56.0393 303.029 56.3121 303.211 56.4789C303.393 56.6457 303.696 56.729 304.121 56.729H305.508Z" fill="#1A1A1A"/>
<defs>
<clipPath id="clip0_12_2293">
<rect width="67.3375" height="71.0201" fill="white"/>
</clipPath>
</defs>
</svg>
