<svg width="228" height="50" viewBox="0 0 228 50" fill="none" xmlns="http://www.w3.org/2000/svg">
<g clip-path="url(#clip0_125_1440)">
<path d="M22.838 0.00585938H24.5629C24.736 0.0953235 25.0513 0.122327 25.2541 0.140852C26.5517 0.259327 27.73 0.388035 28.9968 0.737695C35.3393 2.42208 40.4878 7.04831 42.8386 13.1751C45.1814 19.3522 44.4846 26.4825 40.7819 31.9694C39.0344 34.5589 36.3055 36.9783 34.1299 39.2653L28.5277 45.0881C28.2785 45.3461 27.5611 46.1057 27.3435 46.3836C26.771 47.1144 24.1898 49.2843 23.874 49.9943H23.7046C23.6303 47.1913 23.6508 43.8672 23.6975 41.0571C21.1847 41.258 17.5914 40.3158 15.3406 39.289C10.3229 37 6.37927 32.9221 4.44718 27.7243C2.65622 22.9061 2.76984 16.901 4.93261 12.2105C5.41806 11.1577 5.9777 10.053 6.61866 9.08511C9.38876 4.90214 13.6678 2.04421 18.4691 0.729396C19.0221 0.577987 19.6052 0.432683 20.1734 0.359144C20.795 0.278686 22.2987 0.215114 22.8078 0.0179876C22.8179 0.0140694 22.8279 0.00990211 22.838 0.00585938Z" fill="#CE1819"/>
<path d="M26.0601 9.0888C26.5221 9.04219 27.114 9.16874 27.5344 9.35749C30.228 10.5671 30.0942 15.7378 27.5036 17.0263C25.9968 17.7756 25.1714 17.4398 23.6915 16.9884C23.6616 17.8773 23.6965 18.8706 23.673 19.7579C23.6446 20.8325 26.2462 20.3145 26.8923 20.2438L26.8907 17.8446C27.3637 17.6063 27.8486 17.4523 28.3256 17.1936L28.3313 20.3128C28.653 20.2838 30.6525 20.2438 30.8715 20.4036C30.875 20.56 30.9004 20.5466 30.8199 20.6578C30.3774 20.7317 28.873 20.6913 28.3272 20.6877C28.3433 22.2252 28.3153 23.767 28.3252 25.3051C28.331 26.1937 28.277 26.7294 28.6947 27.5459C28.7136 27.5531 28.7325 27.5601 28.7514 27.5669C29.294 27.7601 29.6011 27.7011 30.094 27.4678C30.1892 27.281 30.2876 27.0959 30.389 26.9124C30.9498 25.9211 31.7493 25.1725 32.8672 24.8636C33.8554 24.5878 34.9125 24.7118 35.81 25.209C35.677 24.0452 35.9165 22.4414 35.7151 21.2602C35.6951 21.1432 35.5449 20.929 35.4726 20.8254C35.1079 20.7105 34.4971 20.7177 34.2803 20.5394L34.3148 20.4819C34.7649 20.3209 36.6775 20.3469 37.2584 20.339L37.2678 29.8625C37.2722 30.5066 37.1875 31.5323 37.2886 32.1356C37.4016 32.8094 38.2648 32.6566 38.6019 32.8386L38.6067 32.8992C38.3129 32.9825 36.2574 32.9896 35.8234 32.9927L35.8155 32.0545C34.7177 33.1085 33.1243 33.4161 31.76 32.6842C31.3106 32.3963 31.116 32.1907 30.7812 31.7819C30.8148 31.893 30.8471 32.0045 30.878 32.1163C31.2218 33.3934 30.9866 34.8951 30.3299 36.0488C29.4044 37.6749 27.6703 38.1414 25.9361 37.6411C25.4161 37.4911 24.9966 37.2476 24.5213 36.9721C24.2733 37.3578 24.0042 37.7362 23.608 37.969L23.6201 29.778C23.6202 28.508 23.6463 27.1262 23.6034 25.8691C23.1093 25.3679 22.6645 25.5889 22.1306 25.3439L22.1119 25.2822C22.3804 25.103 24.5736 25.1352 25.0741 25.1318C25.0633 26.9904 25.1089 28.9169 25.0627 30.7666C25.105 30.7197 25.1486 30.6741 25.1934 30.6296C25.96 29.8667 26.6625 29.4938 27.7572 29.5141C28.9474 29.5362 29.3729 29.7927 30.1826 30.6135C29.9419 29.6953 29.7832 28.8987 30.052 27.9757C29.5926 28.1899 29.2115 28.3805 28.6938 28.3821C26.5383 28.3888 26.8877 26.0638 26.8896 24.6301L26.8889 20.6964L22.903 20.6895C22.4922 20.6896 21.0935 20.7907 20.8515 20.5637L20.8821 20.4886C21.2402 20.3773 21.6507 20.3767 22.0815 20.2597C22.1688 19.7898 22.1397 18.6053 22.1399 18.0851L22.1391 14.14L22.1389 11.4823C22.1386 11.0533 22.1485 10.5443 22.1218 10.1199C22.0873 9.57249 21.1499 9.64488 20.8809 9.43992L20.8843 9.3517C21.0929 9.26214 23.1835 9.23405 23.6513 9.2041L23.6505 10.3377C24.5561 9.576 24.8854 9.3175 26.0601 9.0888Z" fill="#FEFEFE"/>
<path d="M26.5968 30.146C26.7867 30.1342 27.1092 30.1056 27.2845 30.1435C29.4954 30.6222 29.562 33.4427 29.2264 35.1969C29.048 36.1295 28.5916 37.0094 27.7445 37.3817C27.5255 37.4434 27.2986 37.4722 27.0712 37.4671C26.0842 37.4366 25.0876 36.5977 25.0713 35.5779C25.0633 35.0816 25.0639 34.5868 25.0646 34.0904C25.0599 33.0806 25.0671 32.0708 25.0864 31.0611C25.6681 30.6322 25.8991 30.3858 26.5968 30.146Z" fill="#CE1819"/>
<path d="M33.6809 25.1045C34.6702 25.0606 35.1665 25.2529 35.7746 26.0387C35.8447 27.7089 35.7821 29.8824 35.7821 31.5983C35.1977 32.2149 34.5957 32.5294 33.7225 32.4234C32.4802 32.0442 31.8984 31.2302 31.6719 29.9842C31.3774 28.3651 31.7127 25.5046 33.6809 25.1045Z" fill="#CE1819"/>
<path d="M25.2223 9.78031C26.3859 9.70741 27.0604 10.2146 27.4792 11.2801C28.106 12.8749 28.0621 16.2578 26.2076 17.0333C25.9708 17.1031 25.5558 17.1388 25.3052 17.107C23.4175 16.8696 23.6537 15.0082 23.6801 13.6047C23.6978 12.6693 23.628 11.6896 23.7069 10.7577C24.1679 10.255 24.5293 9.92801 25.2223 9.78031Z" fill="#CE1819"/>
</g>
<path d="M63.7193 12.6404C63.7193 13.2957 63.5689 13.8973 63.2681 14.4452C62.9673 14.9823 62.5053 15.4174 61.8822 15.7504C61.2592 16.0835 60.4857 16.25 59.5618 16.25H57.8537V20.3107H55.0982V8.99862H59.5618C60.4642 8.99862 61.2269 9.15439 61.85 9.46593C62.4731 9.77747 62.9404 10.2072 63.2519 10.7551C63.5635 11.3029 63.7193 11.9314 63.7193 12.6404ZM59.3523 14.0584C59.8787 14.0584 60.2708 13.9349 60.5287 13.6878C60.7865 13.4407 60.9154 13.0916 60.9154 12.6404C60.9154 12.1892 60.7865 11.8401 60.5287 11.593C60.2708 11.3459 59.8787 11.2224 59.3523 11.2224H57.8537V14.0584H59.3523Z" fill="#1A1A1A"/>
<path d="M68.8117 20.4396C68.0275 20.4396 67.3292 20.3054 66.7169 20.0368C66.1045 19.7682 65.6211 19.403 65.2666 18.941C64.9121 18.4683 64.7133 17.9419 64.6704 17.3618H67.3936C67.4259 17.6734 67.5709 17.9258 67.8287 18.1192C68.0866 18.3126 68.4035 18.4093 68.7795 18.4093C69.1232 18.4093 69.3864 18.3448 69.5691 18.2159C69.7624 18.0762 69.8591 17.899 69.8591 17.6841C69.8591 17.4263 69.7248 17.2383 69.4563 17.1201C69.1877 16.9912 68.7526 16.8516 68.151 16.7012C67.5064 16.5508 66.9693 16.395 66.5396 16.2339C66.1099 16.062 65.7393 15.7988 65.4277 15.4443C65.1162 15.079 64.9604 14.5902 64.9604 13.9779C64.9604 13.4622 65.1001 12.9949 65.3794 12.576C65.6694 12.1462 66.0884 11.8078 66.6363 11.5608C67.1949 11.3137 67.8556 11.1901 68.6183 11.1901C69.7463 11.1901 70.6326 11.4694 71.2771 12.0281C71.9325 12.5867 72.3085 13.3279 72.4051 14.2518H69.8591C69.8161 13.9403 69.6765 13.6932 69.4401 13.5106C69.2145 13.3279 68.9137 13.2366 68.5378 13.2366C68.2155 13.2366 67.9684 13.3011 67.7965 13.43C67.6246 13.5482 67.5387 13.7147 67.5387 13.9295C67.5387 14.1874 67.673 14.3807 67.9415 14.5096C68.2208 14.6386 68.6505 14.7675 69.2307 14.8964C69.8967 15.0683 70.4392 15.2401 70.8582 15.412C71.2771 15.5732 71.6424 15.8417 71.9539 16.2177C72.2762 16.583 72.4427 17.0772 72.4535 17.7002C72.4535 18.2266 72.3031 18.6993 72.0023 19.1183C71.7122 19.5265 71.2879 19.8488 70.7293 20.0851C70.1814 20.3215 69.5422 20.4396 68.8117 20.4396Z" fill="#1A1A1A"/>
<path d="M83.3243 11.319L77.6844 24.581H74.7194L76.782 20.0046L73.1241 11.319H76.2019L78.2806 16.9429L80.3432 11.319H83.3243Z" fill="#1A1A1A"/>
<path d="M83.7729 15.8149C83.7729 14.8803 83.9609 14.0638 84.3369 13.3655C84.7236 12.6673 85.2554 12.1301 85.9322 11.7541C86.6197 11.3781 87.4039 11.1901 88.2848 11.1901C89.4128 11.1901 90.3528 11.4856 91.1048 12.0764C91.8675 12.6673 92.3671 13.4998 92.6034 14.5741H89.6707C89.4236 13.8866 88.9455 13.5428 88.2365 13.5428C87.7316 13.5428 87.3287 13.7415 87.0279 14.139C86.7271 14.5258 86.5767 15.0844 86.5767 15.8149C86.5767 16.5454 86.7271 17.1094 87.0279 17.5069C87.3287 17.8936 87.7316 18.087 88.2365 18.087C88.9455 18.087 89.4236 17.7432 89.6707 17.0557H92.6034C92.3671 18.1085 91.8675 18.9357 91.1048 19.5372C90.3421 20.1388 89.4021 20.4396 88.2848 20.4396C87.4039 20.4396 86.6197 20.2516 85.9322 19.8756C85.2554 19.4996 84.7236 18.9625 84.3369 18.2642C83.9609 17.566 83.7729 16.7495 83.7729 15.8149Z" fill="#1A1A1A"/>
<path d="M99.6045 11.2224C100.636 11.2224 101.463 11.5661 102.086 12.2537C102.709 12.9305 103.021 13.8651 103.021 15.0575V20.3107H100.281V15.4281C100.281 14.8266 100.126 14.3592 99.814 14.0262C99.5024 13.6932 99.0835 13.5267 98.5571 13.5267C98.0307 13.5267 97.6117 13.6932 97.3002 14.0262C96.9886 14.3592 96.8329 14.8266 96.8329 15.4281V20.3107H94.0774V8.38628H96.8329V12.5276C97.1122 12.1301 97.4935 11.8132 97.977 11.5769C98.4604 11.3405 99.0029 11.2224 99.6045 11.2224Z" fill="#1A1A1A"/>
<path d="M109.947 17.9742V20.3107H108.545C107.546 20.3107 106.767 20.069 106.209 19.5856C105.65 19.0914 105.371 18.2911 105.371 17.1846V13.6073H104.275V11.319H105.371V9.12753H108.126V11.319H109.931V13.6073H108.126V17.2168C108.126 17.4854 108.191 17.6788 108.319 17.7969C108.448 17.9151 108.663 17.9742 108.964 17.9742H109.947Z" fill="#1A1A1A"/>
<path d="M119.958 15.6699C119.958 15.9277 119.942 16.1963 119.91 16.4756H113.673C113.716 17.0342 113.894 17.4639 114.205 17.7647C114.527 18.0547 114.92 18.1998 115.381 18.1998C116.069 18.1998 116.547 17.9097 116.816 17.3296H119.748C119.598 17.9205 119.324 18.4522 118.927 18.9249C118.54 19.3976 118.051 19.7682 117.46 20.0368C116.869 20.3054 116.209 20.4396 115.478 20.4396C114.597 20.4396 113.813 20.2516 113.125 19.8756C112.438 19.4996 111.901 18.9625 111.514 18.2642C111.127 17.566 110.934 16.7495 110.934 15.8149C110.934 14.8803 111.122 14.0638 111.498 13.3655C111.885 12.6673 112.422 12.1301 113.109 11.7541C113.797 11.3781 114.587 11.1901 115.478 11.1901C116.348 11.1901 117.122 11.3728 117.799 11.738C118.475 12.1033 119.002 12.6243 119.378 13.3011C119.765 13.9779 119.958 14.7675 119.958 15.6699ZM117.138 14.9447C117.138 14.472 116.977 14.096 116.654 13.8167C116.332 13.5374 115.929 13.3978 115.446 13.3978C114.984 13.3978 114.592 13.5321 114.27 13.8006C113.958 14.0692 113.765 14.4506 113.689 14.9447H117.138Z" fill="#1A1A1A"/>
<path d="M124.167 12.8177C124.489 12.3235 124.892 11.9368 125.376 11.6574C125.859 11.3674 126.396 11.2224 126.987 11.2224V14.139H126.23C125.542 14.139 125.026 14.2894 124.683 14.5902C124.339 14.8803 124.167 15.3959 124.167 16.1372V20.3107H121.412V11.319H124.167V12.8177Z" fill="#1A1A1A"/>
<path d="M127.756 15.7988C127.756 14.8749 127.928 14.0638 128.272 13.3655C128.626 12.6673 129.104 12.1301 129.706 11.7541C130.308 11.3781 130.979 11.1901 131.72 11.1901C132.354 11.1901 132.907 11.319 133.38 11.5769C133.863 11.8347 134.234 12.1731 134.492 12.5921V11.319H137.247V20.3107H134.492V19.0377C134.223 19.4567 133.847 19.7951 133.364 20.0529C132.891 20.3107 132.338 20.4396 131.704 20.4396C130.974 20.4396 130.308 20.2516 129.706 19.8756C129.104 19.4889 128.626 18.9464 128.272 18.2481C127.928 17.5391 127.756 16.7226 127.756 15.7988ZM134.492 15.8149C134.492 15.1274 134.299 14.5848 133.912 14.1874C133.536 13.7899 133.074 13.5911 132.526 13.5911C131.978 13.5911 131.511 13.7899 131.124 14.1874C130.748 14.5741 130.56 15.1112 130.56 15.7988C130.56 16.4863 130.748 17.0342 131.124 17.4424C131.511 17.8399 131.978 18.0386 132.526 18.0386C133.074 18.0386 133.536 17.8399 133.912 17.4424C134.299 17.0449 134.492 16.5024 134.492 15.8149Z" fill="#1A1A1A"/>
<path d="M141.996 12.5921C142.265 12.1731 142.636 11.8347 143.108 11.5769C143.581 11.319 144.134 11.1901 144.768 11.1901C145.509 11.1901 146.181 11.3781 146.782 11.7541C147.384 12.1301 147.857 12.6673 148.2 13.3655C148.555 14.0638 148.732 14.8749 148.732 15.7988C148.732 16.7226 148.555 17.5391 148.2 18.2481C147.857 18.9464 147.384 19.4889 146.782 19.8756C146.181 20.2516 145.509 20.4396 144.768 20.4396C144.145 20.4396 143.592 20.3107 143.108 20.0529C142.636 19.7951 142.265 19.462 141.996 19.0538V24.5971H139.241V11.319H141.996V12.5921ZM145.928 15.7988C145.928 15.1112 145.735 14.5741 145.348 14.1874C144.972 13.7899 144.505 13.5911 143.946 13.5911C143.398 13.5911 142.931 13.7899 142.544 14.1874C142.168 14.5848 141.98 15.1274 141.98 15.8149C141.98 16.5024 142.168 17.0449 142.544 17.4424C142.931 17.8399 143.398 18.0386 143.946 18.0386C144.494 18.0386 144.961 17.8399 145.348 17.4424C145.735 17.0342 145.928 16.4863 145.928 15.7988Z" fill="#1A1A1A"/>
<path d="M158.654 15.6699C158.654 15.9277 158.638 16.1963 158.605 16.4756H152.369C152.412 17.0342 152.589 17.4639 152.901 17.7647C153.223 18.0547 153.615 18.1998 154.077 18.1998C154.765 18.1998 155.243 17.9097 155.512 17.3296H158.444C158.294 17.9205 158.02 18.4522 157.622 18.9249C157.236 19.3976 156.747 19.7682 156.156 20.0368C155.565 20.3054 154.905 20.4396 154.174 20.4396C153.293 20.4396 152.509 20.2516 151.821 19.8756C151.134 19.4996 150.597 18.9625 150.21 18.2642C149.823 17.566 149.63 16.7495 149.63 15.8149C149.63 14.8803 149.818 14.0638 150.194 13.3655C150.581 12.6673 151.118 12.1301 151.805 11.7541C152.493 11.3781 153.282 11.1901 154.174 11.1901C155.044 11.1901 155.818 11.3728 156.494 11.738C157.171 12.1033 157.698 12.6243 158.074 13.3011C158.46 13.9779 158.654 14.7675 158.654 15.6699ZM155.834 14.9447C155.834 14.472 155.673 14.096 155.35 13.8167C155.028 13.5374 154.625 13.3978 154.142 13.3978C153.68 13.3978 153.288 13.5321 152.965 13.8006C152.654 14.0692 152.461 14.4506 152.385 14.9447H155.834Z" fill="#1A1A1A"/>
<path d="M168.986 11.319V20.3107H166.231V19.0861C165.951 19.4835 165.57 19.8058 165.087 20.0529C164.614 20.2892 164.088 20.4074 163.508 20.4074C162.82 20.4074 162.213 20.257 161.687 19.9562C161.16 19.6447 160.752 19.1988 160.462 18.6187C160.172 18.0386 160.027 17.3565 160.027 16.5722V11.319H162.766V16.2016C162.766 16.8032 162.922 17.2705 163.234 17.6036C163.545 17.9366 163.964 18.1031 164.49 18.1031C165.028 18.1031 165.452 17.9366 165.763 17.6036C166.075 17.2705 166.231 16.8032 166.231 16.2016V11.319H168.986Z" fill="#1A1A1A"/>
<path d="M175.977 17.9742V20.3107H174.575C173.576 20.3107 172.797 20.069 172.239 19.5856C171.68 19.0914 171.401 18.2911 171.401 17.1846V13.6073H170.305V11.319H171.401V9.12753H174.156V11.319H175.961V13.6073H174.156V17.2168C174.156 17.4854 174.221 17.6788 174.35 17.7969C174.478 17.9151 174.693 17.9742 174.994 17.9742H175.977Z" fill="#1A1A1A"/>
<path d="M178.898 10.3844C178.414 10.3844 178.017 10.2448 177.705 9.96546C177.405 9.67541 177.254 9.3209 177.254 8.90193C177.254 8.47222 177.405 8.11771 177.705 7.8384C178.017 7.54835 178.414 7.40332 178.898 7.40332C179.37 7.40332 179.757 7.54835 180.058 7.8384C180.37 8.11771 180.525 8.47222 180.525 8.90193C180.525 9.3209 180.37 9.67541 180.058 9.96546C179.757 10.2448 179.37 10.3844 178.898 10.3844ZM180.267 11.319V20.3107H177.512V11.319H180.267Z" fill="#1A1A1A"/>
<path d="M185.922 20.4396C185.138 20.4396 184.44 20.3054 183.827 20.0368C183.215 19.7682 182.732 19.403 182.377 18.941C182.023 18.4683 181.824 17.9419 181.781 17.3618H184.504C184.536 17.6734 184.681 17.9258 184.939 18.1192C185.197 18.3126 185.514 18.4093 185.89 18.4093C186.234 18.4093 186.497 18.3448 186.68 18.2159C186.873 18.0762 186.97 17.899 186.97 17.6841C186.97 17.4263 186.835 17.2383 186.567 17.1201C186.298 16.9912 185.863 16.8516 185.262 16.7012C184.617 16.5508 184.08 16.395 183.65 16.2339C183.22 16.062 182.85 15.7988 182.538 15.4443C182.227 15.079 182.071 14.5902 182.071 13.9779C182.071 13.4622 182.211 12.9949 182.49 12.576C182.78 12.1462 183.199 11.8078 183.747 11.5608C184.305 11.3137 184.966 11.1901 185.729 11.1901C186.857 11.1901 187.743 11.4694 188.388 12.0281C189.043 12.5867 189.419 13.3279 189.516 14.2518H186.97C186.927 13.9403 186.787 13.6932 186.551 13.5106C186.325 13.3279 186.024 13.2366 185.648 13.2366C185.326 13.2366 185.079 13.3011 184.907 13.43C184.735 13.5482 184.649 13.7147 184.649 13.9295C184.649 14.1874 184.784 14.3807 185.052 14.5096C185.331 14.6386 185.761 14.7675 186.341 14.8964C187.007 15.0683 187.55 15.2401 187.969 15.412C188.388 15.5732 188.753 15.8417 189.064 16.2177C189.387 16.583 189.553 17.0772 189.564 17.7002C189.564 18.2266 189.414 18.6993 189.113 19.1183C188.823 19.5265 188.398 19.8488 187.84 20.0851C187.292 20.3215 186.653 20.4396 185.922 20.4396Z" fill="#1A1A1A"/>
<path d="M190.702 15.8149C190.702 14.8803 190.89 14.0638 191.266 13.3655C191.653 12.6673 192.184 12.1301 192.861 11.7541C193.549 11.3781 194.333 11.1901 195.214 11.1901C196.342 11.1901 197.282 11.4856 198.034 12.0764C198.797 12.6673 199.296 13.4998 199.532 14.5741H196.6C196.353 13.8866 195.875 13.5428 195.166 13.5428C194.661 13.5428 194.258 13.7415 193.957 14.139C193.656 14.5258 193.506 15.0844 193.506 15.8149C193.506 16.5454 193.656 17.1094 193.957 17.5069C194.258 17.8936 194.661 18.087 195.166 18.087C195.875 18.087 196.353 17.7432 196.6 17.0557H199.532C199.296 18.1085 198.797 18.9357 198.034 19.5372C197.271 20.1388 196.331 20.4396 195.214 20.4396C194.333 20.4396 193.549 20.2516 192.861 19.8756C192.184 19.4996 191.653 18.9625 191.266 18.2642C190.89 17.566 190.702 16.7495 190.702 15.8149Z" fill="#1A1A1A"/>
<path d="M206.534 11.2224C207.565 11.2224 208.392 11.5661 209.015 12.2537C209.638 12.9305 209.95 13.8651 209.95 15.0575V20.3107H207.21V15.4281C207.21 14.8266 207.055 14.3592 206.743 14.0262C206.432 13.6932 206.013 13.5267 205.486 13.5267C204.96 13.5267 204.541 13.6932 204.229 14.0262C203.918 14.3592 203.762 14.8266 203.762 15.4281V20.3107H201.006V8.38628H203.762V12.5276C204.041 12.1301 204.423 11.8132 204.906 11.5769C205.389 11.3405 205.932 11.2224 206.534 11.2224Z" fill="#1A1A1A"/>
<path d="M220.341 15.6699C220.341 15.9277 220.324 16.1963 220.292 16.4756H214.056C214.099 17.0342 214.276 17.4639 214.588 17.7647C214.91 18.0547 215.302 18.1998 215.764 18.1998C216.452 18.1998 216.93 17.9097 217.198 17.3296H220.131C219.981 17.9205 219.707 18.4522 219.309 18.9249C218.923 19.3976 218.434 19.7682 217.843 20.0368C217.252 20.3054 216.591 20.4396 215.861 20.4396C214.98 20.4396 214.196 20.2516 213.508 19.8756C212.821 19.4996 212.284 18.9625 211.897 18.2642C211.51 17.566 211.317 16.7495 211.317 15.8149C211.317 14.8803 211.505 14.0638 211.881 13.3655C212.267 12.6673 212.805 12.1301 213.492 11.7541C214.18 11.3781 214.969 11.1901 215.861 11.1901C216.731 11.1901 217.505 11.3728 218.181 11.738C218.858 12.1033 219.384 12.6243 219.76 13.3011C220.147 13.9779 220.341 14.7675 220.341 15.6699ZM217.521 14.9447C217.521 14.472 217.359 14.096 217.037 13.8167C216.715 13.5374 216.312 13.3978 215.829 13.3978C215.367 13.3978 214.975 13.5321 214.652 13.8006C214.341 14.0692 214.147 14.4506 214.072 14.9447H217.521Z" fill="#1A1A1A"/>
<path d="M224.55 12.8177C224.872 12.3235 225.275 11.9368 225.758 11.6574C226.242 11.3674 226.779 11.2224 227.37 11.2224V14.139H226.612C225.925 14.139 225.409 14.2894 225.065 14.5902C224.722 14.8803 224.55 15.3959 224.55 16.1372V20.3107H221.794V11.319H224.55V12.8177Z" fill="#1A1A1A"/>
<path d="M61.9467 36.6665C62.602 36.8062 63.1284 37.1339 63.5259 37.6495C63.9234 38.1544 64.1221 38.7345 64.1221 39.3898C64.1221 40.3352 63.7891 41.0872 63.123 41.6458C62.4677 42.1937 61.5492 42.4676 60.3675 42.4676H55.0982V31.1555H60.1903C61.3397 31.1555 62.2368 31.4187 62.8813 31.9451C63.5366 32.4715 63.8643 33.1859 63.8643 34.0883C63.8643 34.7543 63.687 35.3076 63.3325 35.748C62.9887 36.1885 62.5268 36.4947 61.9467 36.6665ZM57.8537 35.7319H59.6585C60.1097 35.7319 60.4535 35.6352 60.6898 35.4419C60.9369 35.2378 61.0604 34.9423 61.0604 34.5556C61.0604 34.1689 60.9369 33.8734 60.6898 33.6693C60.4535 33.4652 60.1097 33.3632 59.6585 33.3632H57.8537V35.7319ZM59.8841 40.2439C60.346 40.2439 60.7005 40.1418 60.9476 39.9377C61.2055 39.7229 61.3344 39.4167 61.3344 39.0192C61.3344 38.6217 61.2001 38.3102 60.9315 38.0846C60.6737 37.859 60.3138 37.7462 59.8519 37.7462H57.8537V40.2439H59.8841Z" fill="#1A1A1A"/>
<path d="M74.1963 37.8268C74.1963 38.0846 74.1802 38.3532 74.148 38.6325H67.9118C67.9548 39.1911 68.132 39.6208 68.4436 39.9216C68.7659 40.2116 69.158 40.3567 69.6199 40.3567C70.3074 40.3567 70.7855 40.0666 71.0541 39.4865H73.9868C73.8364 40.0774 73.5625 40.6091 73.165 41.0818C72.7783 41.5545 72.2895 41.9251 71.6986 42.1937C71.1078 42.4623 70.4471 42.5965 69.7166 42.5965C68.8357 42.5965 68.0515 42.4085 67.3639 42.0325C66.6764 41.6565 66.1393 41.1194 65.7525 40.4211C65.3658 39.7229 65.1724 38.9064 65.1724 37.9718C65.1724 37.0372 65.3604 36.2207 65.7364 35.5224C66.1232 34.8242 66.6603 34.287 67.3478 33.911C68.0354 33.535 68.825 33.347 69.7166 33.347C70.5868 33.347 71.3602 33.5297 72.037 33.8949C72.7138 34.2602 73.2402 34.7812 73.6162 35.458C74.003 36.1348 74.1963 36.9244 74.1963 37.8268ZM71.3764 37.1016C71.3764 36.6289 71.2152 36.2529 70.8929 35.9736C70.5706 35.6943 70.1678 35.5547 69.6844 35.5547C69.2224 35.5547 68.8303 35.689 68.508 35.9575C68.1965 36.2261 68.0031 36.6075 67.9279 37.1016H71.3764Z" fill="#1A1A1A"/>
<path d="M78.4055 34.9746C78.7278 34.4804 79.1306 34.0937 79.6141 33.8143C80.0975 33.5243 80.6346 33.3793 81.2255 33.3793V36.2959H80.4681C79.7806 36.2959 79.2649 36.4463 78.9212 36.7471C78.5774 37.0372 78.4055 37.5528 78.4055 38.2941V42.4676H75.65V33.476H78.4055V34.9746Z" fill="#1A1A1A"/>
<path d="M91.0186 37.8268C91.0186 38.0846 91.0025 38.3532 90.9702 38.6325H84.7341C84.777 39.1911 84.9543 39.6208 85.2658 39.9216C85.5881 40.2116 85.9802 40.3567 86.4422 40.3567C87.1297 40.3567 87.6078 40.0666 87.8763 39.4865H90.8091C90.6587 40.0774 90.3848 40.6091 89.9873 41.0818C89.6005 41.5545 89.1117 41.9251 88.5209 42.1937C87.93 42.4623 87.2694 42.5965 86.5388 42.5965C85.6579 42.5965 84.8737 42.4085 84.1862 42.0325C83.4987 41.6565 82.9615 41.1194 82.5748 40.4211C82.188 39.7229 81.9947 38.9064 81.9947 37.9718C81.9947 37.0372 82.1827 36.2207 82.5587 35.5224C82.9454 34.8242 83.4825 34.287 84.1701 33.911C84.8576 33.535 85.6472 33.347 86.5388 33.347C87.409 33.347 88.1825 33.5297 88.8593 33.8949C89.5361 34.2602 90.0625 34.7812 90.4385 35.458C90.8252 36.1348 91.0186 36.9244 91.0186 37.8268ZM88.1986 37.1016C88.1986 36.6289 88.0375 36.2529 87.7152 35.9736C87.3929 35.6943 86.99 35.5547 86.5066 35.5547C86.0447 35.5547 85.6526 35.689 85.3303 35.9575C85.0187 36.2261 84.8254 36.6075 84.7502 37.1016H88.1986Z" fill="#1A1A1A"/>
<path d="M93.8581 32.5413C93.3746 32.5413 92.9772 32.4017 92.6656 32.1224C92.3648 31.8323 92.2144 31.4778 92.2144 31.0588C92.2144 30.6291 92.3648 30.2746 92.6656 29.9953C92.9772 29.7052 93.3746 29.5602 93.8581 29.5602C94.3307 29.5602 94.7175 29.7052 95.0183 29.9953C95.3298 30.2746 95.4856 30.6291 95.4856 31.0588C95.4856 31.4778 95.3298 31.8323 95.0183 32.1224C94.7175 32.4017 94.3307 32.5413 93.8581 32.5413ZM95.2278 33.476V42.4676H92.4722V33.476H95.2278Z" fill="#1A1A1A"/>
<path d="M102.236 40.1311V42.4676H100.834C99.8351 42.4676 99.0563 42.2259 98.4977 41.7425C97.939 41.2483 97.6597 40.448 97.6597 39.3415V35.7642H96.564V33.476H97.6597V31.2844H100.415V33.476H102.22V35.7642H100.415V39.3737C100.415 39.6423 100.48 39.8357 100.609 39.9538C100.738 40.072 100.952 40.1311 101.253 40.1311H102.236Z" fill="#1A1A1A"/>
<path d="M107.429 42.5965C106.645 42.5965 105.946 42.4623 105.334 42.1937C104.722 41.9251 104.238 41.5599 103.884 41.0979C103.529 40.6252 103.331 40.0988 103.288 39.5187H106.011C106.043 39.8303 106.188 40.0827 106.446 40.2761C106.704 40.4695 107.021 40.5662 107.397 40.5662C107.74 40.5662 108.004 40.5017 108.186 40.3728C108.38 40.2331 108.476 40.0559 108.476 39.841C108.476 39.5832 108.342 39.3952 108.073 39.277C107.805 39.1481 107.37 39.0085 106.768 38.8581C106.124 38.7077 105.587 38.5519 105.157 38.3908C104.727 38.2189 104.356 37.9557 104.045 37.6012C103.733 37.2359 103.578 36.7471 103.578 36.1348C103.578 35.6191 103.717 35.1518 103.997 34.7329C104.287 34.3031 104.706 33.9647 105.253 33.7177C105.812 33.4706 106.473 33.347 107.236 33.347C108.364 33.347 109.25 33.6263 109.894 34.185C110.55 34.7436 110.926 35.4848 111.022 36.4087H108.476C108.433 36.0972 108.294 35.8501 108.057 35.6675C107.832 35.4848 107.531 35.3935 107.155 35.3935C106.833 35.3935 106.586 35.458 106.414 35.5869C106.242 35.7051 106.156 35.8716 106.156 36.0864C106.156 36.3443 106.29 36.5376 106.559 36.6665C106.838 36.7955 107.268 36.9244 107.848 37.0533C108.514 37.2252 109.056 37.397 109.475 37.5689C109.894 37.7301 110.26 37.9986 110.571 38.3746C110.893 38.7399 111.06 39.2341 111.071 39.8571C111.071 40.3835 110.92 40.8562 110.619 41.2752C110.329 41.6834 109.905 42.0057 109.346 42.242C108.799 42.4784 108.159 42.5965 107.429 42.5965Z" fill="#1A1A1A"/>
<path d="M112.209 37.9718C112.209 37.0372 112.397 36.2207 112.773 35.5224C113.159 34.8242 113.691 34.287 114.368 33.911C115.055 33.535 115.84 33.347 116.721 33.347C117.849 33.347 118.789 33.6425 119.541 34.2333C120.303 34.8242 120.803 35.6567 121.039 36.731H118.106C117.859 36.0435 117.381 35.6997 116.672 35.6997C116.167 35.6997 115.764 35.8984 115.464 36.2959C115.163 36.6827 115.012 37.2413 115.012 37.9718C115.012 38.7023 115.163 39.2663 115.464 39.6638C115.764 40.0505 116.167 40.2439 116.672 40.2439C117.381 40.2439 117.859 39.9001 118.106 39.2126H121.039C120.803 40.2654 120.303 41.0926 119.541 41.6941C118.778 42.2957 117.838 42.5965 116.721 42.5965C115.84 42.5965 115.055 42.4085 114.368 42.0325C113.691 41.6565 113.159 41.1194 112.773 40.4211C112.397 39.7229 112.209 38.9064 112.209 37.9718Z" fill="#1A1A1A"/>
<path d="M128.04 33.3793C129.072 33.3793 129.899 33.723 130.522 34.4106C131.145 35.0874 131.456 36.022 131.456 37.2144V42.4676H128.717V37.585C128.717 36.9835 128.561 36.5161 128.25 36.1831C127.938 35.8501 127.519 35.6836 126.993 35.6836C126.466 35.6836 126.047 35.8501 125.736 36.1831C125.424 36.5161 125.269 36.9835 125.269 37.585V42.4676H122.513V30.5432H125.269V34.6845C125.548 34.287 125.929 33.9701 126.413 33.7338C126.896 33.4974 127.439 33.3793 128.04 33.3793Z" fill="#1A1A1A"/>
<path d="M132.823 37.9557C132.823 37.0318 132.995 36.2207 133.339 35.5224C133.694 34.8242 134.172 34.287 134.773 33.911C135.375 33.535 136.046 33.347 136.787 33.347C137.421 33.347 137.975 33.476 138.447 33.7338C138.931 33.9916 139.301 34.33 139.559 34.749V33.476H142.315V42.4676H139.559V41.1946C139.29 41.6136 138.914 41.952 138.431 42.2098C137.958 42.4676 137.405 42.5965 136.771 42.5965C136.041 42.5965 135.375 42.4085 134.773 42.0325C134.172 41.6458 133.694 41.1033 133.339 40.405C132.995 39.696 132.823 38.8795 132.823 37.9557ZM139.559 37.9718C139.559 37.2843 139.366 36.7417 138.979 36.3443C138.603 35.9468 138.141 35.748 137.593 35.748C137.045 35.748 136.578 35.9468 136.191 36.3443C135.815 36.731 135.627 37.2681 135.627 37.9557C135.627 38.6432 135.815 39.1911 136.191 39.5993C136.578 39.9968 137.045 40.1955 137.593 40.1955C138.141 40.1955 138.603 39.9968 138.979 39.5993C139.366 39.2018 139.559 38.6593 139.559 37.9718Z" fill="#1A1A1A"/>
<path d="M148.82 35.7642H147.338V42.4676H144.582V35.7642H143.583V33.476H144.582V33.2181C144.582 32.1116 144.899 31.2737 145.533 30.7043C146.167 30.1242 147.096 29.8342 148.32 29.8342C148.525 29.8342 148.675 29.8395 148.772 29.8503V32.1868C148.245 32.1546 147.875 32.2298 147.66 32.4124C147.445 32.595 147.338 32.9227 147.338 33.3954V33.476H148.82V35.7642Z" fill="#1A1A1A"/>
<path d="M155.126 40.1311V42.4676H153.724C152.725 42.4676 151.946 42.2259 151.388 41.7425C150.829 41.2483 150.55 40.448 150.55 39.3415V35.7642H149.454V33.476H150.55V31.2844H153.305V33.476H155.11V35.7642H153.305V39.3737C153.305 39.6423 153.37 39.8357 153.499 39.9538C153.628 40.072 153.843 40.1311 154.143 40.1311H155.126Z" fill="#1A1A1A"/>
<path d="M156.113 37.9557C156.113 37.0318 156.285 36.2207 156.629 35.5224C156.983 34.8242 157.461 34.287 158.063 33.911C158.665 33.535 159.336 33.347 160.077 33.347C160.668 33.347 161.205 33.4706 161.689 33.7177C162.183 33.9647 162.57 34.2978 162.849 34.7167V30.5432H165.604V42.4676H162.849V41.1785C162.591 41.6082 162.221 41.952 161.737 42.2098C161.264 42.4676 160.711 42.5965 160.077 42.5965C159.336 42.5965 158.665 42.4085 158.063 42.0325C157.461 41.6458 156.983 41.1033 156.629 40.405C156.285 39.696 156.113 38.8795 156.113 37.9557ZM162.849 37.9718C162.849 37.2843 162.656 36.7417 162.269 36.3443C161.893 35.9468 161.431 35.748 160.883 35.748C160.335 35.748 159.868 35.9468 159.481 36.3443C159.105 36.731 158.917 37.2681 158.917 37.9557C158.917 38.6432 159.105 39.1911 159.481 39.5993C159.868 39.9968 160.335 40.1955 160.883 40.1955C161.431 40.1955 161.893 39.9968 162.269 39.5993C162.656 39.2018 162.849 38.6593 162.849 37.9718Z" fill="#1A1A1A"/>
<path d="M168.984 32.5413C168.5 32.5413 168.103 32.4017 167.791 32.1224C167.491 31.8323 167.34 31.4778 167.34 31.0588C167.34 30.6291 167.491 30.2746 167.791 29.9953C168.103 29.7052 168.5 29.5602 168.984 29.5602C169.456 29.5602 169.843 29.7052 170.144 29.9953C170.456 30.2746 170.611 30.6291 170.611 31.0588C170.611 31.4778 170.456 31.8323 170.144 32.1224C169.843 32.4017 169.456 32.5413 168.984 32.5413ZM170.353 33.476V42.4676H167.598V33.476H170.353Z" fill="#1A1A1A"/>
<path d="M180.826 37.8268C180.826 38.0846 180.81 38.3532 180.778 38.6325H174.542C174.585 39.1911 174.762 39.6208 175.074 39.9216C175.396 40.2116 175.788 40.3567 176.25 40.3567C176.938 40.3567 177.416 40.0666 177.684 39.4865H180.617C180.467 40.0774 180.193 40.6091 179.795 41.0818C179.408 41.5545 178.92 41.9251 178.329 42.1937C177.738 42.4623 177.077 42.5965 176.347 42.5965C175.466 42.5965 174.682 42.4085 173.994 42.0325C173.306 41.6565 172.769 41.1194 172.383 40.4211C171.996 39.7229 171.803 38.9064 171.803 37.9718C171.803 37.0372 171.991 36.2207 172.366 35.5224C172.753 34.8242 173.29 34.287 173.978 33.911C174.665 33.535 175.455 33.347 176.347 33.347C177.217 33.347 177.99 33.5297 178.667 33.8949C179.344 34.2602 179.87 34.7812 180.246 35.458C180.633 36.1348 180.826 36.9244 180.826 37.8268ZM178.006 37.1016C178.006 36.6289 177.845 36.2529 177.523 35.9736C177.201 35.6943 176.798 35.5547 176.314 35.5547C175.853 35.5547 175.46 35.689 175.138 35.9575C174.827 36.2261 174.633 36.6075 174.558 37.1016H178.006Z" fill="#1A1A1A"/>
<path d="M187.759 33.3793C188.812 33.3793 189.65 33.723 190.273 34.4106C190.907 35.0874 191.223 36.022 191.223 37.2144V42.4676H188.484V37.585C188.484 36.9835 188.328 36.5161 188.017 36.1831C187.705 35.8501 187.286 35.6836 186.76 35.6836C186.233 35.6836 185.814 35.8501 185.503 36.1831C185.191 36.5161 185.036 36.9835 185.036 37.585V42.4676H182.28V33.476H185.036V34.6684C185.315 34.2709 185.691 33.9594 186.164 33.7338C186.636 33.4974 187.168 33.3793 187.759 33.3793Z" fill="#1A1A1A"/>
<path d="M198.15 40.1311V42.4676H196.748C195.749 42.4676 194.97 42.2259 194.411 41.7425C193.853 41.2483 193.573 40.448 193.573 39.3415V35.7642H192.478V33.476H193.573V31.2844H196.329V33.476H198.134V35.7642H196.329V39.3737C196.329 39.6423 196.393 39.8357 196.522 39.9538C196.651 40.072 196.866 40.1311 197.167 40.1311H198.15Z" fill="#1A1A1A"/>
<path d="M203.342 42.5965C202.558 42.5965 201.86 42.4623 201.248 42.1937C200.635 41.9251 200.152 41.5599 199.797 41.0979C199.443 40.6252 199.244 40.0988 199.201 39.5187H201.924C201.957 39.8303 202.102 40.0827 202.36 40.2761C202.617 40.4695 202.934 40.5662 203.31 40.5662C203.654 40.5662 203.917 40.5017 204.1 40.3728C204.293 40.2331 204.39 40.0559 204.39 39.841C204.39 39.5832 204.256 39.3952 203.987 39.277C203.718 39.1481 203.283 39.0085 202.682 38.8581C202.037 38.7077 201.5 38.5519 201.07 38.3908C200.641 38.2189 200.27 37.9557 199.959 37.6012C199.647 37.2359 199.491 36.7471 199.491 36.1348C199.491 35.6191 199.631 35.1518 199.91 34.7329C200.2 34.3031 200.619 33.9647 201.167 33.7177C201.726 33.4706 202.386 33.347 203.149 33.347C204.277 33.347 205.163 33.6263 205.808 34.185C206.463 34.7436 206.839 35.4848 206.936 36.4087H204.39C204.347 36.0972 204.207 35.8501 203.971 35.6675C203.745 35.4848 203.445 35.3935 203.069 35.3935C202.746 35.3935 202.499 35.458 202.327 35.5869C202.155 35.7051 202.069 35.8716 202.069 36.0864C202.069 36.3443 202.204 36.5376 202.472 36.6665C202.752 36.7955 203.181 36.9244 203.761 37.0533C204.428 37.2252 204.97 37.397 205.389 37.5689C205.808 37.7301 206.173 37.9986 206.485 38.3746C206.807 38.7399 206.974 39.2341 206.984 39.8571C206.984 40.3835 206.834 40.8562 206.533 41.2752C206.243 41.6834 205.819 42.0057 205.26 42.242C204.712 42.4784 204.073 42.5965 203.342 42.5965Z" fill="#1A1A1A"/>
<defs>
<clipPath id="clip0_125_1440">
<rect width="47.3965" height="49.9885" fill="white" transform="translate(0 0.00585938)"/>
</clipPath>
</defs>
</svg>
