<svg width="71" height="71" viewBox="0 0 67.3375 71.0201" fill="none" xmlns="http://www.w3.org/2000/svg">
<path d="M32.4465 0H34.8971C35.143 0.127104 35.5909 0.165469 35.8792 0.191788C37.7226 0.360109 39.3966 0.542968 41.1965 1.03974C50.2074 3.43279 57.5221 10.0054 60.8619 18.7099C64.1905 27.4859 63.2005 37.6161 57.9398 45.4115C55.4572 49.0905 51.5802 52.5278 48.4892 55.777L40.5301 64.0496C40.1759 64.4162 39.1567 65.4954 38.8476 65.8902C38.0342 66.9285 34.367 70.0113 33.9184 71.0201H33.6777C33.5721 67.0377 33.6013 62.3151 33.6676 58.3227C30.0977 58.6081 24.9925 57.2695 21.7947 55.8107C14.6659 52.5586 9.06312 46.7651 6.31815 39.3804C3.77368 32.535 3.9351 24.0035 7.00781 17.3395C7.69749 15.8438 8.49259 14.2743 9.40323 12.8991C13.3388 6.95628 19.4181 2.89594 26.2395 1.02795C27.0251 0.812838 27.8535 0.6064 28.6608 0.501922C29.5439 0.387613 31.6802 0.297294 32.4036 0.0172309C32.418 0.0116642 32.4322 0.00574363 32.4465 0Z" fill="#CE1819"/>
<path d="M37.0242 12.9045C37.6806 12.8383 38.5216 13.0181 39.1187 13.2863C42.9457 15.0048 42.7556 22.3509 39.075 24.1815C36.9343 25.2462 35.7616 24.769 33.6591 24.1277C33.6166 25.3907 33.6662 26.8019 33.6328 28.0625C33.5924 29.5892 37.2886 28.8531 38.2065 28.7527L38.2042 25.3442C38.8763 25.0056 39.5652 24.7869 40.2429 24.4193L40.251 28.8508C40.7081 28.8095 43.5487 28.7528 43.86 28.9799C43.8648 29.202 43.9009 29.183 43.7867 29.341C43.1579 29.446 41.0206 29.3885 40.2452 29.3834C40.268 31.5678 40.2283 33.7583 40.2424 35.9435C40.2505 37.206 40.1738 37.9671 40.7673 39.1271C40.7941 39.1373 40.8209 39.1472 40.8479 39.1568C41.6187 39.4315 42.0549 39.3475 42.7553 39.0161C42.8905 38.7507 43.0303 38.4877 43.1744 38.2271C43.9711 36.8187 45.107 35.755 46.6953 35.3162C48.0993 34.9244 49.6011 35.1006 50.8762 35.8069C50.6872 34.1535 51.0275 31.8749 50.7413 30.1968C50.7129 30.0306 50.4995 29.7262 50.3968 29.5791C49.8787 29.4158 49.0108 29.4261 48.7029 29.1727L48.7519 29.091C49.3913 28.8623 52.1087 28.8993 52.9339 28.8881L52.9473 42.4184C52.9536 43.3334 52.8333 44.7906 52.9769 45.6478C53.1374 46.605 54.3637 46.388 54.8428 46.6465L54.8495 46.7326C54.4321 46.8509 51.5119 46.8611 50.8952 46.8655L50.8839 45.5326C49.3244 47.0299 47.0605 47.467 45.1223 46.4272C44.4838 46.0181 44.2073 45.7261 43.7317 45.1452C43.7794 45.3031 43.8252 45.4615 43.8691 45.6204C44.3576 47.4348 44.0234 49.5683 43.0905 51.2074C41.7755 53.5176 39.3119 54.1803 36.848 53.4696C36.1093 53.2565 35.5133 52.9105 34.8381 52.5192C34.4856 53.067 34.1033 53.6047 33.5405 53.9355L33.5576 42.2983C33.5577 40.494 33.5948 38.5308 33.5339 36.7448C32.8319 36.0327 32.2 36.3467 31.4415 35.9986L31.415 35.9109C31.7964 35.6563 34.9122 35.7021 35.6234 35.6972C35.6081 38.3378 35.6728 41.0748 35.6072 43.7028C35.6673 43.6362 35.7292 43.5714 35.7929 43.5082C36.882 42.4243 37.8801 41.8945 39.4354 41.9233C41.1262 41.9547 41.7308 42.3191 42.8811 43.4853C42.5393 42.1808 42.3138 41.0491 42.6956 39.7378C42.043 40.042 41.5015 40.3128 40.7659 40.3151C37.7036 40.3245 38.2 37.0214 38.2027 34.9845L38.2016 29.3958L32.5388 29.386C31.9552 29.3862 29.968 29.5298 29.6243 29.2073L29.6677 29.1006C30.1764 28.9424 30.7597 28.9415 31.3717 28.7754C31.4957 28.1077 31.4543 26.4249 31.4546 25.6859L31.4535 20.0809L31.4532 16.305C31.4528 15.6956 31.4668 14.9725 31.4289 14.3695C31.38 13.5917 30.0481 13.6946 29.666 13.4034L29.6708 13.2781C29.9672 13.1508 32.9373 13.1109 33.6019 13.0683L33.6008 14.6789C34.8874 13.5967 35.3553 13.2295 37.0242 12.9045Z" fill="#FEFEFE"/>
<path d="M37.7868 42.8209C38.0566 42.8041 38.5147 42.7635 38.7638 42.8174C41.9048 43.4974 41.9995 47.5046 41.5227 49.9968C41.2693 51.3218 40.6208 52.5719 39.4173 53.1009C39.1062 53.1885 38.7838 53.2294 38.4607 53.2222C37.0585 53.1789 35.6425 51.9871 35.6194 50.5381C35.6081 49.8331 35.6089 49.13 35.6099 48.4248C35.6032 46.9902 35.6135 45.5555 35.6409 44.121C36.4673 43.5116 36.7955 43.1616 37.7868 42.8209Z" fill="#CE1819"/>
<path d="M47.8516 35.6583C49.257 35.5959 49.9621 35.8691 50.8261 36.9855C50.9257 39.3585 50.8368 42.4464 50.8367 44.8842C50.0065 45.7603 49.1512 46.2071 47.9106 46.0565C46.1456 45.5177 45.3191 44.3613 44.9972 42.591C44.5789 40.2908 45.0552 36.2268 47.8516 35.6583Z" fill="#CE1819"/>
<path d="M35.834 13.8869C37.4872 13.7833 38.4454 14.5039 39.0404 16.0176C39.9309 18.2834 39.8686 23.0896 37.2339 24.1913C36.8974 24.2905 36.3078 24.3412 35.9518 24.2961C33.2699 23.9587 33.6054 21.3143 33.643 19.3203C33.6681 17.9913 33.569 16.5995 33.681 15.2754C34.3359 14.5613 34.8494 14.0967 35.834 13.8869Z" fill="#CE1819"/>
</svg>
